<?xml version="1.0" encoding="utf-8"?>
<!-- Generator: Adobe Illustrator 25.3.1, SVG Export Plug-In . SVG Version: 6.00 Build 0)  -->
<svg version="1.1" id="Layer_1" xmlns="http://www.w3.org/2000/svg" xmlns:xlink="http://www.w3.org/1999/xlink" x="0px" y="0px"
	 viewBox="0 0 90 80" style="enable-background:new 0 0 90 80;" xml:space="preserve">
<style type="text/css">
	.st0{fill:#D3D3D3;}
	.st1{enable-background:new    ;}
	.st2{fill:#B8B8B8;}
</style>
<rect class="st0" width="90" height="80"/>
<g>
	<g class="st1">
		<path class="st2" d="M11,18.8c0.1-0.1,0.1-0.1,0.2-0.1c0.1,0,0.1,0,0.2-0.1c0.3-0.3,0.4-0.5,0.4-0.7c0-0.2-0.1-0.4-0.3-0.7
			l0.2-0.2l-0.2-0.1l0,0l0,0c0,0,0.2,0,0.3,0c0.2,0,0.3,0,0.3,0c0,0,0,0.1,0.1,0.2c0.1,0.1,0.1,0.1,0.1,0.2l0,0
			c0.1,0.1,0.2,0.1,0.2,0c0.1-0.1,0.1-0.2,0.2-0.2c0,0,0,0-0.1,0c-0.1,0-0.1,0-0.1-0.1c0,0,0-0.1,0-0.2c0-0.1,0-0.2,0.1-0.3
			c0-0.1,0.1-0.2,0.1-0.3c0-0.1,0.1-0.2,0.1-0.2c0.1-0.1,0.3-0.2,0.4-0.3c0.1,0,0.3,0,0.4,0.2l0,0l0,0c0,0,0.1-0.1,0.1-0.2
			c0.1-0.1,0.1-0.1,0.1-0.1l-0.1-0.1c-0.1-0.1-0.2-0.1-0.3,0c-0.1,0-0.2,0.1-0.3,0.1c0,0,0-0.1,0-0.3c0-0.1,0.1-0.2,0.1-0.2
			c0.1-0.1,0.1-0.1,0.2-0.1c0.1,0,0.1,0,0.2,0c0.1,0,0.1,0,0.2,0c0.1,0,0.1,0,0.2-0.1c-0.2,0-0.3-0.1-0.3-0.2c0-0.1,0-0.1,0-0.2
			s0.1-0.2,0.2-0.3c0.1-0.1,0.2-0.2,0.2-0.4c0-0.1,0.1-0.3,0-0.5s-0.1-0.3-0.3-0.5c0,0-0.1-0.1-0.2-0.2c-0.1-0.1-0.2-0.2-0.4-0.3
			c-0.1-0.1-0.3-0.2-0.4-0.3c-0.1-0.1-0.2-0.1-0.2-0.2H13c0,0-0.1,0-0.1,0c0,0,0-0.1,0-0.1c0,0,0-0.1,0-0.2c0-0.1,0-0.1,0-0.2
			c0,0,0-0.1,0-0.1c0,0,0,0,0-0.1c0,0-0.1-0.1-0.1-0.1c-0.1,0-0.1-0.1-0.2-0.1c-0.1,0-0.1,0-0.1-0.1c-0.1-0.1-0.2-0.1-0.2-0.1
			c-0.1,0-0.1,0.1-0.2,0.1s-0.1,0.1-0.2,0.2c-0.1,0.1-0.1,0.2-0.2,0.3l-0.1,0.1c0,0-0.1,0.1-0.1,0.1v0.1c0,0,0,0.1,0,0.1
			s-0.1,0-0.1,0.1c-0.1,0-0.1,0.1-0.1,0.1l0,0c-0.1,0.1-0.1,0.2-0.1,0.4c0,0.2-0.1,0.3-0.2,0.4c-0.1,0.1-0.2,0.1-0.2,0.2
			c-0.1,0-0.2,0.1-0.3,0c-0.3,0.3-0.5,0.6-0.8,0.9s-0.6,0.5-1,0.6c0,0-0.1,0-0.1,0c-0.1,0-0.1,0-0.1,0c0,0-0.1,0.1-0.1,0.1
			s-0.1,0.1-0.1,0.1c0,0-0.1,0-0.2,0.1c-0.1,0-0.2,0.1-0.2,0c0.1,0,0.2-0.1,0.2-0.3c0-0.2,0-0.3,0-0.4c0,0,0,0.1-0.1,0.2
			c-0.1,0.1-0.1,0.1-0.2,0.2c-0.1,0.1-0.2,0.1-0.2,0.1c-0.1,0-0.2,0-0.3,0c0.1-0.1,0-0.3,0-0.4S6.5,14,6.4,13.9l0,0
			c0,0-0.1,0-0.2-0.1c-0.1,0-0.2,0-0.2,0c0-0.1,0-0.2,0.1-0.3c0.1-0.1,0.1-0.2,0.2-0.2c0.1-0.1,0.2-0.2,0.3-0.3
			c0.2-0.2,0.3-0.3,0.3-0.3l0.3,0.3l0.4-0.4c-0.1-0.1-0.2-0.1-0.2-0.2s-0.1-0.1-0.2-0.2c0.2-0.2,0.4-0.3,0.6-0.4
			c0.2-0.1,0.4-0.2,0.6-0.4l-0.3-0.3c0.1,0,0.2,0,0.3-0.1c0.2-0.1,0.3-0.1,0.3-0.2c0,0,0-0.1-0.1-0.1c-0.1,0-0.2-0.1-0.2-0.2
			c0.2-0.2,0.3-0.4,0.4-0.5C9,9.9,9.1,9.7,9.3,9.6c0.1-0.1,0.3-0.2,0.4-0.3C9.7,9.2,9.9,9.1,10,9c0.1-0.1,0.3-0.2,0.5-0.4
			s0.4-0.2,0.5-0.4c0.1-0.1,0.2-0.3,0.3-0.4c0.1-0.2,0.2-0.3,0.3-0.5C11.8,7.2,11.9,7,12,6.9c0.1-0.1,0.3-0.2,0.4-0.3
			c0,0,0.1,0,0.3-0.1c0.2-0.1,0.3-0.1,0.3-0.1l0.2-0.2c0.2-0.2,0.2-0.3,0.2-0.3c0-0.1-0.1-0.2-0.2-0.3c0.1,0,0.2,0,0.4,0
			c0.2,0,0.4,0,0.5,0c0.2,0,0.3-0.1,0.4-0.2c0.1-0.1,0-0.2-0.1-0.4l-0.1-0.3l0.1-0.1c0.1-0.1,0.3-0.2,0.4-0.2c0.1,0,0.3-0.1,0.4-0.3
			c0.2-0.2,0.3-0.3,0.4-0.5c0.1-0.2,0.2-0.3,0.4-0.5C16,3,16.1,3,16.2,3c0.1,0,0.2,0.1,0.2,0.2C16.6,3,16.7,3,16.8,2.9
			c0.1,0,0.2-0.1,0.3-0.1c0.1,0,0.2-0.1,0.4-0.1c0.1,0,0.2-0.1,0.3-0.2L18,2.7c0.1,0.1,0.1,0.2,0.1,0.3c0,0.1,0,0.2-0.1,0.3
			c0,0.1-0.1,0.2-0.1,0.3c0,0.1,0,0.2,0,0.2c0,0,0.1,0.1,0.1,0.1c0,0,0.1,0,0.2,0c0.1,0,0.1,0,0.1,0s0.1,0,0.1,0.1
			c0,0,0.1,0.1,0,0.3c0,0.1-0.1,0.3-0.1,0.4c-0.1,0.1-0.1,0.3-0.2,0.4C18.1,5,18.1,5.1,18,5.1l0,0l-0.2,0c0-0.1-0.1-0.2-0.1-0.3
			c0-0.1,0-0.2,0-0.2c0-0.1,0-0.2,0-0.2c0-0.1,0-0.2-0.1-0.3c0,0-0.1,0-0.1,0c-0.1,0-0.1,0.1-0.1,0.1c0,0-0.1,0.1-0.1,0.1
			c0,0,0,0.1,0,0.2l-0.6,0.6l0.1,0.1l0.4-0.4l0,0c0,0,0,0,0,0.1c0,0,0,0,0,0c0,0.3,0,0.5-0.1,0.8c-0.1,0.3-0.2,0.5-0.4,0.7
			c-0.2,0.2-0.3,0.2-0.4,0.3c-0.1,0-0.3,0.1-0.4,0.2c-0.1,0.1-0.2,0.3-0.2,0.4s0,0.3-0.2,0.4C15.5,8,15.4,8,15.3,8
			c-0.1,0-0.2,0-0.2,0C15,8,15,8,15,8c0,0-0.1,0-0.1,0l0,0c-0.1,0.1-0.1,0.1,0,0.2l-0.9,0.9c0,0,0.1,0.1,0.1,0.1c0,0,0.1,0,0.2,0
			L14,9.7l0.5-0.2l-0.1,0.6l0.4-0.4l0.2,0.2c0.2,0.2,0.4,0.4,0.7,0.7c0.3,0.3,0.4,0.5,0.5,0.6c0,0-0.1,0-0.2,0.1
			c-0.1,0-0.2,0.1-0.2,0.1l0,0c0,0,0,0,0,0l0.4,0.4l-0.4,0.4c0,0,0,0,0,0c0,0.1,0,0.1,0.1,0.1c0,0,0.1,0,0.2,0.1
			c0.1,0,0.1,0.1,0.2,0.1c0,0,0,0,0-0.1c0,0,0-0.1,0-0.1l0,0c0.1-0.1,0.2-0.1,0.2-0.2c0.1,0,0.2-0.1,0.2-0.2
			c0.1-0.1,0.1-0.2,0.1-0.3c0-0.1,0.1-0.2,0.2-0.3c0.1-0.1,0.1-0.1,0.2-0.1c0.1,0,0.1,0,0.2,0c0.1,0,0.1,0,0.2,0
			c0.1,0,0.1,0,0.2-0.1c0.1-0.1,0.2-0.3,0.2-0.4c0-0.1,0.1-0.3,0.3-0.5c0.1,0.1,0.1,0.1,0.1,0.2c0,0.1,0,0.1,0,0.2
			c0,0.1,0,0.1,0,0.2c0,0.1,0,0.2,0.1,0.2l0.5-0.5l-0.3-0.3l0.1-0.1c0,0,0.1-0.1,0.2-0.1S18.9,10,19,9.9c0.1-0.1,0.2-0.1,0.3-0.1
			s0.2-0.1,0.2-0.1c0,0.1,0.1,0.2,0.3,0.2c0.1,0,0.3,0.1,0.4,0.1c0.1,0,0.3,0,0.4,0c0.1,0,0.2-0.1,0.2-0.1c-0.1-0.1-0.1-0.2-0.2-0.2
			c0-0.1-0.1-0.1-0.2-0.1c0,0,0.1,0,0.1-0.1c0.1-0.1,0.1-0.1,0.1-0.1c0,0,0-0.1,0-0.1c0-0.1,0-0.1,0-0.1v0c0.1-0.1,0.2-0.1,0.3-0.1
			c0.1,0,0.2,0.1,0.3,0.1c0.1,0,0.2,0.1,0.3,0.1c0.1,0,0.2,0,0.3-0.1c0.1-0.1,0.2-0.3,0.2-0.5c-0.1,0-0.2,0.1-0.3,0.1
			s-0.2,0-0.2-0.1l-0.1-0.1c0.2,0,0.4-0.1,0.6-0.2s0.3-0.3,0.4-0.4c0.1,0.1,0.1,0.1,0.2,0.1c0.1,0,0.1-0.1,0.2-0.1
			c0.1,0,0.1-0.1,0.2-0.1s0.1,0,0.2,0c0,0-0.1,0.1-0.1,0.1c-0.1,0.1-0.1,0.1-0.2,0.2s-0.1,0.2-0.2,0.3c-0.1,0.1-0.1,0.2-0.1,0.2
			c0,0,0,0,0.1,0.1c0,0,0.1,0,0.1,0l0.3-0.3L23,8.5c0,0-0.1,0.1-0.1,0.2c-0.1,0.1-0.1,0.2-0.2,0.2c-0.1,0.1-0.1,0.2-0.2,0.2
			c-0.1,0.1-0.1,0.1-0.1,0.2c0,0,0,0,0,0.1c0,0.1,0,0.1,0,0.1l0,0c0.1,0.1,0.2,0.1,0.3,0c0.1-0.1,0.2-0.2,0.3-0.2L23,9.2
			c0,0,0.1-0.1,0.1-0.2c0.1-0.1,0.1-0.1,0.1-0.1c0,0,0,0,0,0l0.1,0c0.1,0.1,0.1,0.3,0,0.4s-0.1,0.2-0.2,0.3C23.1,9.7,23,9.8,23,9.9
			c-0.1,0.1-0.1,0.2-0.2,0.4c0,0,0,0.1,0,0.2c0,0.1,0,0.2,0,0.2c0,0-0.1,0.1-0.2,0.1s-0.3,0.2-0.4,0.3c-0.1,0.1-0.3,0.2-0.4,0.3
			c-0.1,0.1-0.2,0.2-0.3,0.2c0,0-0.1,0.1-0.2,0.2s-0.2,0.2-0.3,0.3c-0.1,0.1-0.2,0.2-0.3,0.3c-0.1,0.1-0.1,0.1-0.1,0.1
			c-0.1,0.1-0.2,0.1-0.2,0.1c-0.1,0-0.2,0-0.2,0c-0.1,0-0.2,0-0.2,0c-0.1,0-0.2,0-0.2,0.1l-0.1,0.1c-0.1,0.1-0.1,0.2,0,0.2l0.4,0.1
			l-0.1,0.1l-0.1,0.1c0,0-0.1,0-0.2,0.1s-0.1,0.1-0.1,0.1c0,0,0,0.1,0,0.1c0,0.1,0.1,0.1,0.1,0.1c0,0.1-0.1,0.2-0.1,0.3
			c0,0.1-0.1,0.2-0.1,0.2c0,0.1-0.1,0.1-0.1,0.2l0,0l0,0c0,0-0.1,0.1-0.2,0.1c-0.1,0-0.1,0.1-0.1,0.1l-1.1,1.1c-0.2,0-0.4,0-0.5,0
			c-0.1-0.1-0.3-0.1-0.4,0l-0.5,0.5c-0.2,0.4-0.4,0.8-0.6,1.1c-0.2,0.3-0.6,0.6-1,0.8l0,0.2l-0.5,0.9c0,0,0.1,0,0.1,0
			c0.1,0,0.1,0,0.1,0.1v0.1c0,0,0,0,0,0c0,0,0,0,0,0c-0.2,0.2-0.3,0.3-0.5,0.3c-0.2,0-0.4,0.1-0.5,0.3c-0.1,0.1-0.1,0.1-0.1,0.2
			c0,0.1,0,0.1-0.1,0.2c0,0,0,0,0,0c0,0,0,0,0,0l0,0c0,0,0-0.1,0-0.2c0-0.1,0-0.2-0.1-0.2l0,0c-0.1-0.1-0.2-0.1-0.3,0
			c-0.2,0-0.3,0.1-0.3,0.1l0.4-0.4c-0.2-0.2-0.3-0.3-0.4-0.3c-0.1-0.1-0.2-0.1-0.3-0.1c-0.1,0-0.2,0-0.3,0c-0.1,0-0.3,0-0.4,0
			L11,18.8L11,18.8z M10.6,12.2c-0.1-0.1-0.1-0.1-0.2-0.1c-0.1,0-0.2,0-0.2,0.1l0.2,0.2L10.6,12.2z M10.6,9.5
			c-0.1-0.1-0.1-0.1-0.2-0.1c-0.1,0-0.1,0-0.2,0.1l0.2,0.2L10.6,9.5z M11.2,11.2c-0.1,0-0.3,0-0.4,0c-0.1,0-0.2,0.1-0.3,0.2
			l-0.1,0.1c0.1,0,0.2,0,0.4,0C11,11.4,11.1,11.3,11.2,11.2L11.2,11.2z M11.5,7.9L11.5,7.9l0.1,0L11.5,7.9z M12.2,17.3
			C12.2,17.3,12.2,17.3,12.2,17.3C12.1,17.4,12.1,17.4,12.2,17.3C12.1,17.4,12.2,17.4,12.2,17.3C12.2,17.4,12.2,17.3,12.2,17.3z
			 M12.5,19c-0.1-0.1-0.2-0.1-0.3,0l0.2,0.2L12.5,19z M13.2,11.1C13.2,11,13.2,11,13.2,11.1C13.1,11.1,13.1,11.1,13.2,11.1
			C13.2,11.2,13.2,11.2,13.2,11.1z M14.7,16.5c0,0-0.1,0-0.1,0c0,0-0.1,0.1,0,0.1c0,0,0.1,0,0.1,0C14.8,16.6,14.8,16.6,14.7,16.5z
			 M14.8,10.4c0,0,0,0.1-0.1,0.1c0,0.1,0,0.2,0,0.2c0,0.1,0,0.1,0,0.1c0,0,0.1-0.1,0.2-0.2C14.9,10.6,14.9,10.5,14.8,10.4
			C14.8,10.4,14.8,10.4,14.8,10.4z M14.9,13.5C14.9,13.5,14.8,13.6,14.9,13.5c-0.1,0.1-0.1,0.2-0.1,0.2c0.1,0.1,0.1,0.1,0.1,0.1
			c0,0,0.1-0.1,0.1-0.2c0-0.1,0-0.2,0-0.2L14.9,13.5z M15,12.7C15,12.7,15,12.7,15,12.7C14.9,12.8,14.9,12.8,15,12.7
			C15,12.8,15,12.8,15,12.7C15.1,12.8,15.1,12.7,15,12.7z M15.4,11.3c-0.1-0.1-0.1-0.1-0.2,0c-0.1,0.1-0.1,0.1,0,0.2
			c0,0,0.1,0,0.2,0C15.4,11.4,15.4,11.3,15.4,11.3z M15.4,13c-0.1,0.1-0.1,0.3,0,0.4c0,0,0.1-0.1,0.1-0.2s0.1-0.1,0-0.2
			C15.5,12.9,15.5,12.9,15.4,13z M16.4,15.1l0.2,0l0-0.2h-0.2L16.4,15.1z M16.9,12.7c-0.1,0-0.1,0-0.2,0c0,0-0.1,0-0.1,0.1
			c0.1,0.1,0.2,0.1,0.3,0.1L16.9,12.7z M17,11.7c-0.1,0.1-0.1,0.1-0.1,0.2c0,0,0,0.1,0.1,0.2c0.1,0.1,0.2,0.1,0.4,0
			c0.2-0.1,0.3-0.2,0.3-0.2c0,0,0.1-0.1,0.1-0.1c0.1-0.1,0.1-0.2,0-0.2c-0.1,0-0.3,0-0.4,0C17.2,11.6,17.1,11.6,17,11.7z M17.4,15.1
			L17.4,15.1l0.5-0.3l-0.1-0.1L17.4,15.1z M18.4,13.5c0,0-0.1,0-0.1,0s-0.1,0.1,0,0.1c0.1,0.1,0.1,0.1,0.2,0S18.4,13.6,18.4,13.5z"
			/>
		<path class="st2" d="M15.3,21.7c0.1-0.1,0.2-0.2,0.4-0.3s0.3-0.3,0.4-0.3c0,0,0,0.1,0.1,0.1c0,0,0.1,0.1,0.1,0.1l0.2-0.1
			c0,0,0.1,0,0.2,0c0.1,0,0.2,0,0.4,0s0.3,0,0.4,0c0.1,0,0.2,0,0.2,0c0,0,0,0,0,0.1c0,0,0,0.1,0,0.1c0,0,0,0.1-0.1,0.1s0,0.1,0,0.1
			c0,0,0,0,0,0l0,0c0,0,0,0,0.1,0c0,0,0,0,0,0c0,0,0,0,0.1,0c0,0,0.1,0,0.1,0h0.3c0,0,0,0,0,0.1s0,0.1,0,0.1c0,0,0,0,0,0l0,0l0,0
			c0,0,0,0,0.1,0c0,0,0.1,0,0.1,0.1l0.1,0.1l0.1,0.1l0,0c0,0,0,0.1,0,0.2c0,0.1,0,0.2,0,0.2l0.1,0.1l0.1,0.1h0.1c0,0,0.1,0,0.1,0.1
			c0.1,0.1,0.1,0.1,0.1,0.1c0,0,0.1,0,0.1,0c0,0,0.1,0,0.1-0.1l0.7,0.7c0,0,0,0,0.1,0c0,0,0.1,0,0.1-0.1v-0.1v-0.1c0,0,0,0,0.1-0.1
			c0-0.1,0.1-0.1,0.1-0.1c0,0,0.1-0.1,0.1-0.2c0-0.1,0.1-0.2,0.1-0.2c0,0,0,0,0-0.1c0-0.1,0-0.1,0.1-0.2s0.1-0.1,0.1-0.2
			c0-0.1,0.1-0.1,0.1-0.1c0,0,0,0,0-0.1s0-0.1,0.1-0.1l0.1-0.1c0,0,0,0,0.1,0c0,0,0.1-0.1,0.1-0.1c0.1,0,0.1-0.1,0.1-0.1
			c0,0,0.1,0.1,0.1,0.1l0.1,0c0,0,0.1,0,0.1-0.1c0-0.1,0.1-0.1,0.1-0.1l0,0L22,22l-0.1,0l0.6-0.6c0,0,0.1-0.1,0.1-0.2
			c0.1-0.1,0.1-0.2,0.1-0.2l0.3-0.3c0,0,0-0.1,0.1-0.1c0-0.1,0.1-0.1,0.1-0.1c0,0,0.1,0,0.2,0c0.1,0,0.2,0,0.2,0l0.1-0.1l0.1-0.1
			l-0.3,0l0-0.1c0,0,0,0,0,0c0,0,0-0.1,0.1-0.1c0.1-0.1,0.1-0.1,0.1-0.1c0,0,0.1-0.1,0.2-0.3c0.1-0.2,0.2-0.2,0.2-0.3l0,0l0,0
			c0,0,0,0,0.1,0c0,0,0.1,0,0.1,0c0,0,0.1-0.1,0.1-0.2c0.1-0.1,0.1-0.1,0.1-0.1c0,0,0.1,0,0.2-0.1c0.1-0.1,0.2-0.1,0.3-0.1
			c0,0,0,0,0.1,0c0.1,0,0.1,0,0.1,0c0,0,0-0.1,0-0.1c0-0.1,0-0.1,0-0.1l0.7-0.7c0,0,0,0.1,0.1,0.1c0,0.1,0.1,0.1,0.1,0.1l0.1,0.1
			l0,0h0.7l0,0l0,0l0-0.1l0-0.1c0,0,0.1-0.1,0.1-0.1c0.1-0.1,0.1-0.1,0.1-0.1v-0.1l0,0l0,0c0,0-0.1,0-0.1,0c-0.1,0-0.1,0-0.1,0
			c0,0-0.1,0-0.1,0.1s-0.1,0-0.2,0.1c0,0,0-0.1,0-0.1s0-0.1,0-0.1c0,0,0,0,0-0.1c0,0,0-0.1,0-0.1l0-0.1c0,0,0-0.1,0-0.1l0,0l0,0
			c0,0,0,0-0.1-0.1c-0.1,0-0.1-0.1-0.2-0.1c-0.1,0-0.1-0.1-0.2-0.1c-0.1,0-0.1-0.1-0.1-0.1s-0.1,0-0.1-0.1c-0.1-0.1-0.1-0.1-0.2-0.1
			c0,0-0.1-0.1-0.1-0.1c0-0.1-0.1-0.1-0.1-0.1l0.1-0.2l-0.2-0.1l0.3-0.3c0,0-0.1,0-0.2,0c-0.1,0-0.1-0.1-0.1-0.1c0,0,0,0,0-0.1
			l0-0.1c0,0-0.1-0.1-0.1-0.1c0,0,0-0.1-0.1-0.2l0,0l-0.1-0.1c0,0,0,0-0.1,0c0,0-0.1,0-0.1,0c0,0,0,0,0-0.1c0,0,0-0.1,0-0.1
			c0,0,0-0.1,0-0.1s0-0.1,0-0.1c0,0,0,0,0-0.1s0-0.1,0-0.1c0,0,0,0,0-0.1c0-0.1,0-0.1,0-0.1c0,0,0-0.1,0-0.2c0-0.1,0-0.2,0-0.2
			c0,0,0.1,0,0.1,0c0.1,0,0.1,0,0.1,0l0,0l0,0c0,0,0,0.1,0,0.2c0,0.1,0,0.1,0,0.1l-0.1,0.1c0,0,0,0.1,0,0.2c0,0.1,0.1,0.2,0.1,0.2
			c0,0,0.1,0,0.1,0l0,0l0,0c0,0,0-0.1,0.1-0.2c0-0.1,0.1-0.2,0.1-0.3l0,0l0,0c0,0,0.1,0,0.1-0.1c0.1,0,0.1,0,0.1,0c0,0,0.1,0,0.1,0
			c0,0,0.1,0,0.2,0.1c0.1,0.1,0.2,0.1,0.2,0.1c0,0,0.1,0,0.1,0h0.1c0,0,0,0,0,0.1s0,0.1,0,0.1h0.3c0,0,0.1,0,0.2,0.1
			c0.1,0,0.1,0.1,0.1,0.1c0,0,0,0.1,0,0.2c0,0.1,0,0.1,0,0.1l0.1,0.1l0.1,0.1c0,0,0.1,0,0.1,0c0.1,0,0.2,0,0.2,0h0.1h0.1l0,0l0,0
			c0,0,0,0.1,0,0.1c0,0.1,0,0.1,0,0.1c0,0,0.1,0,0.2,0.1c0.1,0,0.2,0.1,0.2,0.1l0.1,0.1l0,0c0,0,0,0.1,0.1,0.2c0,0.1,0,0.2,0,0.2
			l0,0c0,0,0,0,0,0c0,0,0.1,0,0.2,0c0.1,0,0.2,0,0.2,0l0,0l0,0c0,0,0,0.1,0.1,0.1c0,0.1,0.1,0.1,0.1,0.1c0,0,0,0.1,0,0.2
			c0,0.1,0,0.2,0,0.2l0,0l0,0l0.1,0c0,0,0.1,0,0.1,0c0,0,0,0,0,0c0,0,0,0,0,0c0,0,0,0,0.1-0.1c0,0,0.1,0,0.1-0.1v-0.1c0,0,0,0,0,0
			s0,0,0,0c0,0,0,0,0,0l0.1-0.2c0.1-0.1,0.1-0.1,0.1,0c0,0,0,0.1,0,0.2c0,0.1,0,0.2,0,0.2c0,0,0,0.1,0,0.1s-0.1,0.1-0.1,0.1
			c0,0,0.1,0,0.1,0c0.1,0,0.1,0,0.1,0c0,0,0.1,0,0.1,0c0,0,0.1,0,0.1-0.1l0.2,0.2l0.2,0.2c0,0,0,0.1,0.1,0.1s0,0.1,0,0.1
			c0,0,0,0.1,0,0.2c0,0.1,0,0.1,0,0.2l0,0l0,0c0,0-0.1,0.1-0.2,0.1c-0.1,0-0.1,0.1-0.2,0.1c0,0-0.1,0-0.1,0c-0.1,0-0.1,0-0.1,0
			l-0.1,0.1l-0.1,0.1c0,0,0.1,0,0.1,0.1s0.1,0.1,0.1,0.1c0,0,0.1,0,0.1,0s0.1,0,0.1,0l-0.1,0.2c0,0,0,0,0.1,0s0.1,0,0.1,0l0.1-0.1
			l0.1-0.1c0,0,0,0,0-0.1s0-0.1,0-0.1l0.2-0.2l0.1-0.1c0,0,0.1,0,0.1,0s0.1,0,0.2,0l0,0c0,0,0.1,0,0.1,0.1c0,0,0.1,0,0.1,0
			c0,0,0,0,0.1,0c0,0,0.1,0,0.1,0c0,0,0.1,0,0.1,0v0.1c0,0,0,0.1-0.1,0.2c0,0.1-0.1,0.2-0.1,0.2c0,0,0,0,0,0.1c0,0,0,0,0,0.1
			c0,0,0,0.1-0.1,0.1c0,0.1-0.1,0.1-0.1,0.1l-0.2,0.2l-0.1,0.1c0,0-0.1,0-0.1,0c-0.1,0-0.1,0-0.2,0l0,0l0,0c0,0-0.1,0-0.1,0
			c-0.1,0-0.1,0-0.1,0l0,0l-0.1,0.1c0,0,0,0.1-0.1,0.2c-0.1,0.1-0.1,0.2-0.1,0.2l-0.1,0.1L30.4,20c0,0-0.1,0-0.1,0l-0.1,0l0,0
			c0,0,0,0,0,0l0-0.1c0,0,0-0.1,0-0.1c0-0.1-0.1-0.1-0.1-0.1l-0.3-0.3c0,0,0-0.1,0-0.1c0-0.1,0-0.1,0-0.1c0,0-0.1,0-0.2-0.1
			c-0.1,0-0.2-0.1-0.2-0.1c0,0-0.1,0-0.1,0c-0.1,0-0.1,0-0.1,0l0-0.3l-0.1,0L28.4,18c0,0-0.1,0-0.2,0c-0.1,0-0.2,0.1-0.2,0.1
			l-0.1,0.1l-0.1,0.1c0,0,0,0.1-0.1,0.1c0,0.1,0,0.1-0.1,0.1c0,0,0,0.1,0,0.2c0,0.1,0,0.2,0,0.2l0,0.1c0,0.1,0,0.1,0,0.1l-0.1,0.1
			c0,0,0,0.1-0.1,0.2s-0.1,0.2-0.1,0.2l-1,1c0,0-0.1,0-0.2,0.1c-0.1,0-0.2,0-0.2,0.1c0,0-0.1,0.1-0.2,0.1c-0.1,0.1-0.1,0.1-0.2,0.1
			c0,0-0.1,0.1-0.1,0.1c-0.1,0-0.1,0.1-0.2,0.2c-0.1,0.1-0.1,0.1-0.2,0.2c-0.1,0.1-0.1,0.1-0.1,0.1c0,0,0,0-0.1,0c0,0-0.1,0-0.1,0
			l0,0l0,0c0,0,0,0,0.1,0c0.1,0,0.1,0,0.1,0c0,0,0,0.1,0,0.1l0,0l0,0c0,0-0.1,0.1-0.2,0.1c-0.1,0.1-0.2,0.1-0.2,0.1l-0.2,0.2
			l-0.2,0.2c0,0,0,0.1,0,0.2c0,0.1,0,0.1,0,0.2c0,0-0.1,0-0.1,0s-0.1,0-0.1,0l0,0l0,0c0,0,0,0.1,0,0.2c0,0.1,0,0.1,0,0.2
			c0,0,0,0.1-0.1,0.2c-0.1,0.1-0.2,0.2-0.2,0.3l-0.1,0.1L23,24.2c0,0-0.1,0.1-0.2,0.1c-0.1,0.1-0.2,0.1-0.2,0.1l-0.1,0l0,0
			c0,0,0,0,0,0l-0.1-0.2l0,0c0,0,0,0,0,0h-0.1c0,0-0.1,0-0.2,0c-0.1,0-0.1,0-0.1,0.1c0,0,0,0.1,0,0.1s0,0.1,0,0.1c0,0,0,0.1,0,0.2
			c0,0.1,0,0.1-0.1,0.2L22,24.8l0,0.8c0,0,0.1,0,0.1,0c0,0,0.1,0,0.1,0c0.1,0,0.1-0.1,0.1-0.1l0,0c0,0,0,0,0,0c0,0,0,0.1,0.1,0.1
			s0,0.1,0,0.1l0.1,0.1l-0.1,0.5c0,0,0,0,0,0l0,0l0,0c0,0,0,0,0,0l0,0l0.1,0l0.1,0.1c0,0,0.1,0,0.1,0.1s0.1,0,0.1,0l0,0l0,0
			c0,0,0,0,0,0.1l0,0.1l0.1,0.1l0.1,0.1c0,0,0.1,0,0.1,0s0.1,0,0.1,0l0,0l0,0c0,0,0,0.1,0,0.1c0,0,0,0.1,0,0.1c0,0,0,0.1,0,0.1
			l0.1,0.1l0.1,0.1c0,0,0,0,0.1,0c0,0,0,0,0.1,0c0,0,0.1-0.1,0.2-0.1c0.1-0.1,0.1-0.1,0.2-0.1c0,0,0,0.1,0,0.1l0,0.1
			c0,0,0,0.1-0.1,0.1c0,0,0,0.1,0,0.1s0,0,0,0.1c0,0,0,0.1,0,0.2c0,0.1,0,0.1,0,0.1c0,0,0,0.1,0.1,0.2c0.1,0.1,0.1,0.1,0.1,0.2
			c-0.1,0.1-0.1,0.1-0.2,0.1c0,0,0,0-0.1,0c0,0,0,0,0,0c0,0,0,0,0-0.1c0-0.1,0-0.1,0-0.1c0,0-0.1,0-0.2-0.1c-0.1,0-0.1,0-0.1,0
			c0,0-0.1,0-0.1,0.1c0,0.1,0,0.1,0,0.1l0,0c0,0,0,0,0,0c0,0-0.1,0-0.1,0c-0.1,0-0.1,0-0.1,0c0,0-0.1,0-0.1,0s-0.1,0-0.1,0
			c0,0-0.1,0-0.1,0c0,0-0.1,0-0.1,0.1l-0.3-0.3l0,0c0,0,0,0,0,0h0.1l0,0l0,0c0,0,0,0,0-0.1c0,0,0-0.1,0-0.1l0.5-0.5h-0.1
			c0,0-0.1,0.1-0.3,0.1c-0.2,0.1-0.2,0.1-0.3,0.1c0,0-0.1,0-0.2,0c-0.1,0-0.2,0-0.2-0.1l-0.1,0c0,0,0,0,0,0s0,0,0,0c0,0-0.1,0-0.1,0
			c0,0-0.1,0-0.1,0l-0.2-0.6c0,0-0.1,0-0.1,0.1c0,0-0.1,0-0.1,0c0,0,0,0,0,0c0,0,0,0-0.1,0l-0.1,0l0,0l0,0c0,0,0,0.1,0,0.2
			c0,0.1,0,0.1,0,0.1c0,0,0.1,0.1,0.2,0.1c0.1,0.1,0.1,0.1,0.1,0.1c0,0,0,0.1,0,0.1c-0.1,0.1-0.1,0.1-0.1,0.1c0,0,0,0.1,0.1,0.1
			c0,0.1,0.1,0.1,0.1,0.1l0,0.1c0,0,0,0,0,0c0,0-0.1,0-0.1,0l-0.1-0.1l-0.1-0.1c0,0,0-0.1,0.1-0.1c0-0.1,0.1-0.1,0.1-0.1
			c0,0,0-0.1,0-0.1c0,0,0-0.1-0.1-0.1L21.2,28c0,0,0,0-0.1,0l-0.3,0.3l-0.2-0.2c-0.1-0.1-0.2-0.2-0.2-0.3c0,0,0-0.1-0.1-0.1
			c0-0.1-0.1-0.1-0.1-0.2l-0.1-0.1l-0.1-0.1c0,0-0.1,0-0.1,0c0,0-0.1,0-0.1,0l0.2-0.2c0,0,0,0,0,0l0,0c0,0-0.1,0-0.1,0.1
			c-0.1,0-0.1,0.1-0.1,0.1c0,0,0,0,0,0c0,0,0,0-0.1,0c0,0,0,0,0,0c0,0,0,0,0,0l0-0.1c0,0,0-0.1,0-0.1l0,0c0,0,0,0,0,0l0,0
			c0,0,0,0-0.1,0c0,0-0.1,0-0.1,0h0l0,0c0,0,0,0,0,0c0,0,0-0.1-0.1-0.2c0-0.1-0.1-0.2-0.1-0.3l0,0l0,0l-0.1,0.1c0,0-0.1,0-0.1,0.1
			c0,0,0,0-0.1,0c0,0-0.1,0-0.1,0c0,0,0.1-0.1,0.2-0.2c0.1-0.1,0.2-0.2,0.2-0.2c0-0.1,0-0.1,0.1-0.2c0,0,0-0.1,0-0.1l-0.1-0.1
			c0,0,0-0.1-0.1-0.1c0-0.1-0.1-0.1-0.1-0.1c0,0-0.1,0-0.1,0l-0.1,0c0.1,0.1,0.1,0.1,0,0.1c0,0,0,0,0,0.1c0,0.1,0,0.1,0,0.1l0,0.1
			l0,0.1c0,0,0,0,0,0c0,0-0.1,0-0.1-0.1c0,0-0.1,0-0.1,0c0,0,0,0-0.1,0c-0.1,0-0.1,0-0.2,0c-0.1,0-0.1,0-0.2,0.1l-0.3-0.3L17.6,25
			c0-0.1-0.1-0.2-0.2-0.3c-0.1-0.1-0.1-0.3-0.2-0.3l-0.1,0c0,0,0,0-0.1,0c0,0-0.1,0-0.1,0c-0.1,0-0.1,0-0.1,0l-0.1,0L16.3,24
			c0,0,0-0.1,0.1-0.1s0.1-0.1,0.1-0.1c0,0,0,0,0-0.1c0,0,0-0.1,0-0.1l-0.1,0c0,0-0.1,0.1-0.1,0.1c-0.1,0-0.1,0.1-0.1,0.1v-0.3
			c0,0-0.1,0-0.1,0c-0.1,0-0.1,0-0.1,0c0,0-0.1,0-0.1,0s-0.1,0-0.1-0.1c0,0,0,0-0.1,0c0,0-0.1,0-0.1-0.1c0,0,0-0.1-0.1-0.1
			c0,0,0-0.1-0.1-0.1c0,0-0.1-0.1-0.1-0.2c-0.1-0.1-0.1-0.1-0.1-0.2c0,0,0-0.1,0-0.1c0-0.1,0-0.2-0.1-0.2c0,0,0,0,0-0.1
			c0,0,0-0.1,0-0.1c0,0,0-0.1,0.1-0.2C15.2,21.9,15.2,21.8,15.3,21.7L15.3,21.7L15.3,21.7z M16,21.9c0,0-0.1,0-0.1,0s0,0.1,0,0.1
			c0,0,0.1,0,0.1,0S16,21.9,16,21.9z M16.7,24.1c-0.1-0.1-0.1-0.1-0.1,0s0,0.1,0,0.1C16.6,24.2,16.6,24.2,16.7,24.1
			C16.7,24.1,16.7,24.1,16.7,24.1z M17.3,22.5C17.3,22.4,17.3,22.4,17.3,22.5C17.2,22.5,17.2,22.5,17.3,22.5
			C17.3,22.6,17.3,22.5,17.3,22.5z M17.8,24C17.9,24,17.9,24,17.8,24c0-0.1,0-0.1-0.1-0.1c0,0-0.1-0.1-0.1-0.1c0,0,0,0-0.1,0
			c0,0,0,0.1,0.1,0.1C17.8,24,17.8,24,17.8,24z M18,24.2l0.1,0.1l0-0.1H18z M18.6,22.8C18.6,22.8,18.5,22.8,18.6,22.8
			C18.5,22.8,18.5,22.8,18.6,22.8C18.5,22.9,18.5,22.9,18.6,22.8C18.6,22.9,18.6,22.8,18.6,22.8z M19.2,23.5c0,0-0.1,0-0.1,0
			c0,0,0,0.1,0,0.1s0.1,0,0.1,0C19.3,23.6,19.3,23.5,19.2,23.5z M19.5,24.8C19.6,24.8,19.6,24.8,19.5,24.8
			C19.5,24.8,19.5,24.8,19.5,24.8C19.5,24.8,19.5,24.8,19.5,24.8C19.5,24.9,19.5,24.9,19.5,24.8z M20.1,24c0,0-0.1,0-0.2,0
			c-0.1,0-0.1,0-0.2,0c0,0,0,0-0.1,0c0,0-0.1,0-0.1,0l0,0l0,0L20.1,24z M19.5,25.8c0,0,0,0.1,0.1,0.2c0,0.1,0.1,0.2,0.1,0.2
			s0,0.1,0,0.2c0,0.1,0,0.1-0.1,0.1l0.1,0l0,0c0,0,0,0,0,0c0,0,0,0,0,0l0,0c0,0,0-0.1,0.1-0.2c0-0.1,0-0.1,0-0.1c0,0,0-0.1-0.1-0.1
			c0,0-0.1-0.1-0.1-0.1L19.5,25.8C19.6,25.9,19.6,25.9,19.5,25.8C19.6,25.9,19.6,25.8,19.5,25.8L19.5,25.8z M19.5,23.6L19.5,23.6
			l0.1,0L19.5,23.6L19.5,23.6z M19.8,24.3L19.8,24.3L19.8,24.3L19.8,24.3z M20.1,26.5l0.2,0.1l0-0.1L20.1,26.5z M20.5,27.5
			L20.5,27.5l0.1,0L20.5,27.5L20.5,27.5z M20.9,25.7C20.9,25.7,20.9,25.7,20.9,25.7C20.9,25.7,20.9,25.7,20.9,25.7
			c-0.1,0-0.2,0-0.2,0L20.9,25.7L20.9,25.7L20.9,25.7z M21,27.2L21,27.2l0.1,0.1l0.1,0v-0.3L21,27.2z M21.2,25.8
			C21.2,25.8,21.2,25.9,21.2,25.8C21.2,25.9,21.2,25.9,21.2,25.8L21.1,26c0,0,0,0,0,0c0,0,0,0,0.1,0l0.1,0c0,0,0.1,0,0.1-0.1
			L21.2,25.8z M22.8,27.5C22.7,27.4,22.7,27.4,22.8,27.5c-0.1,0-0.2,0-0.3,0c-0.1,0-0.1,0-0.1,0c0,0-0.1,0.1-0.2,0.1
			c-0.1,0.1-0.2,0.1-0.2,0.1l0.1,0.1c0.1,0,0.1-0.1,0.2-0.1s0.1-0.1,0.2-0.1C22.6,27.6,22.6,27.6,22.8,27.5
			C22.7,27.5,22.7,27.5,22.8,27.5C22.7,27.5,22.7,27.5,22.8,27.5z M22.3,23.4C22.3,23.4,22.3,23.4,22.3,23.4
			C22.2,23.5,22.2,23.5,22.3,23.4C22.3,23.5,22.3,23.5,22.3,23.4C22.3,23.5,22.3,23.5,22.3,23.4z M22.8,23.7
			C22.8,23.8,22.8,23.8,22.8,23.7c0,0.1,0,0.1,0,0.2l0,0l0,0H23l0.1-0.1l0,0c0-0.1,0-0.2-0.1-0.2c0,0-0.1,0-0.1,0
			C22.9,23.6,22.9,23.7,22.8,23.7L22.8,23.7L22.8,23.7z M23,27.5C23,27.5,23,27.5,23,27.5C22.9,27.5,22.9,27.5,23,27.5
			C22.9,27.6,23,27.6,23,27.5C23,27.5,23,27.5,23,27.5z M24.8,19.5c0,0-0.1,0-0.1,0c0,0,0,0.1,0,0.1s0.1,0,0.1,0
			C24.8,19.5,24.8,19.5,24.8,19.5z M26.5,14L26.5,14l0.2,0L26.5,14z M27.1,19.5C27.1,19.5,27.1,19.6,27.1,19.5
			C27,19.6,27,19.7,27,19.7c0,0,0,0,0,0.1v0.1L27.1,19.5L27.1,19.5z M28,17.6c0,0-0.1,0-0.1,0L28,17.6c0,0.1,0,0.1,0,0.1
			c0,0,0,0,0,0l0.1,0l0.1-0.1l0.1-0.1H28z M28.2,14.8C28.1,14.8,28.1,14.8,28.2,14.8C28,14.9,28,15,28,15c0,0,0.1,0,0.1,0
			C28.2,14.9,28.2,14.9,28.2,14.8z M28.8,17.8C28.8,17.8,28.7,17.8,28.8,17.8C28.7,17.8,28.7,17.9,28.8,17.8
			C28.8,17.9,28.8,17.9,28.8,17.8z M29.3,16.8C29.3,16.8,29.2,16.8,29.3,16.8c-0.1,0.1-0.2,0.1-0.1,0.1c0,0,0.1,0,0.1,0
			C29.3,16.9,29.3,16.9,29.3,16.8z M29.3,16C29.4,16,29.3,16,29.3,16c-0.1-0.2-0.1-0.2-0.1-0.1C29.2,15.9,29.2,15.9,29.3,16
			C29.3,16,29.3,16,29.3,16z M29.9,17.3l-0.1,0c0,0,0,0-0.1,0.1c0,0-0.1,0.1-0.1,0.1l0.1,0c0,0,0.1,0,0.1,0c0,0,0.1,0,0.1,0l0,0
			L29.9,17.3L29.9,17.3z M29.9,18.3l0.1,0l0-0.1L29.9,18.3z M30.2,19.5l0.1-0.1l0.1-0.1c0,0,0,0,0-0.1c0,0,0-0.1,0-0.1l-0.1,0
			L30.2,19.5z M30.4,17.8C30.4,17.8,30.4,17.8,30.4,17.8C30.4,17.7,30.3,17.7,30.4,17.8C30.3,17.8,30.4,17.8,30.4,17.8z M30.6,17.9
			c0,0-0.1,0-0.1,0c0,0,0,0.1,0,0.1c0,0,0.1,0,0.1,0C30.6,17.9,30.6,17.9,30.6,17.9z M30.7,18.7c0,0-0.1,0-0.1,0c0,0,0,0.1,0,0.1
			c0,0,0.1,0,0.1,0C30.7,18.8,30.7,18.8,30.7,18.7z M30.8,17.4c0,0-0.1,0-0.1,0c0,0,0,0.1,0,0.1c0,0,0.1,0,0.1,0
			C30.8,17.5,30.8,17.5,30.8,17.4z M30.9,17.7c0,0-0.1,0-0.1,0s-0.1,0.1,0,0.1c0,0,0.1,0,0.1,0S30.9,17.7,30.9,17.7z M31.5,18.5
			c0,0.1,0,0.1,0,0.2c0,0,0,0,0.1,0c0.1,0,0.1,0,0.1,0l0,0l0,0c0,0,0-0.1,0-0.1l0,0l0,0C31.7,18.3,31.6,18.3,31.5,18.5L31.5,18.5
			L31.5,18.5z M31.7,19L31.7,19C31.7,19,31.7,19,31.7,19l0.2,0L31.7,19L31.7,19z"/>
		<path class="st2" d="M28.3,36.3c-0.1-0.1-0.1-0.1-0.2-0.1c-0.1,0-0.1-0.1-0.2-0.2c-0.1-0.1-0.1-0.2,0-0.3c0-0.1,0.1-0.2,0.2-0.3
			c0.1-0.1,0.2-0.2,0.3-0.3c0.1-0.1,0.2-0.2,0.3-0.3c0.2-0.2,0.4-0.4,0.5-0.5c0.2-0.1,0.4-0.3,0.6-0.5c0.2,0,0.3,0,0.3,0
			c0,0,0-0.1,0-0.2c0-0.1,0-0.2,0-0.2c0,0,0,0,0,0c0,0,0.1,0.1,0.1,0.1c0.1,0.1,0.1,0.1,0.2,0.1c0-0.2,0-0.4,0.1-0.6
			c0.1-0.2,0.2-0.3,0.4-0.5c0.3-0.3,0.5-0.5,0.7-0.6c0.2-0.2,0.5-0.3,0.9-0.3c0,0,0-0.1,0-0.1s0-0.1,0-0.1l0,0l0,0c0,0,0,0,0,0
			c0,0,0,0,0,0c0,0-0.1-0.1-0.2-0.1c0-0.1,0.1-0.2,0.3-0.4c0.1-0.2,0.3-0.4,0.4-0.5c0.1-0.1,0.2-0.2,0.3-0.2c0.1,0,0.2,0,0.3,0.1
			c0.1,0,0.1,0.1,0.2,0.1c0.1,0,0.1,0,0.2,0s0-0.1,0-0.2c-0.1-0.1-0.1-0.2,0-0.2c0,0,0.1-0.1,0.1-0.1c0,0,0,0,0.1,0c0,0,0.1,0,0.1,0
			s0.1,0,0.1-0.1c0.2-0.2,0.3-0.3,0.3-0.3c0,0,0.1,0,0.1-0.1c0-0.2,0-0.4,0-0.5c0-0.1,0-0.3,0.1-0.4c0.1-0.1,0.1-0.2,0.2-0.3
			c0.1-0.1,0.2-0.2,0.4-0.4c0.1-0.1,0.2-0.2,0.2-0.2c0.1-0.1,0.2-0.1,0.2-0.2c0.1-0.1,0.1-0.2,0.1-0.3c0-0.1,0-0.2-0.1-0.3
			c-0.1-0.1-0.1-0.2-0.2-0.2c-0.1-0.1-0.1-0.1-0.1-0.1c-0.1,0-0.2-0.1-0.3-0.3s-0.4-0.3-0.6-0.5c-0.2-0.2-0.4-0.3-0.6-0.5
			s-0.3-0.2-0.3-0.3c-0.1-0.1-0.1-0.2-0.1-0.4c0-0.2,0-0.3,0-0.4l-0.4,0.3c-0.1-0.1-0.3-0.2-0.5-0.4c-0.2-0.2-0.5-0.5-0.9-0.9
			l0.4,0.1c-0.1-0.1-0.2-0.2-0.2-0.4c-0.1-0.1,0-0.3,0.1-0.4c0.1-0.1,0.1-0.1,0.2,0c0,0,0,0,0.1,0.1c0,0,0,0.1,0.1,0.1
			c0.1,0.1,0.1,0.1,0.2,0.1c0.1,0,0.2-0.1,0.3-0.2c0.1-0.1,0.2-0.2,0.2-0.3s0.1-0.2,0.2-0.3l-0.2-0.1l0.2-0.2c0,0,0-0.1,0-0.2
			c0-0.1,0-0.1,0-0.1l0.2,0.1c0,0,0,0,0.1,0c0,0,0.1,0,0.1-0.1c0.1-0.1,0.2-0.2,0.2-0.3c0-0.1,0.1-0.2,0.1-0.2c0,0,0.1,0,0.2-0.1
			c0.1,0,0.1,0,0.2,0l0.6,0.5C35,21.4,35,21.5,35,21.6c0,0.1,0.1,0.2,0.2,0.3c0,0,0.1-0.1,0.1-0.1c0,0,0-0.1,0.1-0.1
			c0.1-0.1,0.2,0,0.3,0c0,0,0,0.1,0,0.2s0,0.1,0,0.2c0.1,0.1,0.1,0.1,0.2,0c0.1,0,0.1-0.1,0.1-0.1l0.3,0.3l-0.2,0.1
			c-0.1,0-0.1,0-0.2,0c-0.1,0-0.1,0-0.1,0c0.1,0.1,0.2,0.2,0.3,0.2c0.1,0,0.2,0,0.3,0c0,0.1,0,0.2-0.1,0.3c0,0-0.1,0.1-0.2,0.1
			c-0.1,0-0.1,0-0.2,0.1c0,0-0.1,0.1-0.1,0.2c0,0.1-0.1,0.1-0.1,0.1c0.1,0.1,0.1,0.1,0.2,0.1c0,0,0.1,0,0.1-0.1c0,0,0.1-0.1,0.1-0.1
			c0,0,0-0.1,0-0.1c0.1,0.1,0.2,0.1,0.2,0.1c0,0,0.1,0,0.1-0.1c0,0,0,0,0,0c0,0,0,0,0,0c0.1-0.1,0.1-0.1,0.2,0c0,0,0,0.1,0,0.2
			c0,0.1,0,0.2,0,0.3c0,0,0.1,0,0.1,0.1c0.1,0,0.1,0,0.1,0.1c0,0,0,0.1,0,0.1c0,0.1-0.1,0.1-0.2,0.2c-0.1,0.1-0.1,0.1-0.1,0.2
			c0,0.1,0,0.1,0,0.1c0.2,0,0.4,0,0.6,0c0.2,0,0.3,0,0.5,0c0.1,0,0.2,0,0.2,0c0.1,0.1,0.1,0.1,0,0.2s-0.1,0.2-0.2,0.2
			c-0.1,0.1-0.2,0.1-0.3,0.2c-0.1,0.1-0.1,0.1-0.1,0.1c0.2,0,0.3,0,0.4,0c0.1,0,0.3,0,0.4,0c0.1,0,0.2,0,0.3,0
			c0.1,0,0.2-0.1,0.2-0.2c0,0.1,0,0.1,0,0.2s-0.1,0.1-0.1,0.2c-0.1,0.1-0.1,0.1-0.1,0.2c0,0.1,0,0.1,0,0.2c0,0,0.1,0.1,0.1,0.1
			c0.1,0.1,0.1,0.1,0.2,0.1c0,0,0-0.1,0-0.1c0,0,0-0.1,0-0.1h0c0,0,0.1,0,0.2-0.1c0.1,0,0.2-0.1,0.3-0.1c0,0,0,0,0,0.1
			c0,0,0,0.1,0,0.1c-0.1,0.1-0.1,0.1-0.2,0.2c-0.1,0-0.1,0.1-0.2,0.2c0.1,0.1,0.1,0.1,0.2,0.1c0.1,0,0.2,0,0.2,0.1l0,0l0,0
			c-0.1,0-0.2,0.1-0.2,0.1c0,0,0,0-0.1,0.1c0,0-0.1,0.1-0.1,0.1c0.1,0.1,0.2,0.1,0.3,0.1c0.1,0,0.2,0,0.3,0c0.1,0,0.2-0.1,0.3-0.2
			c0.1-0.1,0.2-0.1,0.2-0.2c0.2-0.2,0.3-0.4,0.4-0.5c0-0.1-0.1-0.3-0.3-0.6c0,0,0.1-0.1,0.1,0c0,0,0.1,0,0.1,0.1
			c0.1,0,0.1,0.1,0.2,0.2c0.1,0.1,0.2,0.1,0.4,0.2c0,0,0,0,0.1,0.1s0.1,0.1,0,0.1l-0.1,0l-0.7,0.7c0,0,0,0.1,0,0.1
			c0.1,0.1,0.3,0.2,0.4,0.1c0.1-0.1,0.2-0.2,0.3-0.2c0.1-0.1,0.2-0.2,0.1-0.3c0-0.1,0-0.2,0.1-0.3c0.1,0.1,0.2,0.3,0.2,0.5
			c0,0.2,0.1,0.3,0.1,0.4c0,0,0,0-0.1,0.1c0,0-0.1,0-0.1,0.1c-0.1,0.1-0.2,0.2-0.2,0.3c-0.1,0.1-0.2,0.2-0.2,0.3
			C41.1,27.8,41,27.9,41,28c0,0.1,0,0.2,0,0.2c0.1,0.1,0.1,0.1,0.2,0.1c0.1,0,0.2,0,0.3,0l0.5-0.5c0,0,0,0-0.1-0.1
			c0,0-0.1,0-0.1-0.1c-0.1-0.1-0.1-0.2,0-0.2c0.2,0.1,0.3,0.1,0.4,0.1c0.1,0,0.2,0,0.3-0.1c0.1,0,0.1-0.1,0.2-0.1c0,0,0.1,0,0.1,0
			c0.1,0.1,0.1,0.1,0.2,0.2c0,0.1,0,0.2-0.1,0.3l-0.2-0.2l-0.2,0.3c0,0,0.1,0,0.2,0c0.1,0,0.2,0,0.4,0c0.1,0,0.3,0,0.4,0
			c0.1,0,0.2,0,0.2,0l-0.5,0.5c0.1,0.1,0.2,0.1,0.4,0.1s0.4,0.1,0.5,0.2c0.1,0.1,0.1,0.1,0.1,0.3c0,0.1,0,0.2,0,0.3
			c-0.1,0.1-0.2,0.1-0.4,0c-0.2,0-0.3-0.1-0.3-0.1c0,0,0-0.1,0-0.1c0,0,0-0.1,0-0.1c0,0,0,0-0.1,0c0,0-0.1,0-0.1,0.1
			c-0.1,0.1-0.1,0.2,0,0.2c0,0,0.1,0,0.1,0c0,0,0.1,0,0.1,0c-0.1,0-0.1,0.1-0.2,0.1c-0.1,0.1-0.1,0.2,0,0.4c0.1,0.1,0.2,0.1,0.3,0
			c0.1-0.1,0.1-0.1,0-0.1c-0.1,0-0.1-0.1,0-0.1c0,0,0.1,0,0.2,0c0.1,0,0.2,0,0.3,0.1c0.1,0,0.2,0,0.3,0.1c0.1,0,0.2,0,0.2,0
			c0,0,0-0.1,0-0.1c0-0.1,0-0.1,0-0.1c0,0,0.1,0,0.2,0s0.1,0.1,0.2,0.1c-0.1,0.1-0.3,0.2-0.5,0.3c-0.2,0.1-0.4,0.1-0.6,0
			c0,0.1,0,0.2,0,0.3s0,0.2,0.1,0.2c0,0,0.1,0,0.2,0c0.1,0,0.1,0,0.2,0c0.1,0.1,0.1,0.2,0,0.4c-0.1,0.1-0.2,0.3-0.3,0.4
			C44,31.2,44,31.3,44,31.4s0.1,0.2,0.1,0.3c0,0.1,0.1,0.2,0.1,0.3s0,0.2-0.1,0.3c-0.1,0.1-0.2,0.2-0.2,0.2c0,0-0.1-0.1-0.3-0.2
			c-0.1-0.1-0.1-0.1-0.1-0.2c0,0,0-0.1-0.1-0.1c-0.1-0.1-0.3-0.1-0.4-0.2c-0.1,0-0.3-0.1-0.4-0.2l0.1-0.1c0,0-0.1-0.1-0.2-0.1
			c-0.1-0.1-0.2-0.2-0.4-0.3s-0.3-0.2-0.4-0.3c-0.1-0.1-0.2-0.1-0.2-0.1c0,0,0,0-0.1,0c-0.1,0-0.1,0-0.1,0c-0.1-0.1-0.1-0.2-0.1-0.3
			c0-0.1,0-0.2-0.1-0.3c-0.1-0.1-0.2-0.1-0.3,0c-0.1,0.1-0.2,0.1-0.3,0c0,0,0-0.1,0-0.2s0-0.1,0-0.2c-0.2,0-0.3,0-0.5,0.1l-0.6-0.6
			c0,0,0-0.1,0-0.2c0-0.1,0-0.1,0-0.1c-0.1-0.1-0.2-0.1-0.4,0c-0.2,0-0.4,0.1-0.4,0.2c-0.1,0.1-0.2,0.2-0.2,0.3
			c-0.1,0.1-0.2,0.2-0.3,0.4c-0.1,0.1-0.3,0.2-0.4,0.3c-0.1,0.1-0.3,0.2-0.4,0.3c-0.1,0.1-0.1,0.1-0.1,0.2c0,0-0.1,0-0.2,0
			c-0.1,0-0.2,0-0.2-0.1c-0.1,0-0.2,0-0.3-0.1c0,0,0,0.1-0.1,0.1c0,0.1,0,0.1,0,0.1l0,0c0,0,0.1,0,0.1,0c0,0,0.1,0,0.1,0l0,0l0,0
			c0,0,0,0,0,0c-0.1,0.1-0.1,0.1-0.2,0.1c-0.1,0-0.2,0-0.3,0c0,0,0,0.1,0,0.1c0,0.1,0,0.2,0,0.2c-0.1,0-0.1,0.1-0.2,0.1
			c-0.1,0-0.1,0.1-0.2,0.1c-0.1,0-0.1,0.1-0.2,0.1c0,0,0,0.1,0,0.1c0,0,0,0.1,0,0.1c0,0,0.1,0.1,0.2,0c0.1,0,0.1-0.1,0.2-0.1
			c0.1,0,0.1-0.1,0.2-0.2c0,0.1,0,0.1,0,0.2c0,0.1-0.1,0.1-0.1,0.2c-0.1,0.1-0.1,0.1-0.2,0.2c-0.1,0.1-0.1,0.2-0.1,0.2l-0.6,0.5
			c0,0,0,0,0,0c0,0-0.1-0.1,0-0.3c0-0.1,0-0.2,0-0.3c0,0,0,0,0,0s0,0,0,0l0,0c-0.2,0.2-0.3,0.3-0.4,0.6c-0.1,0.2-0.1,0.5,0.1,0.7
			c0,0,0.1,0,0.1,0s0.1,0,0.1,0.1c-0.1,0-0.2,0-0.3,0c-0.1,0-0.3,0-0.4,0.1c-0.1,0-0.3,0-0.4,0c-0.1,0-0.2,0-0.2,0L32.9,34
			c0,0-0.1,0-0.1,0c-0.1,0-0.1,0-0.1,0c-0.1,0.1-0.1,0.2-0.2,0.4c0,0.2,0,0.3,0.1,0.4c0,0,0.1,0,0.1,0.1c0.1,0,0.1,0,0.1,0.1l-0.9,0
			c0,0,0-0.1-0.1-0.1c-0.1-0.1-0.1-0.1-0.2-0.1c-0.1,0-0.1,0-0.2,0.1c-0.1,0-0.1,0.1-0.2,0.1c-0.1,0-0.1,0.1-0.2,0.1
			c0,0-0.1,0.1-0.2,0.2c-0.1,0.1-0.2,0.2-0.3,0.3s-0.2,0.2-0.3,0.3c-0.1,0.1-0.2,0.2-0.2,0.2c-0.1,0.1-0.1,0.1-0.1,0.1s0,0.1,0,0.1
			c0,0,0,0.1,0,0.1c0,0,0,0.1-0.1,0.1c0,0-0.1,0.1-0.2,0.1c-0.1,0-0.3,0.1-0.4,0.1c-0.1,0-0.3,0-0.4,0.1c-0.1,0-0.2,0-0.3,0
			c0.1,0.1,0.1,0.1,0,0.2c0,0-0.1,0-0.1,0c0,0-0.1,0-0.1,0c-0.1-0.1-0.1-0.1-0.1-0.2c0-0.1,0-0.1,0-0.2c0-0.1,0-0.2,0-0.2
			C28.4,36.4,28.4,36.3,28.3,36.3z M30.9,32.8C30.9,32.8,30.9,32.8,30.9,32.8C30.8,32.8,30.8,32.9,30.9,32.8
			C30.9,32.9,30.9,32.9,30.9,32.8C30.9,32.9,30.9,32.8,30.9,32.8z M31.8,32.6c-0.1-0.1-0.2-0.2-0.3-0.2c-0.1,0-0.3,0-0.4,0.1
			c0.1,0.1,0.2,0.2,0.4,0.2C31.6,32.7,31.7,32.7,31.8,32.6z M31.9,32c0,0-0.1,0-0.1,0c0,0,0,0.1,0,0.1c0,0,0.1,0,0.1,0
			C31.9,32.1,31.9,32,31.9,32z M32.7,31.8c0,0,0.1,0.1,0.2,0c0.1,0,0.1,0,0.1-0.1l-0.1-0.1L32.7,31.8z M33.3,23.3
			c-0.1-0.1-0.2-0.1-0.3,0c-0.1,0-0.2,0.1-0.3,0.1c0.1,0.2,0.2,0.3,0.3,0.3C33.1,23.7,33.2,23.6,33.3,23.3z M32.8,33.6L32.8,33.6
			l0.1,0L32.8,33.6L32.8,33.6z M33.3,22.7l0.1,0l0.1-0.5L33.3,22.7z M33.6,32.9C33.6,32.9,33.5,32.9,33.6,32.9
			C33.5,32.9,33.5,33,33.6,32.9C33.5,33,33.6,33,33.6,32.9C33.6,32.9,33.6,32.9,33.6,32.9z M34,22.4c0,0-0.1,0-0.1,0
			c0,0-0.1,0.1-0.1,0.2c-0.1,0.1-0.1,0.2-0.1,0.2c0,0,0.1,0,0.2,0c0.1,0,0.2-0.1,0.2-0.1c0,0,0-0.1,0-0.2
			C34.1,22.5,34.1,22.4,34,22.4z M33.9,33c0,0-0.1,0-0.1,0c0,0,0,0.1,0,0.1s0.1,0,0.1,0C33.9,33.1,33.9,33,33.9,33z M33.8,21.9
			l0.5,0.6l0.5-0.7L33.8,21.9z M34,24.2L34,24.2l0.1,0L34,24.2L34,24.2z M34.4,21c-0.1,0.1-0.1,0.2,0,0.2c0.1,0.1,0.2,0.1,0.2,0
			L34.4,21z M34.5,24.1h0.1H34.5L34.5,24.1z M34.8,22.8c0,0-0.1,0-0.1,0c0,0,0,0.1-0.1,0.2c0,0.1-0.1,0.2,0,0.2s0.1,0,0.1-0.1
			s0.1-0.1,0.1-0.1C34.8,22.9,34.8,22.9,34.8,22.8z M34.8,29.6c0,0-0.1,0-0.1,0c0,0,0,0.1,0,0.1c0,0,0.1,0,0.1,0
			C34.8,29.7,34.8,29.6,34.8,29.6z M34.8,22.7c0,0-0.1,0-0.1,0s0,0.1,0,0.1s0.1,0,0.1,0S34.8,22.7,34.8,22.7z M34.9,22.4
			c0,0,0,0,0.1,0.1c0.1,0,0.1,0.1,0.2,0.1s0.1,0,0.2,0.1c0.1,0,0.1,0,0.1,0c0,0,0,0,0-0.1c0-0.1-0.1-0.1-0.1-0.2
			c0-0.1-0.1-0.1-0.1-0.2l0,0L34.9,22.4z M35,23.4c0,0,0.1,0.1,0,0.1c0,0,0,0.1,0,0.1C35,23.6,35.1,23.5,35,23.4
			c0.1,0,0.1-0.1,0.1-0.1l-0.1,0L35,23.4z M35.1,29.2C35.1,29.1,35.1,29.1,35.1,29.2C35,29.2,35,29.2,35.1,29.2
			C35,29.2,35.1,29.2,35.1,29.2C35.1,29.2,35.1,29.2,35.1,29.2z M35.8,24c0,0-0.1,0-0.3,0c-0.2,0-0.3,0.1-0.3,0.1
			c0.1,0.1,0.2,0.2,0.3,0.2c0.1,0,0.1,0,0.2-0.1C35.7,24.1,35.7,24.1,35.8,24C35.8,24,35.8,24,35.8,24z M35.8,24.4
			C35.7,24.4,35.7,24.4,35.8,24.4c0,0.1,0,0.2,0,0.2c0,0,0,0,0,0C35.8,24.5,35.8,24.5,35.8,24.4C35.9,24.4,35.9,24.4,35.8,24.4
			L35.8,24.4z M36.2,23.8c0,0-0.1,0-0.1,0c0,0,0,0.1,0,0.1c0,0,0.1,0,0.1,0C36.3,23.8,36.3,23.8,36.2,23.8z M36.4,27.4
			C36.4,27.3,36.4,27.3,36.4,27.4C36.3,27.3,36.3,27.3,36.4,27.4C36.3,27.3,36.3,27.3,36.4,27.4C36.3,27.4,36.4,27.4,36.4,27.4z
			 M36.6,24.9c0,0-0.1,0-0.1,0s0,0.1,0,0.1s0.1,0,0.1,0S36.6,24.9,36.6,24.9z M37.4,24.4L37.4,24.4L37.4,24.4L37.4,24.4z M38,29.1
			L38,29.1c0.1,0,0.2,0,0.1-0.1L38,29.1z M38.3,26.1L38.3,26.1l0.1,0L38.3,26.1L38.3,26.1z M38.5,28.7L38.5,28.7L38.5,28.7
			L38.5,28.7z M38.9,27.5c0,0-0.1,0-0.1,0c0,0,0,0.1,0,0.1s0.1,0,0.1,0C38.9,27.6,38.9,27.5,38.9,27.5z M39.4,27.1c0,0-0.1,0-0.3,0
			c-0.2,0-0.3,0.1-0.3,0.1c0.1,0.1,0.2,0.2,0.3,0.2c0.1,0,0.1,0,0.2-0.1C39.4,27.3,39.4,27.3,39.4,27.1
			C39.4,27.2,39.4,27.1,39.4,27.1z M39.6,27.8c0,0-0.1,0-0.2,0.1c-0.1,0.1-0.2,0.1-0.2,0.2c0.2,0.2,0.3,0.2,0.5,0
			c0,0,0.1-0.1,0.1-0.1C39.7,27.9,39.7,27.8,39.6,27.8z M39.9,28.4c0,0-0.1,0-0.1,0c0,0,0,0.1,0,0.1s0.1,0,0.1,0
			S39.9,28.4,39.9,28.4z M40.2,28.4c0-0.1-0.1-0.1-0.1-0.1c-0.1,0-0.1,0-0.1,0c0,0-0.1,0-0.1,0.1s0,0,0,0c0.1-0.1,0.1-0.1,0.2,0
			c0,0,0,0.1,0,0.1S40.1,28.4,40.2,28.4C40.2,28.5,40.2,28.5,40.2,28.4z M40.5,28.1c-0.1,0-0.1,0-0.2,0c0,0-0.1,0.1-0.1,0.1l0.2,0.2
			C40.5,28.3,40.5,28.2,40.5,28.1z M40.5,26.9c-0.1,0.1-0.1,0.2,0,0.3c0.1,0.1,0.1,0.1,0.2,0c0-0.1,0-0.2,0-0.2
			C40.6,27,40.5,26.9,40.5,26.9z M40.5,27.7C40.5,27.7,40.5,27.8,40.5,27.7c0,0.1,0,0.1,0,0.1c0.1,0,0.2,0,0.2,0c0,0,0.1,0,0.1-0.1
			c0.1-0.1,0.1-0.2,0.1-0.3c-0.1,0-0.2,0.1-0.3,0.1C40.6,27.7,40.5,27.7,40.5,27.7z M41.5,29.9C41.5,29.9,41.5,29.9,41.5,29.9
			C41.4,29.9,41.4,29.9,41.5,29.9C41.5,30,41.5,30,41.5,29.9C41.5,29.9,41.5,29.9,41.5,29.9z M42.2,29.1c-0.1,0.1-0.2,0.2-0.3,0.3
			c-0.1,0.1-0.2,0.3-0.3,0.4c0.1,0.1,0.2,0.1,0.3,0.1c0.1,0,0.2-0.1,0.3-0.1L42,29.5L42.2,29.1L42.2,29.1z M42.5,29.5
			c0,0-0.1,0-0.1,0c0,0,0,0.1,0,0.1c0,0,0.1,0,0.1,0C42.5,29.5,42.5,29.5,42.5,29.5z M42.9,28.8C42.9,28.8,42.9,28.8,42.9,28.8
			C42.8,28.7,42.8,28.7,42.9,28.8C42.8,28.8,42.8,28.8,42.9,28.8C42.8,28.8,42.8,28.8,42.9,28.8z M42.9,29.3
			C42.9,29.3,42.9,29.3,42.9,29.3C42.8,29.3,42.8,29.3,42.9,29.3C42.8,29.3,42.8,29.3,42.9,29.3C42.8,29.4,42.9,29.4,42.9,29.3z
			 M43.4,30.3c-0.1,0-0.1,0-0.1,0c0,0-0.1,0.1-0.1,0.1l0.1,0.1L43.4,30.3z M43.9,31.5c-0.1-0.1-0.2-0.1-0.3,0
			c-0.1,0.1-0.2,0.1-0.3,0.2l0.1,0.1c0,0,0.1,0,0.2-0.1C43.8,31.6,43.8,31.5,43.9,31.5z M43.9,31.6c0,0-0.1,0-0.1,0c0,0,0,0.1,0,0.1
			s0.1,0,0.1,0C43.9,31.7,43.9,31.7,43.9,31.6z M43.9,30.7c0,0-0.1,0.1-0.1,0.2s0,0.1,0,0.1c0,0,0.1,0,0.1,0c0.1,0,0.1,0,0.1,0
			c0,0,0.1-0.1,0-0.1C44,30.8,44,30.8,43.9,30.7C43.9,30.8,43.9,30.7,43.9,30.7C43.9,30.7,43.9,30.7,43.9,30.7z M44,29
			c0,0-0.1,0-0.1,0c0,0,0,0.1,0,0.1c0,0,0.1,0,0.1,0C44.1,29,44.1,29,44,29z"/>
		<path class="st2" d="M43.3,50c0,0-0.1,0-0.3,0.1c-0.2,0.1-0.3,0.1-0.3,0.1c0.1-0.1,0.1-0.2,0.1-0.3s0-0.3,0-0.4
			c0-0.1-0.1-0.3-0.1-0.4s-0.1-0.2-0.1-0.2l0,0c0,0-0.1,0-0.1,0c0,0,0,0,0,0l0,0c-0.1,0.1-0.2,0.2-0.2,0.3c0,0.1-0.1,0.2-0.1,0.3
			c-0.1,0.1-0.1,0.1-0.2,0.1c-0.1,0-0.2,0-0.3,0L41,49c-0.3-0.2-0.5-0.5-0.6-0.8c-0.1-0.3-0.2-0.5-0.4-0.8c-0.1-0.3-0.2-0.4-0.3-0.6
			s-0.1-0.2-0.2-0.3c-0.1-0.1-0.1-0.2-0.2-0.4c0-0.1-0.1-0.3-0.1-0.6c0,0,0,0-0.1,0c0,0-0.1,0.1-0.1,0.1c0,0-0.1,0.1,0,0.2
			c-0.2,0.1-0.5,0-0.6-0.1c-0.2-0.1-0.4-0.2-0.5-0.4c-0.2-0.2-0.3-0.3-0.5-0.5s-0.3-0.3-0.5-0.4c0,0-0.1,0-0.2-0.1
			c-0.1,0-0.2,0-0.2,0l0,0l0,0V44c0,0,0.1,0,0.1-0.1c0.1,0,0.1-0.1,0.1-0.1c0,0,0-0.1,0.1-0.1c0,0,0-0.1,0.1-0.1c0,0,0-0.1-0.1-0.1
			c0-0.1,0-0.1-0.1-0.1c0,0-0.1,0-0.2,0c-0.1,0-0.2,0-0.2,0c-0.1-0.1-0.1-0.1-0.1-0.2c0-0.1,0.1-0.2,0.1-0.3
			c0.1-0.1,0.1-0.2,0.2-0.3c0.1-0.1,0.1-0.2,0.2-0.2c0.1-0.1,0.2-0.2,0.4-0.3c0.1-0.1,0.3-0.1,0.4-0.3c0.1-0.1,0.1-0.1,0.1-0.2
			c0-0.1,0.1-0.2,0.1-0.3l1.9-2c0.1,0,0.2-0.1,0.3-0.1s0.2-0.1,0.3-0.1l0,0l0,0c0.5-1,1.2-1.9,2-2.7c0.1-0.1,0.3-0.2,0.4-0.3
			c0.1-0.1,0.3-0.1,0.5-0.2c0.2-0.1,0.3-0.1,0.5-0.2s0.3-0.2,0.4-0.3c0.1-0.1,0.1-0.2,0.2-0.3c0-0.1,0.1-0.2,0.1-0.2
			c0.1-0.1,0.2-0.1,0.3-0.2c0.1,0,0.2-0.1,0.2-0.2l0,0c0.1-0.3,0.2-0.6,0.3-0.8c0.1-0.2,0.3-0.5,0.5-0.8c0.1-0.1,0.2-0.2,0.3-0.3
			c0.1-0.1,0.2-0.2,0.4-0.3c0.1-0.1,0.3-0.1,0.4-0.1c0.1,0,0.3,0,0.4,0.1c0,0,0,0.1,0,0.1c0.1,0,0.2,0,0.3,0c0.1,0,0.2,0,0.3-0.1
			l-0.1,0.3c0.2,0,0.4,0,0.5,0.2c0.1,0.1,0.2,0.2,0.2,0.2c0,0.1,0.1,0.2,0.1,0.2c0,0.1,0,0.2,0,0.3c0,0.1,0,0.2,0.1,0.3
			c0.1,0.2,0.2,0.4,0.3,0.4c0.1,0.1,0.1,0.2,0.1,0.2c0,0.1,0,0.1-0.1,0.2c-0.1,0.1-0.2,0.3-0.4,0.5l-0.2,0.2
			c-0.1-0.1-0.2-0.1-0.3-0.1c-0.1,0-0.1,0-0.2,0.1c0,0,0-0.1,0-0.1c0,0,0-0.1,0-0.1l0,0l0,0c0,0,0.1,0,0.1,0c0,0,0.1,0,0.1,0
			c0,0,0,0,0.1,0l0.1-0.1l0,0c0,0,0-0.1,0-0.2c0-0.1,0-0.1,0-0.2c0,0-0.1,0-0.1,0c0,0-0.1,0-0.1,0.1c0,0-0.1,0.1-0.2,0.1
			c-0.1,0-0.2,0-0.3,0c-0.1,0-0.1,0-0.2,0c-0.1,0-0.1,0-0.1,0c-0.1,0.1-0.2,0.2-0.2,0.3c0,0.1,0,0.2,0,0.4c0,0.1,0,0.3,0,0.4
			c0,0.1,0,0.2-0.1,0.3l-1.3,1.4c0,0-0.1,0-0.2,0.1c-0.1,0-0.2,0-0.2,0l-0.8,0.6c0,0,0,0,0,0.1c0,0,0,0.1,0,0.1c0,0-0.1,0.1-0.2,0.2
			c-0.1,0.1-0.2,0.3-0.2,0.3l-0.1,0.1c0,0-0.1-0.1-0.2-0.2c-0.1-0.1-0.1-0.1-0.2-0.2c-0.1-0.1-0.2-0.1-0.2-0.1c-0.1,0-0.2,0-0.2,0.1
			c-0.1,0.1-0.1,0.2-0.1,0.3c0,0.1,0,0.2,0,0.3c0,0.1,0,0.2,0,0.3s-0.1,0.2-0.1,0.3c-0.1-0.1-0.1-0.2-0.1-0.3c0-0.1,0-0.2-0.1-0.3
			c0,0-0.1,0-0.1,0c-0.1,0-0.2,0-0.3,0c-0.1,0-0.2,0-0.3,0c-0.1,0-0.1,0-0.1,0c0,0,0,0.1,0,0.1c0,0.1,0,0.1,0,0.1l0.6,0.5
			c-0.1,0-0.1,0-0.3,0c-0.1,0-0.2,0.1-0.2,0.1c-0.1,0.2-0.2,0.4-0.3,0.7c-0.1,0.3-0.2,0.5-0.3,0.6c-0.3,0.3-0.6,0.3-0.8-0.1
			c0,0,0,0,0,0.1c0,0,0,0.1,0,0.1c0,0.1,0,0.2,0,0.3c0,0.1-0.1,0.2-0.1,0.4c0,0.1-0.1,0.2-0.1,0.3c0,0.1,0,0.2,0.1,0.2
			c-0.1,0-0.2,0-0.4-0.1c-0.1-0.1-0.2-0.1-0.3,0l0,0c0,0.2,0.1,0.4,0.2,0.6c0.1,0.2,0.3,0.4,0.4,0.5c0,0,0.1,0,0.1,0.1
			c0.1,0,0.1,0,0.1,0l1.3,1.3l0,0.1l0,0.1c0,0,0.1,0.1,0.1,0.1c0.1,0.1,0.2,0.1,0.2,0.2c0.1,0.1,0.2,0.1,0.2,0.2
			c0.1,0.1,0.1,0.1,0.1,0.1c0,0,0.1,0.1,0.1,0.1c0.1,0,0.1,0.1,0.2,0.2c0.1,0.1,0.1,0.1,0.2,0.2c0.1,0,0.1,0.1,0.1,0.1
			c0.1-0.1,0.1-0.1,0.2-0.1c0.1,0,0.1,0.1,0.2,0.2c0.2,0.2,0.2,0.3,0.3,0.5c0,0.2,0.1,0.3,0.3,0.5c0,0,0.1,0.1,0.1,0.2
			c0.1,0.1,0.1,0.2,0.2,0.3c0.1,0.1,0.2,0.2,0.2,0.3c0.1,0.1,0.1,0.2,0.2,0.2l0,0.1c-0.1,0.1-0.3,0.3-0.5,0.5s-0.3,0.4-0.4,0.6
			c0.1,0,0.1,0,0.2,0c0,0,0.1-0.1,0.1-0.1c0,0,0.1-0.1,0.1-0.1c0,0,0.1,0,0.1,0c0.1,0.1,0.1,0.2,0,0.3c-0.1,0.1-0.1,0.2-0.2,0.2
			c-0.1,0.1-0.3,0.2-0.4,0.2c-0.2,0-0.3,0.1-0.5,0.2c-0.1,0.1-0.1,0.2-0.2,0.4c-0.1,0.1-0.1,0.3-0.1,0.4c-0.1,0.1-0.1,0.1-0.1,0
			c-0.1-0.1-0.2-0.3-0.1-0.4c0-0.2,0-0.3,0.1-0.5c0-0.2,0.1-0.3,0.1-0.5C43.4,50.2,43.4,50.1,43.3,50z M39.3,42.6
			c0,0.1-0.1,0.1-0.1,0.2c-0.1,0.1-0.1,0.1,0,0.2l0,0c0,0,0,0,0,0c0,0,0.1-0.1,0.2-0.1c0.1-0.1,0.2-0.1,0.2-0.1c0,0,0,0,0-0.1
			c0,0,0-0.1,0-0.1l-0.1-0.1c0,0-0.1-0.1-0.1,0S39.3,42.6,39.3,42.6z M41.3,46.9l0,0.1l0,0C41.4,47,41.4,47,41.3,46.9
			C41.4,46.9,41.4,46.9,41.3,46.9c0.1-0.1,0.1-0.1,0.1-0.1l0,0C41.4,46.8,41.4,46.8,41.3,46.9L41.3,46.9z M41.7,47.5
			c-0.1,0.1-0.1,0.1,0,0.2s0.1,0.2,0.1,0.2l0.3-0.3c0,0-0.1-0.1-0.2-0.1C41.8,47.6,41.7,47.5,41.7,47.5L41.7,47.5z M43.5,47.8
			c-0.1,0.1-0.2,0.2-0.1,0.3c0.1,0.1,0.2,0.1,0.3,0.1c0.1,0,0.2,0,0.3-0.1c0.1-0.1,0.1-0.1,0-0.2c0-0.1-0.1-0.1-0.2-0.2
			c-0.1-0.1-0.1-0.1-0.2-0.1C43.6,47.7,43.5,47.8,43.5,47.8z M43.5,49.5l0.2,0.2l0.1-0.1L43.5,49.5L43.5,49.5z M43.9,35.9L43.9,35.9
			l0-0.1L43.9,35.9z M44.2,48.9C44.1,48.8,44.1,48.8,44.2,48.9C44,48.9,44,48.9,44.2,48.9C44.1,49,44.1,49,44.2,48.9
			C44.2,48.9,44.2,48.9,44.2,48.9z M44.5,37.5c0,0-0.1,0-0.2,0c-0.1,0.1-0.1,0.1,0,0.2c0.1,0.1,0.1,0.1,0.2,0
			C44.6,37.7,44.6,37.6,44.5,37.5z M44.4,49.1c0.1,0,0.2,0,0.3-0.1l-0.1-0.1L44.4,49.1z M47,34.6C47,34.6,46.9,34.6,47,34.6
			c-0.1,0-0.1,0-0.1,0.1c0,0,0,0.1,0,0.1c0,0,0,0.1,0,0.1c0.1,0,0.1,0,0.1-0.1C47,34.7,47,34.7,47,34.6z M48.5,34.2
			c-0.1-0.1-0.1,0-0.2,0c-0.1,0.1-0.1,0.1,0,0.2c0,0,0.1,0,0.1-0.1S48.5,34.2,48.5,34.2z"/>
		<path class="st2" d="M49.8,57.1L49.5,57l0.2-0.2c0,0-0.1,0-0.1-0.1c-0.1,0-0.1,0-0.1-0.1c0,0,0,0,0-0.1c0-0.1,0.1-0.1,0.1-0.1l0,0
			l0,0c0,0-0.1,0-0.1-0.1c-0.1,0-0.1,0-0.1,0l-0.1-0.1l-0.1-0.1c0,0,0,0-0.1,0c0,0-0.1,0-0.1,0c0,0-0.1,0-0.1,0c0,0,0,0,0,0
			c0,0,0,0,0,0c0,0,0,0,0,0c0,0-0.1-0.1-0.2-0.2c-0.1-0.1-0.2-0.1-0.2-0.2c-0.1-0.1-0.1-0.1-0.2-0.2c-0.1-0.1-0.1-0.1-0.1-0.2
			c0,0,0-0.1-0.1-0.3c0-0.2,0-0.3,0-0.3l-0.2,0.2l-0.4-0.6l0.2-0.2l0-0.1v-0.1l0,0l0,0c0,0-0.1-0.1-0.2-0.1c-0.1,0-0.1-0.1-0.2-0.1
			s-0.1,0-0.1,0c-0.1,0-0.1,0-0.1,0c0,0-0.1,0-0.1,0h-0.1l0,0l0,0c0,0,0-0.1,0-0.1c0,0,0,0,0-0.1c0,0,0,0,0,0l0,0l0,0
			c0,0-0.1,0-0.2,0c-0.1,0-0.2,0-0.2-0.1l-0.1-0.1l-0.1-0.1c0,0-0.1-0.1-0.1-0.3c-0.1-0.2-0.1-0.3-0.1-0.3l0.1-0.1l0.1-0.1l0,0
			l0.1,0c0,0,0,0,0.1,0l0.1-0.1l0.1-0.1c0,0,0-0.1,0-0.1s0-0.1,0-0.1c0,0,0-0.1-0.1-0.1c0,0-0.1-0.1-0.1-0.1c0,0,0.1-0.1,0.1-0.1
			c0.1-0.1,0.1-0.1,0.2-0.1c0,0,0.1-0.1,0.1-0.1c0.1,0,0.1-0.1,0.2-0.2c0.1-0.1,0.1-0.1,0.2-0.2s0.1-0.1,0.1-0.1S47,51,47.1,51
			s0.1-0.1,0.2-0.2s0.1-0.1,0.2-0.2c0.1-0.1,0.1-0.1,0.1-0.1c0,0,0.1-0.1,0.2-0.2c0.1-0.1,0.2-0.1,0.3-0.2c0,0,0.1-0.1,0.2-0.2
			s0.2-0.2,0.3-0.3c0,0,0,0,0.1-0.1s0.1-0.1,0.1-0.2c0-0.1,0.1-0.1,0.2-0.2s0.1-0.1,0.1-0.1c0,0,0-0.1,0-0.2s0-0.1,0-0.1
			c0,0,0,0,0,0c0,0,0,0,0-0.1c0,0,0.1,0,0.1,0c0,0,0,0,0,0c0,0,0.1,0,0.2-0.1c0.1-0.1,0.1-0.1,0.2-0.1l0,0l0,0c0,0,0-0.1,0-0.1
			c0-0.1-0.1-0.1-0.1-0.1l-0.5,0.2l0,0L49.2,48c0,0,0,0,0-0.1c0,0,0-0.1,0-0.1c0,0,0-0.1-0.1-0.1c0-0.1,0-0.1,0-0.1l0.1-0.1l0.1-0.1
			c0,0,0.1,0,0.2,0c0.1,0,0.2,0,0.2,0c0,0,0.1,0,0.1,0c0.1,0,0.1,0,0.1,0c0,0,0.1,0,0.2,0c0.1,0,0.1,0,0.1,0c0,0,0,0,0.1,0
			c0,0,0,0,0.1,0l0.7-0.7c0,0,0.2-0.1,0.4-0.2c0.2-0.1,0.3-0.1,0.3-0.2l0,0l0,0c0,0,0.1-0.1,0.1-0.2c0-0.1,0.1-0.2,0.1-0.3
			c0,0,0.1-0.1,0.1-0.1s0.1-0.1,0.1-0.1c0,0,0.1-0.1,0.1-0.2s0.1-0.2,0.2-0.3c0.1-0.1,0.1-0.2,0.2-0.3c0.1-0.1,0.1-0.1,0.1-0.2
			l0.1-0.1l0.1-0.1c0,0,0.1,0,0.1,0c0.1,0,0.1,0,0.2,0c0.1,0,0.1,0,0.2,0c0.1,0,0.1,0,0.1,0c0,0,0.1,0,0.1-0.1s0.1-0.1,0.1-0.1
			c0,0,0,0.1,0,0.2c0,0.1,0.1,0.2,0.1,0.2c0,0,0.1,0,0.1,0c0.1,0,0.2,0,0.2,0c0,0,0.1,0,0.1,0s0.1,0,0.1-0.1c0,0,0,0.1-0.1,0.1
			c0,0.1,0,0.1,0,0.1c0,0,0.1,0.1,0.1,0.1s0.1,0,0.1,0.1c0,0,0.1-0.1,0.2-0.2c0.1-0.1,0.2-0.1,0.2-0.2c0,0,0-0.1,0.1-0.2
			c0-0.1,0.1-0.2,0.1-0.3l0,0l0,0c0,0,0.1,0,0.2-0.1c0.1,0,0.1-0.1,0.2-0.1c0,0,0.1,0,0.2-0.1c0.1-0.1,0.2-0.1,0.2-0.2l0.1,0
			c0,0,0.1-0.1,0.2-0.1s0.1-0.1,0.1-0.1l0.1,0.1l0,0l0,0c0,0,0,0,0,0c0,0,0,0.1,0,0.2s0,0.1-0.1,0.1c0,0,0.1,0.1,0.1,0.2
			c0,0.1,0.1,0.2,0.1,0.3l0,0l0.1,0.1c0,0,0.1,0,0.1,0s0.1,0,0.2,0c0.1,0,0.1,0,0.2,0c0.1,0,0.1,0,0.1,0c0,0,0.1,0,0.1,0.1
			s0.1,0,0.1,0l0,0l0,0c0,0.1,0,0.1,0,0.2c0,0.1,0,0.2,0,0.2c0,0,0,0.1,0,0.1s0,0.1,0,0.1c0,0,0,0.1,0,0.1s0,0.1,0.1,0.1
			c0,0,0.1,0,0.2,0l0.2-0.2c0,0,0.1,0,0.1-0.1s0.1,0,0.1,0l0.1,0l0,0.1c0,0,0,0.1,0,0.3c0,0.1,0,0.2,0,0.2l0,0l0,0c0,0,0,0,0.1,0.1
			c0.1,0,0.1,0.1,0.1,0.1c0,0,0.1,0,0.2,0.1c0.1,0,0.1,0.1,0.2,0.1l0.1,0.1l0.1,0.1c0,0-0.1,0-0.2,0c-0.1,0-0.1,0-0.1,0c0,0,0,0,0,0
			c0,0,0,0,0,0c0,0,0,0.1,0.1,0.1c0,0.1,0.1,0.1,0.1,0.1c0,0,0.1,0,0.1,0.1c0.1,0,0.1,0,0.2,0l0,0c0,0,0,0,0,0H60c0,0,0.1,0,0.2-0.1
			s0.1-0.1,0.2-0.1h0c0,0,0,0,0,0c0,0,0,0,0,0l0,0c0,0,0,0,0,0.1c0,0,0,0.1,0,0.1c0.1,0,0.2,0,0.3,0s0.3,0,0.3,0c0,0,0,0,0.1,0
			c0,0,0.1,0.1,0.1,0.1c0,0,0,0,0.1,0.1c0,0,0,0.1,0,0.1c0,0,0,0.1,0,0.2s0,0.2,0,0.2c0,0,0,0.1,0,0.3c0,0.1,0,0.2,0,0.3
			c0,0,0.1,0,0.2,0c0.1,0,0.1,0,0.1-0.1c0,0,0,0,0-0.1c0,0,0-0.1,0-0.1c0,0,0,0,0.1,0c0,0,0.1,0,0.1,0l0,0l0,0c0,0,0,0.1,0.1,0.2
			s0.1,0.1,0.1,0.2l0.1,0.1l0.1,0.1c0,0,0,0,0.1,0c0,0,0.1,0,0.1,0l0,0l0,0l0,0.8l0.9,0.3l-0.9,1.2l-0.6-0.2c0,0-0.1,0-0.2,0.1
			c-0.1,0-0.2,0-0.2,0c0,0,0,0,0,0l0,0l0,0c0,0,0,0,0,0c0,0,0-0.1,0-0.1c0-0.1-0.1-0.1-0.1-0.1l-0.1,0c0,0,0,0-0.1,0.1
			c0,0.1-0.1,0.1-0.1,0.1c0,0-0.1,0-0.1,0c0,0-0.1,0-0.1,0c0,0,0,0-0.1-0.1c0,0-0.1-0.1-0.1-0.1c0,0-0.1-0.1-0.1-0.1
			c0,0-0.1-0.1-0.1-0.1c0,0,0-0.1,0-0.2c0-0.1,0-0.1,0-0.2c0-0.1-0.1-0.2-0.1-0.3c0-0.1-0.1-0.2-0.1-0.2c0,0-0.1,0-0.2,0
			c-0.1,0-0.2,0-0.2,0l0,0l0,0c0,0-0.1,0-0.2-0.1c-0.1-0.1-0.2-0.1-0.3-0.2c-0.1-0.1-0.2-0.1-0.3-0.2c-0.1-0.1-0.2-0.1-0.2-0.1
			l-0.2-0.2c0,0-0.1,0-0.1,0c-0.1,0-0.1,0-0.1,0c0,0-0.1,0-0.1-0.1c-0.1-0.1-0.1-0.1-0.2-0.2c-0.1-0.1-0.1-0.1-0.2-0.2
			c-0.1-0.1-0.1-0.1-0.1-0.1s0,0-0.1-0.1c-0.1,0-0.1-0.1-0.2-0.1c-0.1,0-0.1-0.1-0.2-0.1s-0.1-0.1-0.1-0.1c0,0,0-0.1-0.1-0.1
			c0-0.1-0.1-0.1-0.1-0.2c0-0.1-0.1-0.1-0.1-0.2c0-0.1,0-0.1,0-0.1l0.3-0.3c0,0,0-0.1,0-0.1c0,0,0-0.1,0-0.1c0,0,0,0,0,0
			s-0.1,0-0.1,0l-0.5,0.5c0,0-0.1-0.1-0.2-0.2s-0.1-0.2-0.1-0.2c0,0,0,0,0-0.1c0,0,0-0.1,0-0.1l-0.3,0.1L54.4,45c0,0-0.1,0-0.1-0.1
			c0,0,0,0-0.1,0c0,0,0,0,0,0L54.1,45L54,45.1c0,0,0,0.1,0,0.1c0,0,0,0.1,0,0.1c0,0,0.1,0.1,0.1,0.2s0.1,0.1,0.1,0.1l-0.4,0.4
			c0,0,0,0,0,0l0,0l0,0c0,0,0.1,0,0.1,0s0.1,0,0.1,0l0.1,0.1l0,0c0,0,0,0.1,0,0.1s0,0.1,0,0.1l-0.4,0.4c0,0,0,0,0.1,0.1
			c0,0.1,0,0.1,0,0.1l0,0l0,0c0,0-0.1,0.1-0.2,0.1c-0.1,0.1-0.2,0.1-0.2,0.1c0,0,0,0,0,0.1c0,0.1,0,0.1,0,0.1c0,0,0,0.1,0,0.1
			c0,0,0,0.1,0,0.1l0,0l0,0c0,0-0.1,0-0.2,0c-0.1,0-0.2,0-0.2,0l-0.3,0.3c0,0-0.1,0-0.2,0c-0.1,0-0.2,0-0.2,0l-0.1,0.1L52,48.4
			l0.2,0.1c0,0-0.1,0.1-0.1,0.2c0,0.1-0.1,0.1-0.1,0.2l0.1,0.1l0.1,0.1c0,0,0.1,0.1,0.2,0.1s0.2,0.1,0.2,0.1c0,0,0.1,0,0.1,0
			c0,0,0.1,0,0.1,0c0,0,0.1,0,0.1,0s0.1,0,0.1,0c0,0,0,0,0,0.1s0,0.1,0,0.1l0.3,0.3l0,0.1l0,0.1c0,0,0,0,0,0.1s0,0,0,0.1l0,0
			c0,0,0,0,0,0c0,0,0.1,0,0.2,0c0.1,0,0.2,0,0.2,0l0,0c0,0,0,0,0,0c0,0,0,0.1,0,0.2c0,0.1,0,0.2,0,0.2c0,0,0,0.1,0.1,0.1
			s0.1,0.1,0.1,0.1c0,0,0,0.1,0,0.1c0,0.1,0,0.1-0.1,0.1l0.7,0.7c0,0,0.1,0,0.1,0c0.1,0,0.1-0.1,0.1-0.1l0.3-0.3c0,0,0,0,0,0.1
			c0,0,0,0.1,0,0.1c0,0,0,0.1,0,0.2c0,0.1,0,0.2,0,0.2c0,0,0,0.1,0,0.1c0,0,0,0.1,0,0.1c0,0-0.1,0.1-0.1,0.2c0,0.1-0.1,0.2-0.1,0.2
			c0,0,0,0,0,0.1c0,0.1,0,0.1,0,0.2l0,0l0,0c0,0,0,0-0.1,0c0,0-0.1,0-0.1,0s-0.1,0-0.1,0.1s-0.1,0.1-0.1,0c0,0-0.1,0-0.1-0.1
			c0,0,0-0.1,0-0.1c0,0-0.1,0-0.1,0.1c-0.1,0-0.1,0.1-0.1,0.1c0,0,0,0.1,0,0.2c0,0.1,0,0.1,0,0.2c0,0-0.1,0-0.1,0
			c-0.1,0-0.1,0-0.1,0c0,0-0.1,0-0.1-0.1c-0.1-0.1-0.1-0.1-0.1-0.1c0,0-0.1,0-0.1,0c-0.1,0-0.1,0-0.1,0l-0.3-0.3
			c0,0-0.1-0.1-0.2-0.1C53.1,52.1,53,52,53,52c0,0-0.1,0-0.2-0.1c-0.1-0.1-0.2-0.1-0.4-0.2c-0.1-0.1-0.3-0.1-0.4-0.2
			c-0.1,0-0.2-0.1-0.2-0.1c0,0-0.1-0.1-0.2-0.1c-0.1-0.1-0.2-0.1-0.2-0.1c-0.1,0-0.2-0.1-0.4-0.2c-0.2-0.1-0.3-0.1-0.3-0.1
			c-0.1,0-0.1,0-0.2,0c0,0-0.1,0-0.1,0.1c-0.1,0.1-0.1,0.1-0.2,0.1c0,0-0.1,0.1-0.2,0.1c-0.1,0.1-0.2,0.1-0.2,0.1c0,0-0.1,0-0.1,0
			c0,0-0.1,0-0.1,0c0,0-0.1,0-0.1,0.1l-0.1,0.1c0,0-0.1,0.1-0.1,0.1c0,0.1-0.1,0.1-0.1,0.1c0,0,0,0.1,0.1,0.1c0,0.1,0,0.1,0,0.1v0.5
			l0,0.1l0,0c0,0,0,0,0,0c0,0,0,0,0.1,0c0,0,0.1,0,0.1,0l0,0l0,0c0,0,0,0.1,0.1,0.2s0.1,0.2,0.1,0.3c0,0.1,0.1,0.2,0.1,0.3
			c0,0.1,0,0.2,0.1,0.2c0,0,0,0.1,0,0.1s0,0.1,0,0.1c0,0,0,0.1-0.1,0.2s-0.1,0.2-0.1,0.2c0,0,0.1,0,0.2,0c0.1,0,0.1,0,0.1,0
			c0.1,0,0.1,0.1,0.2,0.2c0.1,0.1,0.1,0.2,0.1,0.2l0.1-0.1v-0.2c0,0,0-0.1,0-0.2c0-0.1,0-0.2-0.1-0.2c0,0,0.1,0,0.2,0
			c0.1,0,0.1,0,0.1,0.1c0,0,0,0.1,0,0.1c0,0.1,0,0.1,0,0.2l0,0l0,0c0,0,0.1,0,0.2,0.1c0.1,0,0.1,0,0.2,0L51,54.8c0,0,0,0,0,0.1
			C51,55,51,55,51,55c0,0,0.1,0,0.2,0s0.2,0,0.2,0l0.1,0.1l0.1,0.1c0,0,0,0,0,0.1c0,0,0,0.1,0,0.1c0,0,0,0-0.1,0s-0.1,0-0.1,0
			c0,0-0.1,0-0.1,0c-0.1,0-0.1,0-0.1,0L51,55.5L51,55.6l0,0.2l0,0l0,0l0.1,0c0,0,0,0,0.1,0c0,0,0.1-0.1,0.2-0.1
			c0.1-0.1,0.2-0.1,0.2-0.1c0,0,0.1,0,0.2,0c0.1,0,0.1,0.1,0.1,0c0,0,0.1,0,0.2-0.1c0.1-0.1,0.2-0.1,0.2-0.1l0.8,0.8l0.4,0l0.7,0.7
			c0,0-0.1,0.1-0.1,0.1S54,57.1,54,57.2c0,0,0,0.1,0,0.2c0,0.1,0,0.2,0,0.2l0.2,0.2c0,0,0,0,0,0.1c0,0,0,0.1,0,0.1s0,0.1-0.1,0.1
			c-0.1,0-0.1,0.1-0.1,0.1s0,0.1,0.1,0.1s0.1,0.1,0.1,0.2c0,0-0.1,0.1-0.1,0.2C54,58.8,54,58.9,54,58.9c0,0,0,0.1,0,0.2
			c0,0.1,0,0.1,0,0.2h0.2c0,0,0-0.1,0-0.2c0-0.1,0-0.2,0-0.2l0,0l0,0c0.1,0,0.2-0.1,0.3-0.2c0.1-0.1,0.2-0.1,0.2-0.1
			c0,0,0.1,0,0.2,0c0.1,0,0.1,0,0.2,0c0,0,0.1,0,0.1,0c0,0,0.1,0.1,0.1,0.1c0,0,0,0-0.1,0.1c0,0.1-0.1,0.1-0.1,0.1c0,0,0,0,0,0.1
			s0,0.1,0,0.1l0,0l0.1,0.1c0.1,0,0.2,0,0.3-0.1c0.1,0,0.3-0.1,0.4-0.1c0.1,0,0.2,0,0.1,0.1c0,0-0.1,0.1-0.4,0.3l-0.5,0.5
			c0.2,0,0.2,0,0.3,0.1c0,0,0,0.1,0,0.2s-0.2,0.1-0.3,0.2c-0.1,0-0.3,0.1-0.4,0.1c0,0-0.1,0.1-0.2,0.1s-0.2,0.1-0.2,0.1
			c0,0-0.1,0-0.2,0s-0.2,0-0.3,0c-0.1,0-0.2,0-0.3,0c-0.1,0-0.1,0-0.1,0l-0.1,0.1l0.2,0.2L53,60.9l-0.7-0.7c0,0,0-0.1,0-0.2
			c0-0.1,0-0.2,0-0.2L52,59.5c0,0,0-0.1,0-0.2s0-0.2,0-0.2l-0.1-0.1l-0.4,0.4c0,0-0.1-0.1-0.1-0.2s-0.1-0.2-0.2-0.2
			c0,0-0.1-0.1-0.1-0.3c-0.1-0.2-0.1-0.3-0.2-0.4c0,0,0,0,0-0.1c0,0,0-0.1,0-0.1c0,0,0,0,0.1-0.1c0.1,0,0.1-0.1,0.1-0.1
			c0,0,0-0.1,0-0.2c0,0,0-0.1,0-0.1c0-0.1,0-0.1,0-0.1l0,0l0,0c0,0-0.1,0.1-0.2,0.1c-0.1,0.1-0.2,0.1-0.2,0.1c0,0-0.1,0-0.1,0
			c0,0-0.1,0-0.1,0c-0.1,0-0.2-0.1-0.3-0.1c-0.1,0-0.2-0.1-0.2-0.1c0,0,0-0.1,0-0.1c0-0.1,0-0.1,0-0.1c0,0,0,0,0-0.1
			C49.9,57.3,49.9,57.2,49.8,57.1L49.8,57.1L49.8,57.1z M46.2,53c0,0-0.1,0-0.1,0c-0.1,0.1-0.1,0.1,0,0.1c0,0,0.1,0,0.1,0
			S46.2,53.1,46.2,53z M47.4,51.5C47.4,51.5,47.4,51.5,47.4,51.5c0-0.1-0.1-0.1-0.1-0.1C47.3,51.5,47.3,51.5,47.4,51.5
			C47.3,51.5,47.4,51.5,47.4,51.5z M50.6,54.8c0,0-0.1,0-0.2,0c-0.1,0.1-0.1,0.1,0,0.2c0,0,0.1,0,0.1,0
			C50.6,54.8,50.7,54.8,50.6,54.8z M51.3,58.8L51.3,58.8c0.1,0.1,0.1,0,0.1,0l0-0.1L51.3,58.8z M52.7,47.4c0,0-0.1,0-0.2,0
			s-0.1,0.1,0,0.2c0,0,0.1,0,0.2,0S52.8,47.4,52.7,47.4z M52.7,59.4c0,0-0.1,0-0.1,0s-0.1,0.1,0,0.1s0.1,0,0.1,0
			S52.8,59.5,52.7,59.4z M53.5,58.5C53.5,58.5,53.6,58.5,53.5,58.5c0.1,0,0.2,0,0.2,0l0,0c0,0,0,0,0,0c0,0,0,0,0,0l0,0l-0.1-0.1
			L53.5,58.5z M53.8,51.8L53.8,51.8l0.2,0l-0.1-0.1L53.8,51.8z M54.1,60.8c0,0,0,0.1,0,0.1S54,61,54,61c-0.1-0.1-0.1-0.1,0-0.2
			S54.1,60.7,54.1,60.8z M54,43.3c0,0,0.1,0,0.2-0.1c0.1,0,0.2,0,0.2,0c0,0,0,0.1-0.1,0.2s-0.1,0.2-0.1,0.2l-0.1,0.1
			c0,0-0.1-0.1-0.1-0.2c0,0,0-0.1,0-0.2C54,43.4,54,43.4,54,43.3z M54.5,59.4l0.1,0l0-0.1L54.5,59.4z M54.7,57.8
			C54.7,57.8,54.7,57.9,54.7,57.8c-0.1,0.1-0.1,0-0.1,0C54.5,57.7,54.5,57.7,54.7,57.8C54.7,57.7,54.7,57.8,54.7,57.8z M54.7,59.7
			l0.2,0L54.7,59.7L54.7,59.7z M54.9,58c0.1,0.1,0.1,0.1,0,0.2s-0.1,0.1-0.2,0c0,0,0-0.1,0-0.1S54.9,58,54.9,58z M55,53
			c0.1,0.1,0.1,0.1,0,0.2s-0.1,0.1-0.2,0c0,0,0-0.1,0-0.2S54.9,52.9,55,53z M55.1,43.3C55.1,43.2,55.1,43.2,55.1,43.3
			c0.1-0.1,0.1-0.1,0.1-0.1c0,0,0,0.1,0,0.3c0,0.2,0,0.3,0,0.3c0,0,0,0.1-0.1,0.2c0,0.1-0.1,0.1-0.1,0.2L55,44.2l0,0l0,0
			c0,0,0,0,0,0c0,0,0,0,0-0.1s0-0.1,0-0.1c0,0,0-0.1,0-0.1s0-0.1,0-0.1c0,0,0-0.1,0-0.2C55,43.4,55,43.4,55.1,43.3
			C55,43.3,55,43.3,55.1,43.3C55.1,43.3,55.1,43.3,55.1,43.3z M55.8,52.1C55.8,52.1,55.8,52.1,55.8,52.1C55.9,52,56,52,56,51.9
			c0,0.1,0,0.2,0.1,0.3c0,0.1,0,0.2,0,0.3c0,0-0.1,0.1-0.2,0.3c-0.1,0.1-0.2,0.2-0.2,0.2c0,0,0-0.1-0.1-0.1
			c-0.1-0.1-0.1-0.1-0.1-0.2c0,0,0-0.1,0.1-0.1c0-0.1,0-0.1,0.1-0.1c0,0,0-0.1,0-0.1c0,0,0-0.1,0-0.1C55.6,52.3,55.7,52.2,55.8,52.1
			C55.7,52.2,55.8,52.1,55.8,52.1z M56,59.6c0,0,0-0.1,0-0.1s0-0.1,0.1-0.1c0,0,0-0.1,0.1-0.2c0.1-0.1,0.1-0.1,0.1-0.1
			c0,0,0.1,0.1,0.2,0.2c0.1,0.1,0.1,0.2,0.2,0.2c0,0,0.1,0,0.1,0.1c0.1,0,0.1,0,0,0.1c-0.1,0.2-0.2,0.2-0.3,0.2s-0.2-0.1-0.2-0.1
			l-0.1,0l0,0.1c0,0.1,0.1,0.2,0.1,0.3c0,0.1,0.1,0.1,0.1,0.2c0,0.1,0,0.1,0,0.1c-0.1,0-0.1,0-0.2,0l-0.2,0l0,0c0,0-0.1,0-0.2,0.1
			c-0.1,0-0.1,0-0.1,0c0,0-0.1-0.1-0.1-0.2c0-0.1-0.1-0.1-0.1-0.1L56,59.6z M56.2,53c0,0,0,0.1-0.1,0.1s-0.1,0.1-0.1,0.1
			c0,0,0-0.1,0.1-0.1S56.2,53,56.2,53z M56.1,45.3C56.1,45.3,56.2,45.3,56.1,45.3c0.1,0,0.2,0,0.2,0l0.1-0.1l0.1-0.1
			c0,0,0-0.1,0-0.1c0,0,0-0.1,0-0.1L56.1,45.3z M57.6,59.8C57.6,59.8,57.6,59.9,57.6,59.8c-0.1,0.1-0.1,0.1-0.1,0.1l-0.1,0
			c0,0,0,0-0.1,0c0,0,0,0,0,0c0,0,0,0-0.1,0.1c0,0-0.1,0.1-0.1,0.1c0,0-0.1,0.1-0.1,0.1s-0.1,0.1-0.1,0.1c0,0-0.1,0-0.2,0
			c-0.1,0-0.1,0-0.2,0c0,0,0.1-0.1,0.1-0.2c0.1-0.1,0.1-0.2,0.2-0.3c0.1-0.1,0.1-0.2,0.2-0.3s0.1-0.1,0.1-0.2l0.1-0.1L57.6,59.8z
			 M56.6,52.3L56.6,52.3l0-0.1L56.6,52.3z M56.7,52.6C56.7,52.6,56.7,52.7,56.7,52.6C56.6,52.7,56.6,52.7,56.7,52.6
			C56.5,52.7,56.5,52.7,56.7,52.6C56.6,52.6,56.6,52.6,56.7,52.6z M57.1,53.1c0,0,0,0.1-0.1,0.1s-0.1,0.1-0.1,0.1
			c-0.1-0.1-0.1-0.1,0-0.2S57,53,57.1,53.1z M56.9,44.7L56.9,44.7v-0.2V44.7z M57.8,45c-0.1-0.1-0.1-0.1-0.2,0s0,0.1,0,0.2
			c0,0,0.1,0,0.1,0S57.9,45,57.8,45z M58.2,44.1C58.2,44.2,58.2,44.2,58.2,44.1C58.2,44.2,58.2,44.2,58.2,44.1c-0.1,0.1-0.2,0-0.1,0
			C58.1,44.1,58.2,44.1,58.2,44.1z M59.6,49.3c0.1,0.1,0.1,0.1,0,0.2s-0.1,0.1-0.2,0c0,0,0-0.1,0-0.1S59.6,49.2,59.6,49.3z
			 M59.5,48.7C59.5,48.7,59.5,48.7,59.5,48.7C59.5,48.7,59.5,48.8,59.5,48.7c0,0.1,0,0.2,0,0.2c0,0,0.1,0,0.1,0c0.1,0,0.1,0,0.1-0.1
			c0,0,0-0.1,0-0.2c0,0,0,0,0,0c0,0,0,0,0,0h-0.1L59.5,48.7L59.5,48.7z M60.3,47.3C60.3,47.3,60.3,47.3,60.3,47.3c0,0.1,0,0.2,0,0.2
			c0.1,0,0.1,0,0.2,0l0.1-0.1c0,0,0,0,0.1,0c0,0,0,0,0,0l-0.1-0.1c0,0-0.1,0-0.1,0C60.4,47.2,60.4,47.2,60.3,47.3L60.3,47.3
			L60.3,47.3z M60.9,47.8C61,47.8,61,47.8,60.9,47.8C60.9,47.7,60.9,47.7,60.9,47.8C60.8,47.8,60.8,47.8,60.9,47.8
			C60.8,47.9,60.9,47.9,60.9,47.8z M61.5,48.3c0,0-0.1,0-0.1,0c-0.1,0.1-0.1,0.1,0,0.1c0.1,0.1,0.1,0.1,0.2,0
			C61.5,48.4,61.5,48.3,61.5,48.3z M61.7,50.6c0,0,0.1,0,0.3,0.1c0.1,0,0.2,0,0.3,0c0,0,0.1,0,0.1,0c0,0,0.1,0,0.1,0
			c0,0,0.1,0,0.1,0s0.1-0.1,0.1-0.1c0-0.1,0-0.2,0-0.2c0-0.1,0-0.1,0.1-0.2s0.1-0.1,0.1-0.1c-0.2-0.1-0.3-0.1-0.1-0.1
			c0.2,0,0.4,0.1,0.6,0.1l-0.1-0.4c0,0,0,0,0.1,0.1c0,0,0.1,0,0.1,0c0,0,0.1,0,0.2-0.1s0.2,0,0.2,0c0,0,0.1,0,0.1-0.1
			c0,0,0.1-0.1,0.1-0.1l0.2,0.2l-0.1,0.1c0,0-0.1,0-0.2,0.1C64,50,64,50,64,50.1c0,0,0,0.1,0,0.2l0,0l0,0c0,0,0,0,0.1,0s0.1,0,0.1,0
			c0,0,0.1,0,0.1,0c0.1,0,0.1,0,0.1,0c0,0,0,0.1,0,0.1c0,0.1,0,0.1,0,0.1c-0.1,0.1-0.1,0.1,0,0.2c0,0,0.1,0.1,0.2,0.1
			c0.1,0,0.2,0.1,0.2,0.1c0,0,0,0.1-0.1,0.1c0,0.1,0,0.1,0,0.1l0.1,0.1l0.1,0.1c0,0,0.1,0.1,0.3,0.1c0.1,0,0.2,0.1,0.3,0.1
			c0,0.1,0.1,0.2,0.1,0.4c0.1,0.2,0.1,0.3,0.1,0.4l-0.4-0.4c0,0-0.1,0.1-0.2,0.2c-0.1,0.1-0.2,0.2-0.3,0.2s-0.2,0.1-0.3,0.2
			c-0.1,0.1-0.1,0.1-0.2,0.1c0,0-0.1,0-0.1,0c-0.1,0-0.1,0-0.1,0c0,0,0,0,0-0.1c0,0,0-0.1,0-0.1c0,0,0-0.1,0.1-0.1
			c0.1-0.1,0.1-0.1,0.1-0.1c0,0,0-0.1,0.1-0.2s0.1-0.2,0.1-0.2c0,0,0-0.1,0.1-0.2c0-0.1,0-0.1,0-0.2l0,0l0,0c0,0-0.1,0-0.2,0.1
			c-0.1,0.1-0.1,0.1-0.2,0.1c0,0-0.1,0-0.3,0c-0.1,0-0.2,0-0.2,0l-0.2,0.2l-0.2,0.2c0,0,0,0.1,0,0.1c0,0,0,0.1,0,0.1
			c0,0-0.1,0-0.2,0c-0.1,0-0.1,0-0.2,0l0,0l0,0c0,0,0-0.1,0-0.2c0-0.1,0-0.2,0-0.2c0,0,0,0-0.1-0.1s-0.1,0-0.1,0c0,0-0.1,0-0.2,0
			c-0.1,0-0.2,0-0.2,0.1l0,0l0,0c0,0,0,0,0-0.1c0,0,0-0.1,0-0.1c0,0-0.1-0.1-0.2-0.2s-0.2-0.1-0.2-0.2c0,0,0,0-0.1-0.1
			c0-0.1,0-0.1,0-0.1C61.6,50.8,61.6,50.8,61.7,50.6C61.6,50.7,61.7,50.7,61.7,50.6z M62.6,50.1C62.6,50,62.6,50,62.6,50.1
			C62.5,50.1,62.5,50.1,62.6,50.1C62.5,50.2,62.6,50.2,62.6,50.1C62.6,50.1,62.6,50.1,62.6,50.1z M62.9,50.8
			C62.9,50.8,62.9,50.9,62.9,50.8c0,0.2,0,0.2,0,0.2c0,0,0.1,0,0.2-0.1c0.1,0,0.2-0.1,0.3-0.1l0,0l0,0c0,0,0-0.1,0-0.1
			c0,0,0-0.1,0-0.1c0,0-0.1,0-0.2,0.1C63.1,50.7,63,50.8,62.9,50.8L62.9,50.8L62.9,50.8z M63.9,51.8c0.1,0.1,0.1,0.1,0,0.2
			s-0.1,0.1-0.2,0c0,0,0-0.1,0-0.2S63.8,51.8,63.9,51.8z M64.3,51.7c0.1,0.1,0,0.1,0,0.2c-0.1,0.1-0.1,0.1-0.2,0c0,0,0-0.1,0.1-0.1
			C64.2,51.7,64.3,51.7,64.3,51.7z"/>
		<path class="st2" d="M63.7,73.6c-0.1-0.1-0.2-0.1-0.3,0c0.1-0.1,0.1-0.1,0.1-0.2c0,0,0-0.1-0.1-0.1c0,0-0.1-0.1-0.1-0.1
			s0-0.1,0-0.1l0.2,0.2c0,0,0,0,0,0c0,0,0,0,0,0c0,0,0-0.1,0.1-0.1c0,0,0-0.1,0-0.1c0,0,0.1,0,0.1,0l0.2,0.2c0-0.1,0.1-0.1,0-0.2
			c0-0.1-0.1-0.1-0.1-0.2c-0.1-0.1-0.1-0.1-0.2-0.1c-0.1,0-0.1,0.1-0.2,0.1c-0.1-0.1-0.1-0.2-0.2-0.4c-0.1-0.2-0.1-0.5-0.1-0.7
			c0-0.3,0-0.5,0-0.7c0-0.2,0-0.4,0.1-0.4l-0.5-0.5c0,0-0.1,0-0.1,0.1c-0.1,0-0.1,0-0.2,0l0,0c0,0,0-0.1,0-0.1s0-0.1,0.1-0.2
			c0-0.1,0.1-0.1,0.1-0.2c0-0.1,0-0.1,0-0.2l-0.1,0c0,0,0,0-0.1,0c-0.1,0-0.1,0-0.1,0l0,0c0,0-0.1-0.2-0.1-0.4c0-0.2,0-0.4,0-0.7
			c0-0.2,0-0.5,0-0.7c0-0.2,0-0.4,0-0.5c0,0,0-0.1-0.1-0.1c0-0.1-0.1-0.1-0.1-0.2c0-0.1-0.1-0.2-0.2-0.3c-0.1-0.2-0.1-0.4-0.1-0.6
			s0-0.5,0-0.7s0.1-0.5,0.1-0.7s0.1-0.4,0.1-0.6c0-0.1,0-0.3,0-0.4c0-0.1,0-0.2,0-0.3c0-0.1,0.1-0.2,0.1-0.3
			c0.1-0.1,0.1-0.2,0.3-0.3l0,0c0,0,0,0,0.1,0h0.1h0.1c0,0,0-0.1,0-0.2s0.1-0.3,0.2-0.3c0.1-0.1,0.2-0.2,0.4-0.2c0.1,0,0.2,0,0.4,0
			c0.1,0,0.2,0,0.4,0c0.1,0,0.3,0,0.4-0.1c0.2,0.1,0.4,0.2,0.6,0.2c0.2,0.1,0.4,0.2,0.6,0.2c0.2,0,0.3,0.1,0.3,0s0.1,0,0.1,0
			c0,0,0.1,0,0.2,0c0.1,0,0.2,0.1,0.4,0.3c0,0,0,0.1,0.1,0.1c0,0.1,0.1,0.1,0.1,0.1c0,0,0,0.1,0,0.2c0,0,0.1,0,0.2,0
			c0.1,0,0.3,0,0.4,0s0.3,0,0.4,0c0.1,0,0.2,0,0.2,0c0.1,0.1,0.2,0.2,0.2,0.3c0.1,0.1,0.1,0.2,0.3,0.2c0,0,0.1,0,0.1-0.1
			c0-0.1,0.1-0.1,0.1-0.1c0.1,0,0.2,0,0.4,0.1s0.3,0.1,0.4,0.1c0,0,0.1,0,0.1-0.1s0.1,0,0.1-0.1s0.1,0,0.2,0c0.1,0,0.2,0,0.4,0.1
			c0.1,0,0.3,0,0.4,0.1c0.1,0,0.2,0,0.3,0c0,0,0.1,0,0.2,0c0.1,0,0.2,0,0.3,0c0.1,0,0.2,0,0.3,0c0.1,0,0.1,0,0.1,0
			c0,0,0.1,0,0.2-0.1c0.1-0.1,0.2-0.1,0.3,0v0c0,0,0,0,0,0l-0.2,0.4l0,0c0,0.1,0.1,0.1,0.2,0s0.2-0.1,0.2-0.1l0,0
			c0.1,0,0.1-0.2,0.1-0.3c0-0.2,0-0.3-0.1-0.4c0,0-0.1,0-0.1,0c-0.1,0-0.1,0-0.1,0l0,0l0,0c0.1-0.1,0.2-0.2,0.3-0.2
			c0.1,0,0.2-0.1,0.3-0.2l0,0c-0.1,0-0.2,0-0.3,0c-0.1,0-0.2-0.1-0.3-0.1l0.3-0.5l-0.1-0.1c-0.1,0.1-0.2,0.1-0.3,0.2
			c-0.1,0-0.2,0.1-0.4,0.1c0-0.2,0-0.4,0-0.7s0-0.5-0.2-0.6c-0.1-0.1-0.2-0.2-0.3-0.3c-0.1,0-0.2,0-0.4,0.2l0,0c0-0.1,0-0.1,0-0.1
			c0,0,0.1,0,0.1,0L70.3,60v0c0,0,0-0.1,0-0.1l0,0l0,0l-0.1,0l0,0c0,0,0,0,0,0v0c0-0.1,0.1-0.2,0.1-0.3c0-0.1,0.1-0.3,0.1-0.4
			c0,0-0.1,0-0.1,0c-0.1,0-0.2,0-0.2,0c-0.1,0-0.2,0-0.3,0c-0.1,0-0.2,0-0.2-0.1c0.1-0.1,0.2-0.2,0.3-0.4c0.1-0.1,0.1-0.3,0.2-0.5
			c0,0-0.1,0-0.3,0.1s-0.2,0.1-0.2,0.1c0,0,0,0.1-0.1,0.1c0,0.1-0.1,0.1-0.1,0.1l0,0.1l0,0c0,0-0.1,0-0.1,0s-0.1,0-0.1,0
			c0,0,0.1-0.1,0.2-0.2s0.2-0.2,0.2-0.3c0,0,0.1,0,0.1-0.1c0,0,0-0.1,0-0.1l0,0l0,0c0,0,0,0-0.1,0.1c-0.1,0-0.1,0.1-0.2,0.1
			c-0.1,0-0.2,0.1-0.2,0.1c-0.1,0-0.1,0-0.2,0l0,0c0,0,0,0,0-0.1c0,0,0.1-0.1,0-0.1c0,0,0,0-0.1,0c-0.1,0-0.1,0-0.1,0
			c0,0-0.1,0.1-0.1,0.2c0,0.1-0.1,0.1-0.1,0.2c-0.1-0.1-0.1-0.1-0.1-0.2c0-0.1,0-0.2,0-0.2c0,0,0,0,0-0.1c0,0,0,0,0-0.1
			c0,0,0-0.1,0-0.1l-0.5,0.1l-0.5-0.5l-0.1,0c-0.1,0.1-0.3,0.3-0.5,0.5c-0.2,0.2-0.4,0.2-0.6,0.2c0,0-0.1,0-0.1,0l0,0l0.3-0.3
			c0,0,0,0,0,0c0,0,0,0,0,0s0,0,0,0c-0.1,0-0.1,0-0.2,0c-0.1,0-0.2,0.1-0.2,0.1c-0.1,0.1-0.2,0.2-0.2,0.4c0,0.1-0.1,0.3-0.2,0.4
			c-0.2-0.2-0.4-0.2-0.6,0l-0.1-0.1l-0.2,0.2l0.3,0c-0.1,0.1-0.1,0.3-0.1,0.4s-0.1,0.3-0.2,0.4c-0.1,0-0.1,0-0.1,0c0,0-0.1,0-0.1,0
			c-0.1,0-0.1,0-0.2,0c0,0-0.1,0-0.2,0.1s-0.2,0.2-0.2,0.2c0,0,0-0.1,0-0.1s0-0.1,0-0.1l0,0l0,0c0,0,0,0-0.1,0s-0.1,0-0.1,0v0
			c-0.1,0.1-0.2,0.2-0.3,0.3c-0.1,0.1-0.2,0.2-0.2,0.3c-0.1,0.1-0.1,0.2-0.1,0.4c0,0.1,0.1,0.2,0.2,0.4c-0.1,0.1-0.2,0.2-0.3,0.2
			S62.4,61,62.3,61c-0.1,0-0.2,0-0.2,0s-0.1,0.1-0.2,0.1l0,0c0,0,0,0.1,0,0.1c0,0,0,0.1,0,0.1l-0.3,0.3c-0.1,0.1-0.3,0.2-0.4,0.3
			c-0.2,0-0.3,0.1-0.4,0.2c-0.1,0.1-0.1,0.2-0.1,0.3s0,0.3-0.1,0.3c0,0,0,0,0,0s0,0-0.1,0c0,0-0.1,0.1-0.2,0.2
			c-0.1,0.1-0.2,0.2-0.4,0.3c-0.1,0.1-0.3,0.2-0.4,0.3S59.2,64,59.2,64l0,0l0,0c0,0,0,0.1,0.1,0.2c0,0.1,0,0.1,0,0.2
			c0,0-0.1,0.1-0.1,0c0,0-0.1,0-0.1,0s-0.1,0-0.1,0c-0.1,0-0.1,0.1-0.2,0.2l0,0c0.1,0,0.2,0,0.2,0c0,0,0.1,0,0.1,0.1
			c0,0-0.1,0.1-0.2,0.2c-0.1,0.1-0.2,0.2-0.2,0.2c-0.1,0-0.2,0.1-0.4,0.1c-0.2,0-0.4,0-0.5-0.1c-0.2,0-0.3,0-0.4,0.1
			c-0.1,0-0.2,0-0.3-0.1c-0.1-0.1-0.1-0.2-0.2-0.3s-0.1-0.2-0.1-0.3l0.8-0.7c0,0,0-0.1,0-0.1c0-0.1,0.1-0.2,0.3-0.5
			c0.2-0.3,0.5-0.6,0.8-0.9s0.6-0.6,0.8-0.9s0.5-0.4,0.6-0.5c0,0,0.1-0.1,0.2-0.3c0.1-0.2,0.2-0.4,0.4-0.6s0.4-0.5,0.6-0.7
			c0.2-0.3,0.4-0.5,0.6-0.7c0.2-0.2,0.3-0.4,0.5-0.6c0.1-0.2,0.2-0.3,0.3-0.3c0,0,0,0,0.1-0.1s0.1-0.1,0.2-0.2
			c0.1-0.1,0.1-0.1,0.2-0.2s0.1-0.1,0.1-0.1c0,0,0.1-0.1,0.2-0.1c0.1-0.1,0.2-0.2,0.3-0.2c0.1-0.1,0.2-0.2,0.3-0.2
			c0.1-0.1,0.1-0.1,0.2-0.1l0,0l0,0c0.2-0.2,0.3-0.4,0.4-0.6c0.1-0.2,0.3-0.4,0.5-0.6c0.1-0.1,0.1-0.1,0.2,0c0,0,0.1,0.1,0.1,0.1
			l0.3-0.3l0.4,0.4l0.2,0l-0.5-0.5c0.1-0.1,0.1-0.1,0.2-0.1c0.1,0,0.2,0.1,0.5,0c0,0,0,0,0,0c0,0,0,0,0,0l0,0.3
			c0.2-0.1,0.4-0.2,0.6-0.2c0.2,0,0.4,0,0.6-0.1c0.1,0,0.2,0,0.3,0c0.1,0.1,0.2,0.1,0.3,0.2c0.1,0.1,0.1,0.1,0.1,0.2
			c0,0.1,0.1,0.1,0.1,0.2c0,0.1,0.1,0.1,0.1,0.1c0.1,0,0.1,0,0.2,0c0,0,0-0.1,0-0.1c0-0.1,0-0.1-0.1-0.2c0.1,0.1,0.2,0.1,0.3,0.1
			c0.1,0,0.2,0,0.3,0.1c0,0,0,0.1,0,0.2c0,0.1,0,0.2-0.1,0.3c0,0.1,0,0.2-0.1,0.3c0,0.1,0,0.2,0,0.2c0,0,0.1,0,0.2-0.1
			s0.2-0.1,0.4-0.2c0.1-0.1,0.3-0.1,0.4-0.2c0.1,0,0.2,0,0.3,0c-0.2,0.2-0.5,0.4-0.8,0.5c-0.3,0.1-0.6,0.3-0.8,0.4
			c-0.3,0.2-0.3,0.4-0.1,0.6c0.1-0.1,0.3-0.2,0.4-0.3c0.1-0.1,0.3-0.2,0.4-0.3l-0.1-0.1c0.1-0.1,0.2-0.2,0.3-0.2s0.2,0,0.2,0
			s0.1,0.1,0.2,0.1c0.1,0,0.1,0,0.2-0.1c0,0.1,0.1,0.2,0.1,0.2c0,0,0.1,0,0.1,0.1l0.2-0.2c-0.1,0-0.2,0-0.2-0.1
			c0.1,0,0.1-0.1,0.2-0.2c0.1-0.1,0.2-0.1,0.2,0c0.1,0.1,0.1,0.2,0.2,0.3c0.1,0.1,0.1,0.3,0.1,0.3l0,0c0,0,0,0,0,0c0,0,0.1,0,0.1,0
			c0.1,0,0.1,0,0.2,0l0,0l0,0c-0.1,0.1-0.2,0.2-0.2,0.3c0,0.1,0,0.1,0,0.1c0,0,0,0.1,0.1,0.1s0.1,0.1,0.1,0.2c0,0,0,0.1,0,0.2
			c0,0.1,0,0.2,0,0.2c0.1,0.1,0.1,0.1,0.2,0.1s0.2,0,0.3-0.1c0.1,0,0.2-0.1,0.3-0.1s0.2-0.1,0.2-0.1l0,0.6c0.1,0,0.1,0.1,0.1,0.2
			c0,0-0.1,0-0.1,0c-0.1,0-0.1,0-0.1,0l0,0.1c0,0.1,0.1,0.1,0.1,0.1c0,0,0,0.1-0.1,0.2l-0.1-0.1c0,0-0.1,0.1-0.1,0.1
			c-0.1,0-0.1,0,0,0.1c0,0,0.1,0,0.2,0.1c0.1,0,0.2,0.1,0.2,0.1l0,0l0,0l-0.4,0l-0.4,0l0,0c0,0,0,0.1-0.1,0.1
			c-0.1,0.1-0.1,0.1-0.1,0.2l-0.2-0.2c-0.1,0-0.1,0.1-0.2,0.2s0,0.1,0,0.2c0,0,0.1,0,0.2,0c0.1,0,0.2,0,0.2,0.1c0,0,0,0.1,0,0.1
			c0,0,0,0.1,0,0.1l0.5-0.5c0.1,0.1,0.1,0.2,0.1,0.3c0,0.1,0,0.2,0,0.4c0,0.1,0,0.2,0,0.3c0,0.1,0,0.2,0,0.2l0.1-0.1
			c0.1,0.1,0.1,0.1,0.2,0.1c0.1,0,0.1,0,0.2-0.1c-0.1,0-0.1-0.1-0.1-0.1s0-0.2,0-0.3s0-0.2,0-0.3c0-0.1,0-0.2,0.1-0.2l0.2,0.2l0.1,0
			c0.1,0,0.1,0,0.1-0.1c0,0,0-0.1,0.1-0.1c0-0.1,0-0.1,0-0.2l0.6,0.2c0,0-0.1,0-0.1,0.1c-0.1,0-0.1,0-0.1,0l0,0
			c-0.1,0.1-0.1,0.2,0,0.3c0.1,0.1,0.2,0.1,0.2,0.2c0.1,0,0.2,0,0.3,0l0,0c0,0,0,0,0.1-0.1s0-0.1,0-0.1L74,60
			c0.1,0.1,0.1,0.2,0.1,0.2c0,0.1,0,0.1,0,0.2S74,60.6,74,60.6s0,0.1,0,0.2c0,0.1,0.1,0.2,0.2,0.3c0.1,0.1,0.1,0.2,0,0.3
			c0,0-0.1-0.1-0.1,0c0,0-0.1,0.1-0.1,0.1c-0.1,0.1-0.1,0.1-0.1,0.1c0,0,0,0.1,0,0.1c0.1,0.1,0.2,0.1,0.4,0c0.2,0,0.3-0.1,0.4-0.1
			c0,0.3-0.1,0.6-0.3,0.9c-0.2,0.3-0.4,0.5-0.6,0.7c0,0.1-0.1,0.1,0,0.2c0,0.1,0,0.2,0,0.2c0,0.1,0,0.2,0,0.2c0,0.1,0,0.1-0.1,0.2
			c0,0,0,0-0.1,0c0,0-0.1,0-0.1,0.1s-0.1,0-0.1,0c0,0-0.1,0-0.1-0.1c0-0.1,0-0.2,0-0.3c0.1-0.1,0.1-0.2,0.1-0.2L73,63.9v0.8l0,0l0,0
			c0,0,0,0,0,0c-0.1,0.1-0.2,0.1-0.4,0.1c-0.2,0-0.3,0-0.4,0c0,0.1,0,0.2,0,0.3s0,0.2-0.1,0.2c0,0-0.1,0-0.1,0c0,0,0-0.1-0.1-0.3
			c-0.1-0.1-0.1-0.2-0.1-0.2l0,0c-0.1-0.1-0.1-0.1-0.3,0c-0.1,0.1-0.2,0.1-0.2,0.1c0,0-0.1,0-0.1-0.1s-0.1-0.1-0.1-0.1
			c0,0-0.1,0-0.2,0s-0.2,0-0.2,0l0,0c0,0-0.1,0.1-0.1,0.1c0,0,0,0.1-0.1,0.2c-0.1,0.1-0.3,0.2-0.4,0.2s-0.3,0.1-0.5,0.2
			c0-0.1,0-0.2-0.1-0.2c0-0.1-0.1-0.1-0.1-0.2c-0.1-0.1-0.2-0.1-0.3-0.1c-0.1,0-0.2,0.1-0.3,0.2c-0.1,0.1-0.2,0.1-0.3,0.2
			c-0.1,0.1-0.2,0.1-0.3,0l0.8-0.7c0.1,0,0.1-0.1,0-0.1c-0.1,0-0.1-0.1-0.1-0.1c0,0,0,0-0.1,0.1c0,0.1,0,0.1-0.1,0.1h-0.1L68.1,64
			c0,0.1,0,0.2,0,0.3c0,0.1,0,0.2-0.1,0.3c-0.1-0.1-0.2-0.1-0.3-0.2c-0.2,0-0.3,0-0.3,0.2c0-0.2,0-0.3,0.2-0.4l0,0l0,0
			c0,0,0.1,0.1,0.2,0.1s0.1,0.1,0.1,0.1c0,0,0-0.1-0.1-0.2c-0.1-0.1-0.1-0.2-0.1-0.2l0,0c-0.1-0.1-0.1-0.1-0.2-0.1
			c-0.1,0.1-0.1,0.1-0.2,0.2c-0.1,0.1-0.2,0.2-0.2,0.4c0,0.1-0.1,0.3-0.2,0.4l0,0c0,0-0.1,0-0.2-0.1c-0.1-0.1-0.2-0.2-0.2-0.2
			c0-0.1,0-0.2-0.1-0.3c0-0.2,0-0.3,0-0.3l-0.1,0.1c-0.1,0.1-0.1,0.1-0.2,0.2c-0.1,0.1-0.1,0.2-0.1,0.3L65.3,65
			c-0.2-0.2-0.2-0.4-0.1-0.4c0.1-0.1,0.2-0.2,0.4-0.3c0,0-0.1,0-0.2-0.1c-0.1,0-0.1-0.1-0.1-0.1c0,0,0-0.1,0.1-0.2
			c0.1-0.1,0.1-0.1,0.1-0.2c0,0,0.1,0,0.1-0.1c0,0,0-0.1,0-0.1c0.1,0.2,0.1,0.2,0.2,0.2s0.2-0.1,0.2-0.1l-0.4-0.5
			c-0.1,0-0.1,0.1-0.2,0.1c-0.1,0-0.1,0.1-0.1,0.1c0,0-0.1,0.1-0.1,0.1L65,63.7c-0.1,0.1-0.1,0.2-0.1,0.3c0,0.1,0,0.2,0,0.3
			c0,0.1,0,0.2,0.1,0.3c0,0.1,0,0.2,0,0.4c0.1,0,0.3,0.1,0.3,0.2c0,0.1,0,0.1,0,0.2c0,0.1-0.1,0.2-0.1,0.2l0.4,0.5c0,0,0,0.1,0,0.2
			c0,0.1,0,0.2-0.1,0.2c0,0-0.1,0.1-0.2,0.2c-0.1,0.1-0.2,0.2-0.3,0.2l0.1,0.1c0.1-0.1,0.2-0.1,0.3-0.1c0.1,0,0.2,0,0.4,0
			c0,0,0,0,0,0.1c0,0,0,0-0.1,0l0,0l0,0c0,0,0,0-0.1,0.1s-0.1,0.1-0.1,0.1l0,0c-0.1,0.1-0.1,0.2-0.1,0.3c0,0.1,0,0.2,0,0.3
			c0,0.1,0,0.2,0,0.4c0,0.1-0.1,0.2-0.2,0.3c0,0.1-0.1,0.1-0.1,0.1s-0.1,0-0.1,0.1c0.1,0,0.1,0.1,0.2,0.1s0.2,0.1,0.2,0.1l0,0l0,0
			c0,0,0,0.1,0,0.1c0,0.1-0.1,0.1-0.1,0.1c0,0,0,0,0,0c0,0,0,0,0,0c0.1-0.2,0.2-0.3,0.3-0.3s0.1,0,0.3,0.2c0,0,0.1,0,0.1,0.1
			c0,0,0,0.1,0.1,0.1c0,0-0.1,0.1-0.1,0.1c0,0.1,0,0.1,0,0.2c0.2-0.1,0.3,0,0.3,0.1C66.1,69.9,66,70,66,70.1c0,0.1,0,0.1,0,0.2
			c0.1,0,0.1,0.1,0.2,0.2s0.1,0.2,0.1,0.5l0,0l0,0c0,0,0,0,0,0s0,0-0.1,0c0,0,0.1,0.1,0.2,0.2c0.1,0.1,0.1,0.2,0.1,0.2
			c0,0,0,0,0,0.1c0,0,0,0.1,0,0.1l0,0c0,0.1,0.1,0.1,0.2,0c0.1-0.1,0.1-0.1,0.2,0l0.1,0.1c0,0-0.1,0-0.1,0c0,0-0.1,0-0.1,0
			c0,0,0,0.1,0,0.1c0,0,0,0.1,0,0.1s0,0,0.1,0l0.1,0c0.1,0.1,0.1,0.2,0.2,0.3s0,0.3-0.1,0.3c-0.1-0.1-0.2-0.2-0.3-0.3
			c-0.1-0.1-0.2-0.2-0.3-0.4l0,0c0.1,0.2,0.1,0.3,0.1,0.4c0,0.1,0,0.3,0,0.4s0,0.2,0,0.4s0,0.3,0.1,0.4c0.1,0,0.3,0,0.4,0
			c0.1-0.1,0.2-0.1,0.3-0.2c0,0,0-0.1,0-0.1c0,0,0-0.1,0.1-0.1c0.1,0.1,0.1,0.2,0.1,0.2c0,0.1-0.1,0.2-0.3,0.4
			c-0.1,0.2-0.2,0.3-0.3,0.3l-0.1,0l0,0c-0.1,0-0.2,0-0.2,0s-0.1,0-0.2,0.1c-0.1,0-0.2,0.1-0.3,0.2s-0.3,0.2-0.3,0.3l0,0l0,0
			c0,0,0-0.1-0.1-0.1c0-0.1,0-0.1-0.1-0.2c0,0,0,0-0.1,0s0,0,0,0.1l-0.1,0.3l-0.6,0.6c0,0-0.1,0-0.1,0c0,0-0.1,0-0.2-0.1
			c-0.1-0.1-0.2-0.1-0.2-0.1l-0.1,0.1c0,0,0-0.1,0-0.1c0-0.1,0-0.2-0.1-0.3c0-0.1,0-0.2-0.1-0.3c0-0.1,0-0.2,0-0.2
			c0-0.1,0-0.2,0.1-0.2C63.8,73.7,63.8,73.6,63.7,73.6z M56.9,64.5c-0.1,0-0.1,0.1-0.1,0.1s0,0.1,0.1,0.1l0,0c0,0,0.1,0,0.1,0
			c0.1,0,0.1,0,0.1,0l0,0c0.1-0.1,0.1-0.2,0-0.3c0-0.1-0.1-0.1-0.2,0C57,64.4,56.9,64.4,56.9,64.5z M57.7,64.2
			C57.7,64.2,57.7,64.2,57.7,64.2c-0.1,0.1-0.1,0.1-0.1,0.1c0,0,0.1,0,0.1,0C57.8,64.3,57.8,64.3,57.7,64.2z M57.9,64.6
			c0,0-0.1,0-0.1,0c0,0-0.1,0.1,0,0.1C57.7,64.8,57.8,64.8,57.9,64.6C57.9,64.7,57.9,64.7,57.9,64.6z M61.4,61l0.3,0l-0.1-0.1
			L61.4,61z M61.7,60.1c-0.1,0.1-0.2,0.2-0.2,0.3c0,0.1,0,0.2,0.1,0.3C61.8,60.5,61.9,60.3,61.7,60.1z M62.3,60.4c0,0-0.1,0.1,0,0.2
			L62.3,60.4L62.3,60.4z M62.8,68.6C62.7,68.6,62.7,68.6,62.8,68.6c-0.1,0-0.1,0.1-0.1,0.1c0,0,0.1,0,0.1,0
			C62.8,68.7,62.8,68.6,62.8,68.6z M62.9,68.2C62.9,68.2,63,68.2,62.9,68.2C62.9,68.2,62.9,68.2,62.9,68.2
			C62.8,68.2,62.8,68.2,62.9,68.2C62.8,68.2,62.9,68.2,62.9,68.2z M63.2,69.1C63.2,69,63.2,69,63.2,69.1
			C63.1,69.1,63.1,69.1,63.2,69.1C63.2,69.1,63.2,69.1,63.2,69.1C63.2,69.1,63.2,69.1,63.2,69.1z M63.3,70L63.3,70l0.1,0L63.3,70
			L63.3,70z M63.8,70.3c-0.1,0-0.1,0-0.1,0c0,0-0.1,0-0.1,0.1c0,0,0,0-0.1,0C63.6,70.5,63.7,70.5,63.8,70.3L63.8,70.3L63.8,70.3z
			 M63.6,72.1l0.1,0L63.6,72.1L63.6,72.1z M63.9,58.8c0,0-0.1,0.1-0.1,0.1c0,0.1-0.1,0.1-0.1,0.1l0,0.1l0,0c0,0,0.1-0.1,0.1-0.2
			S64,58.8,63.9,58.8L63.9,58.8L63.9,58.8z M63.9,57.2c0,0-0.1,0.1-0.1,0.2L63.9,57.2L63.9,57.2z M63.8,71.8L63.8,71.8H64H63.8
			L63.8,71.8z M64,74.2c0,0-0.1,0-0.1,0c0,0-0.1,0.1,0,0.1C63.9,74.4,63.9,74.3,64,74.2C64,74.3,64.1,74.2,64,74.2z M64,71.1
			c-0.1,0.1-0.1,0.2,0,0.3l0.1-0.1L64,71.1z M64.2,72.6c0,0-0.1,0-0.1,0c-0.1,0-0.1,0.1,0,0.1C64.1,72.7,64.1,72.7,64.2,72.6
			C64.2,72.6,64.3,72.6,64.2,72.6z M64.2,58.6C64.2,58.6,64.2,58.6,64.2,58.6C64.1,58.6,64.1,58.6,64.2,58.6
			C64.1,58.6,64.2,58.6,64.2,58.6C64.2,58.6,64.2,58.6,64.2,58.6z M64.4,57.9L64.4,57.9l0.1,0L64.4,57.9L64.4,57.9z M64.4,67.1
			L64.4,67.1l0-0.1L64.4,67.1z M64.5,63.6L64.5,63.6l0-0.1L64.5,63.6z M64.7,64.3C64.7,64.3,64.7,64.3,64.7,64.3
			c-0.1,0-0.2,0.1-0.1,0.1c0,0,0.1,0,0.1,0C64.7,64.4,64.7,64.4,64.7,64.3z M64.7,67.2C64.7,67.2,64.7,67.2,64.7,67.2
			C64.6,67.2,64.6,67.3,64.7,67.2C64.6,67.3,64.7,67.3,64.7,67.2C64.7,67.3,64.7,67.2,64.7,67.2z M64.7,66.1L64.7,66.1l0.2-0.1
			l0-0.1L64.7,66.1z M64.7,65.2l0.1,0l0-0.1L64.7,65.2z M64.8,74.2L64.8,74.2L64.8,74.2L64.8,74.2z M65,62.4c0,0,0,0.1,0,0.2l0.1,0
			L65,62.4z M65,66.4L65,66.4l0.1,0L65,66.4L65,66.4z M65.1,63C65.1,63,65.1,63,65.1,63C65,63,65,63,65.1,63
			C65.1,63.1,65.1,63.1,65.1,63C65.1,63,65.1,63,65.1,63z M65.2,55.5c0,0-0.1,0.1-0.1,0.2c0,0.1,0,0.1,0,0.2l0.2-0.2L65.2,55.5z
			 M65.4,64.7l0.1,0L65.4,64.7L65.4,64.7z M65.5,72.7l0.1,0.1c0,0,0-0.1,0-0.1c0-0.1,0-0.1,0-0.1l0,0L65.5,72.7z M65.6,62.5
			C65.6,62.4,65.6,62.4,65.6,62.5C65.5,62.5,65.5,62.5,65.6,62.5C65.6,62.5,65.6,62.5,65.6,62.5C65.6,62.5,65.6,62.5,65.6,62.5z
			 M65.7,63c0,0-0.1,0-0.1,0c-0.1,0-0.1,0.1,0,0.1C65.6,63.1,65.6,63.1,65.7,63C65.7,63,65.7,63,65.7,63z M65.7,56.6l0.2,0.1
			l0.1-0.1l-0.2-0.1L65.7,56.6z M65.9,73.8c0,0-0.1,0-0.1,0c0,0-0.1,0.1,0,0.1C65.8,73.9,65.9,73.9,65.9,73.8
			C66,73.8,66,73.8,65.9,73.8z M65.9,73.9c0,0-0.1,0-0.1,0s0,0.1,0,0.1c0,0,0.1,0,0.1,0S66,73.9,65.9,73.9z M66.3,63
			C66.3,63,66.3,63,66.3,63c-0.1,0-0.1,0.1-0.2,0.1c0,0-0.1,0.1-0.1,0.1c0,0,0,0,0,0c0,0,0.1,0,0.1-0.1C66.3,63.1,66.3,63,66.3,63z
			 M66.1,56.7c0,0.1,0,0.1,0,0.2c0,0,0.1,0.1,0.1,0.1l0.1-0.1L66.1,56.7z M66.4,72.4C66.4,72.4,66.4,72.3,66.4,72.4
			C66.4,72.3,66.3,72.3,66.4,72.4C66.3,72.4,66.3,72.4,66.4,72.4C66.3,72.4,66.3,72.4,66.4,72.4z M66.5,63.2c-0.1,0-0.1,0.1-0.1,0.1
			s-0.1,0.1,0,0.2c0,0,0,0,0,0c0.1,0,0.1,0,0.2-0.1c0.1-0.1,0.2-0.1,0.2,0l0,0c0,0.1,0,0.1,0,0.2c0,0,0,0.1,0,0.1c0,0,0,0,0,0
			s0.1,0.1,0.1,0.1c0.1-0.1,0.2-0.2,0.2-0.4c0-0.1,0-0.3-0.2-0.4c0,0-0.1,0-0.2,0S66.6,63.1,66.5,63.2z M66.8,54.9
			C66.8,54.8,66.8,54.8,66.8,54.9C66.7,54.9,66.7,54.9,66.8,54.9C66.7,54.9,66.8,54.9,66.8,54.9C66.8,54.9,66.8,54.9,66.8,54.9z
			 M66.9,56.6c-0.1,0-0.1,0.1-0.1,0.2c0,0.1,0,0.2,0.1,0.2c0,0,0.1,0,0.2,0c0.1,0,0.2,0,0.3,0c0.1,0,0.2,0,0.3,0
			c0.1,0,0.2,0,0.2-0.1c0,0,0.1-0.1,0-0.2c-0.1,0-0.1,0-0.2-0.1c-0.1,0-0.2-0.1-0.3-0.1c-0.1,0-0.2-0.1-0.3-0.1
			C67,56.6,67,56.6,66.9,56.6z M67,56.1c0,0-0.1,0.1-0.1,0.1c0,0.1,0,0.1,0,0.1l0.2-0.1L67,56.1z M67.7,55
			C67.8,54.9,67.7,54.9,67.7,55c-0.1,0.1-0.1,0.1-0.1,0.1C67.7,55.1,67.7,55,67.7,55C67.7,55,67.7,55,67.7,55z M67.8,57.3
			c0.1,0,0.1,0,0.1,0c0,0,0.1,0,0.1-0.1c0,0,0-0.1,0.1-0.1c0,0,0-0.1,0-0.2L67.8,57.3z M67.9,55.4C67.9,55.4,67.9,55.4,67.9,55.4
			C67.8,55.4,67.8,55.5,67.9,55.4C67.9,55.5,67.9,55.5,67.9,55.4C68,55.5,68,55.4,67.9,55.4z M68,63.7l0.1-0.1l-0.2,0L68,63.7z
			 M68,55.8L68,55.8l0.3-0.2l-0.1-0.1L68,55.8z M68.7,63.8L68.7,63.8l0-0.1L68.7,63.8z M69.5,64c0-0.1-0.1-0.1-0.2,0
			s-0.2,0.1-0.2,0.1l0.3,0.3c0,0,0.1-0.1,0.2-0.2C69.6,64.1,69.6,64.1,69.5,64z M69.6,56.9c-0.1,0-0.1,0-0.1,0.1c0,0.1,0,0.1,0,0.2
			c0.1,0,0.1,0,0.2,0c0,0,0.1-0.1,0.1-0.1L69.6,56.9z M69.8,64.7c0,0,0,0.1-0.1,0.1s0,0.1-0.1,0.1c0,0,0.1,0,0.1,0c0,0,0.1,0,0.1,0
			c0,0,0.1-0.1,0.1-0.2c0-0.1,0-0.2,0-0.2l0,0C69.8,64.6,69.8,64.6,69.8,64.7C69.8,64.7,69.8,64.7,69.8,64.7L69.8,64.7z M70.3,57.9
			C70.3,57.9,70.3,57.9,70.3,57.9l0,0.2l0,0l0,0l0.4-0.4c0,0-0.1,0-0.2,0.1C70.4,57.8,70.3,57.8,70.3,57.9z M70.5,57.2
			c-0.1,0-0.1,0.1-0.1,0.3l0.1,0C70.6,57.4,70.6,57.4,70.5,57.2z M70.8,60.1C70.8,60.1,70.8,60.1,70.8,60.1
			C70.7,60,70.7,60,70.8,60.1C70.7,60.1,70.7,60.1,70.8,60.1C70.7,60.1,70.8,60.1,70.8,60.1z M70.9,56.6c0,0-0.1,0-0.1,0
			c-0.1,0-0.1,0.1,0,0.1C70.8,56.7,70.9,56.7,70.9,56.6C71,56.6,71,56.6,70.9,56.6z M70.9,57c0,0,0,0.1-0.1,0.1s0,0.1,0,0.1l0.2-0.1
			L70.9,57z M71.1,58.5c-0.1,0.1-0.2,0.2-0.2,0.2c-0.1,0.1-0.1,0.2,0.1,0.3c0,0,0,0,0.1-0.1c0.1-0.1,0.1-0.1,0.2-0.2
			c0.1-0.1,0.1-0.1,0.1-0.2c0-0.1,0-0.2,0-0.2c0,0,0,0.1-0.1,0.1C71.2,58.4,71.1,58.5,71.1,58.5z M71.2,64.2c0,0-0.1,0.1-0.1,0.1
			c0,0,0,0.1,0,0.2l0,0c0,0,0,0,0.1,0c0,0,0.1,0,0.1,0l0.4-0.4c-0.1,0-0.2,0-0.3-0.1C71.4,64.1,71.3,64.2,71.2,64.2z M71.6,57.9
			C71.5,57.9,71.5,57.9,71.6,57.9c-0.1,0.1-0.1,0.1-0.1,0.2c0,0,0.1,0,0.1-0.1C71.6,58,71.6,57.9,71.6,57.9z M71.8,58.3
			c-0.1-0.1-0.1-0.1-0.2-0.1c-0.1,0-0.1,0.1-0.2,0.1c0.1,0.1,0.1,0.1,0.2,0.1C71.7,58.4,71.8,58.4,71.8,58.3z M72,60.3
			c0,0-0.1-0.1-0.2-0.1c-0.1,0-0.1,0-0.2,0l0.1,0.2L72,60.3z M71.7,63.7c0,0,0,0,0,0.1l0,0l0,0L71.7,63.7L71.7,63.7L71.7,63.7z
			 M72.1,61C72,61,72,61,72.1,61c-0.1,0.1-0.1,0.1-0.1,0.1c0,0,0.1,0,0.1,0C72.1,61.1,72.1,61,72.1,61z M72,64.3l0.1,0.1l0.1-0.1
			l-0.1-0.1L72,64.3z M72.3,58.1C72.3,58,72.3,58,72.3,58.1C72.2,58.1,72.2,58.1,72.3,58.1C72.3,58.1,72.3,58.1,72.3,58.1
			C72.4,58.1,72.4,58.1,72.3,58.1z M72.8,61.3l-0.3,0.2c0,0,0,0,0,0c0,0,0.1,0,0.2,0c0.1,0,0.2,0,0.2,0c0,0,0,0,0-0.1
			C72.9,61.5,72.9,61.4,72.8,61.3L72.8,61.3L72.8,61.3z M72.5,62.1L72.5,62.1C72.5,62.2,72.5,62.2,72.5,62.1c0.1,0,0.2,0.1,0.2,0.1
			s0.1,0,0.1,0.1c0,0,0-0.1,0-0.1c0,0,0-0.1-0.1-0.1l0,0l0,0L72.5,62.1z M72.6,64.1c-0.1,0.1-0.1,0.2,0,0.4c0.1-0.1,0.2-0.3,0.1-0.5
			C72.8,64,72.7,64,72.6,64.1C72.7,64,72.7,64,72.6,64.1L72.6,64.1z M72.8,62.3C72.8,62.3,72.7,62.3,72.8,62.3
			c-0.1,0-0.2,0.1-0.1,0.1C72.7,62.5,72.7,62.5,72.8,62.3C72.8,62.4,72.8,62.4,72.8,62.3z M73,62.6c-0.1,0.1-0.1,0.1-0.2,0.2
			c0,0.1,0,0.2,0.1,0.3v0c0.1-0.1,0.1-0.2,0.2-0.3s0.1-0.2,0.2-0.3l0,0c-0.1-0.1-0.1-0.1-0.2,0S73,62.6,73,62.6z M73,60.9
			c0,0-0.1,0-0.1,0s0,0.1,0,0.1c0,0,0.1,0,0.1,0C73,61,73,60.9,73,60.9z M73.1,63.4C73.1,63.4,73.1,63.4,73.1,63.4
			C73.1,63.3,73,63.3,73.1,63.4C73,63.4,73,63.4,73.1,63.4C73,63.4,73.1,63.4,73.1,63.4z M73.1,62L73.1,62l0.1-0.1L73.1,62z
			 M73.5,60.9c0.1,0.1,0.1,0.2,0.1,0.3c0,0.1,0,0.1-0.1,0.2c0,0.1-0.1,0.1-0.1,0.2c0,0,0,0.1,0,0.2l0.2,0l0.3-0.5l0,0c0,0,0,0,0,0
			c0,0,0,0,0,0l0,0c0,0-0.1,0-0.2-0.1C73.6,60.9,73.5,60.9,73.5,60.9z M73.6,62.2c0.1,0.1,0.1,0.2,0.1,0.2s0,0.1,0,0.1
			c0,0-0.1,0.1-0.1,0.1c0,0.1,0,0.1,0,0.2l0.6-0.5c-0.1-0.1-0.2-0.1-0.3-0.2C73.8,62.1,73.7,62.1,73.6,62.2z M73.8,60.6
			C73.8,60.6,73.7,60.6,73.8,60.6c-0.1,0-0.1,0.1-0.1,0.1c0,0,0.1,0,0.1,0C73.8,60.7,73.8,60.7,73.8,60.6z M74.4,62
			C74.4,62,74.4,61.9,74.4,62C74.3,61.9,74.3,61.9,74.4,62C74.3,61.9,74.3,62,74.4,62C74.3,62,74.3,62,74.4,62z"/>
		<path class="st2" d="M68.8,75c0.4-0.4,0.9-0.7,1.4-1s1.1-0.5,1.6-0.4c0.1,0,0.2,0,0.2,0c0.1,0,0.2,0,0.3,0.1l-0.1,0.1l-0.1-0.1
			l-0.1,0.1c0,0,0,0.1,0.1,0.2s0.1,0.2,0.1,0.2l0,0.1c0,0,0.1,0.1,0.3,0.3c0.1,0.2,0.2,0.3,0.2,0.4c0,0,0,0.1,0,0.1
			s-0.1,0.1-0.1,0.1c0,0.1,0,0.1,0,0.2c0,0,0,0,0.1,0.1s0,0,0,0c0,0,0,0.1-0.1,0.2c0,0-0.1,0.1-0.2,0.2c-0.1,0.1-0.2,0.2-0.2,0.3
			l0,0l0,0c-0.1,0-0.1,0.1-0.2,0.2c-0.1,0.1-0.2,0.1-0.2,0.1c0,0-0.1,0-0.1,0s-0.1,0-0.1,0c-0.1,0-0.1,0-0.2,0s-0.1,0.1-0.2,0.1
			s-0.1,0.1-0.2,0.1c-0.1,0-0.1,0-0.2-0.1c-0.1-0.1-0.1-0.2-0.1-0.4c0-0.1-0.1-0.3-0.2-0.4l-0.2-0.2l0.1,0.4c-0.2,0-0.3,0.1-0.5,0.1
			c-0.1,0-0.3,0.1-0.4,0.1c-0.1,0-0.3,0-0.4,0c-0.1,0-0.3-0.2-0.4-0.3c-0.1-0.1-0.1-0.2,0-0.4S68.7,75.1,68.8,75z M68.7,76.1
			c0,0,0,0.1,0,0.1s-0.1,0.1-0.1,0s0-0.1,0-0.1S68.7,76,68.7,76.1z M69.5,75.9c-0.1-0.1-0.1-0.1-0.2-0.2c-0.1,0-0.2,0-0.3,0.1
			l0.3,0.3L69.5,75.9z M69.6,75.8c0.1,0,0.2,0,0.2,0l-0.1-0.1L69.6,75.8z M70.7,75.3L70.7,75.3L70.7,75.3L70.7,75.3z M70.8,76.1
			L70.8,76.1L70.8,76.1L70.8,76.1z M71,74.6c0,0-0.1,0-0.1,0s0,0.1,0,0.1c0,0,0.1,0,0.1,0S71.1,74.7,71,74.6z M72.5,74
			c0,0.1,0,0.1,0,0.1s-0.1,0-0.1,0c0,0,0-0.1,0-0.1S72.5,73.9,72.5,74z M75.5,68.4c0.2-0.2,0.5-0.5,0.8-0.8s0.6-0.6,0.7-1l2.3-2.2
			c0.1-0.1,0.2-0.2,0.3-0.1c0.1,0,0.2,0,0.3-0.1c0.1-0.1,0.1-0.1,0.1-0.2s0-0.1,0-0.2c0.2-0.1,0.3-0.2,0.3-0.1c0.1,0,0.2,0,0.4,0
			c0,0,0.1,0,0.2-0.1c0.1,0,0.1-0.1,0.2-0.1s0.1-0.1,0.2-0.1s0.1,0,0.2,0c0,0,0,0.1,0.1,0.1c0,0,0,0.1,0,0.2c0,0.1,0,0.2,0,0.2
			c0,0,0,0,0,0c0,0,0,0,0,0c0,0,0,0,0.1,0s0.1,0,0.1,0c0,0,0-0.1-0.1-0.2s-0.1-0.2-0.1-0.2l0.1-0.1c0,0,0.1,0.1,0.2,0.2
			c0.1,0.1,0.2,0.2,0.2,0.3c0.1,0.1,0.1,0.2,0.2,0.4s0,0.2,0,0.3c0,0-0.1,0.1-0.2,0.2C82.1,65,82,65.1,82,65.1c0,0,0,0.1,0,0.1
			c0.1,0.1,0.1,0.1,0.2,0.1c0,0,0.1,0,0.1,0c0,0,0.1,0,0.1,0c0,0,0.1,0,0.1,0.1c0,0,0,0.1,0,0.2c0,0.1,0,0.2-0.1,0.3
			c0,0.1-0.1,0.2-0.2,0.3c-0.1,0.1-0.1,0.2-0.1,0.2c-0.2,0.1-0.3,0.2-0.6,0.3c-0.2,0.1-0.4,0.2-0.6,0.3c-0.1,0.1-0.1,0.1-0.1,0.1
			s0,0.1,0,0.1c0,0,0,0.1,0,0.1c0,0,0,0.1-0.1,0.1l-0.1,0.1c-0.2,0.1-0.4,0.2-0.7,0.3s-0.5,0.3-0.6,0.4l0,0.1
			c-0.2,0.2-0.4,0.4-0.6,0.7c-0.2,0.2-0.4,0.5-0.6,0.6c-0.1,0.1-0.3,0.2-0.5,0.3c-0.2,0.1-0.4,0.2-0.5,0.3c-0.1,0-0.2,0.1-0.4,0.2
			c-0.2,0.1-0.3,0.2-0.4,0.2c0,0,0-0.1,0-0.2c0-0.1,0-0.1,0-0.1l0,0l0,0c0,0,0.1-0.1,0.2-0.1c0.1,0,0.2-0.1,0.2-0.1l0,0l0,0
			c-0.1,0-0.2-0.1-0.4-0.1c-0.2,0-0.3,0-0.4,0.1c-0.1,0.1-0.1,0.1-0.1,0.2c0,0.1,0,0.1,0,0.2s0,0.1,0,0.2c0,0.1-0.1,0.2-0.1,0.2
			c-0.1-0.1-0.1-0.1-0.1-0.2c0-0.1,0-0.1,0-0.2c0-0.1,0-0.1,0-0.2c0-0.1,0-0.1,0-0.2l-0.6,0.6l-0.1-0.1c0,0,0,0-0.1-0.1
			c0,0,0,0,0-0.1c0,0,0-0.1,0-0.1c0-0.1-0.1-0.1-0.1-0.1c-0.1-0.1-0.1,0-0.2,0c-0.1,0.1-0.2,0.1-0.3,0.1l0-0.1
			c-0.1-0.1,0-0.2,0.1-0.4c0.1-0.2,0.3-0.4,0.4-0.6c0.2-0.2,0.3-0.4,0.5-0.6S75.6,68.4,75.5,68.4z M75.5,70.2c0,0-0.1,0-0.1,0
			s0,0.1,0,0.1c0,0,0.1,0,0.1,0S75.6,70.3,75.5,70.2z M75.7,71l-0.2,0L75.7,71L75.7,71z M75.9,68.2c0,0-0.1,0-0.1,0.1
			c-0.1,0.1-0.1,0.1,0,0.1C75.8,68.3,75.9,68.3,75.9,68.2z M76.4,71C76.3,71.1,76.3,71,76.4,71C76.3,70.9,76.3,70.9,76.4,71
			C76.4,71,76.4,71,76.4,71z M77.3,69.5c-0.1-0.1-0.2-0.1-0.3,0c0,0,0.1,0.1,0.1,0.1C77.1,69.6,77.2,69.6,77.3,69.5L77.3,69.5z
			 M77.7,66.3c0,0-0.1,0-0.1,0s0,0.1,0,0.1c0,0,0.1,0,0.1,0C77.7,66.4,77.7,66.3,77.7,66.3z M77.8,67.2c0-0.1-0.1-0.1-0.1,0
			c0,0,0,0.1,0,0.1C77.7,67.3,77.8,67.3,77.8,67.2C77.8,67.2,77.9,67.2,77.8,67.2z M77.9,69.6L77.9,69.6L77.9,69.6L77.9,69.6z
			 M79.9,67h0.2L80,67L79.9,67z M80.5,63.9C80.4,63.9,80.4,63.8,80.5,63.9C80.4,63.9,80.4,63.9,80.5,63.9C80.4,64,80.4,64,80.5,63.9
			C80.5,63.9,80.5,63.9,80.5,63.9z M80.4,67.1L80.4,67.1l0-0.1L80.4,67.1z M80.5,67.3C80.5,67.3,80.5,67.3,80.5,67.3
			C80.4,67.2,80.4,67.2,80.5,67.3C80.4,67.3,80.4,67.3,80.5,67.3z M80.6,66.9C80.6,66.9,80.7,66.9,80.6,66.9c0.1,0,0.2,0,0.2-0.1
			c0.1,0,0.1-0.1,0.1-0.1s0-0.1,0-0.1c0,0,0,0,0,0c0,0,0,0,0,0l0,0L80.6,66.9z M81.2,64.8c0,0-0.1,0-0.1,0s0,0.1,0,0.1
			c0,0,0.1,0,0.1,0S81.2,64.8,81.2,64.8z M81.1,64.2C81.2,64.2,81.2,64.2,81.1,64.2C81.1,64.1,81.1,64.1,81.1,64.2
			C81.1,64.2,81.1,64.2,81.1,64.2C81.1,64.2,81.1,64.2,81.1,64.2z M81.5,65.2C81.5,65.2,81.5,65.2,81.5,65.2c0.1,0,0.1,0,0.1,0l0,0
			l0,0L81.5,65.2z M82,64.6c-0.1-0.1-0.2-0.1-0.3,0C81.8,64.7,81.8,64.7,82,64.6L82,64.6z M82.8,65.3C82.8,65.3,82.7,65.3,82.8,65.3
			C82.7,65.3,82.7,65.2,82.8,65.3C82.7,65.2,82.8,65.2,82.8,65.3C82.8,65.3,82.8,65.3,82.8,65.3z M83,65L83,65
			c-0.1,0.1-0.2,0.1-0.2,0l0,0l0,0L83,65L83,65z"/>
	</g>
</g>
</svg>
