<?xml version="1.0" encoding="utf-8"?>
<!-- Generator: Adobe Illustrator 25.3.1, SVG Export Plug-In . SVG Version: 6.00 Build 0)  -->
<svg version="1.1" id="Layer_1" xmlns="http://www.w3.org/2000/svg" xmlns:xlink="http://www.w3.org/1999/xlink" x="0px" y="0px"
	 viewBox="0 0 90 80" style="enable-background:new 0 0 90 80;" xml:space="preserve">
<style type="text/css">
	.st0{fill:#D3D3D3;}
	.st1{enable-background:new    ;}
	.st2{fill:#B8B8B8;}
</style>
<rect class="st0" width="90" height="80"/>
<g>
	<g class="st1">
		<path class="st2" d="M5.8,13.2C5.9,13.3,5.9,13.3,5.8,13.2C5.8,13.3,5.8,13.3,5.8,13.2C5.7,13.3,5.8,13.3,5.8,13.2
			C5.8,13.2,5.8,13.2,5.8,13.2z M6.5,13c0,0,0,0.1,0,0.1s-0.1,0.1-0.2,0c0-0.1,0-0.1,0-0.2C6.4,13,6.5,13,6.5,13z M7.1,12.6
			c0,0,0.1,0,0.3-0.1c0.2,0,0.2-0.1,0.3-0.1c0,0,0.1-0.1,0.2-0.2C7.9,12,8,12,8,11.9c0,0,0.1-0.1,0.2-0.3c0.1-0.1,0.2-0.2,0.3-0.3
			c0,0,0.1-0.1,0.1-0.1c0.1-0.1,0.1-0.1,0.2-0.1c0,0,0,0,0-0.1c0-0.1-0.1-0.1,0-0.1c0,0,0-0.1,0.1-0.1c0-0.1,0.1-0.1,0.1-0.1
			c0,0,0.1-0.1,0.2-0.3c0.2-0.2,0.2-0.2,0.2-0.3c0,0,0,0,0-0.1c0,0,0-0.1,0-0.1c0,0,0,0,0-0.1c0-0.1,0.1-0.1,0.1-0.1c0,0,0,0,0-0.1
			c0,0,0-0.1,0-0.1l0,0l0,0c0,0,0,0,0,0c0,0-0.1,0-0.2-0.1c-0.1,0-0.1-0.1-0.1-0.1c0,0,0,0,0-0.1c0,0,0-0.1,0-0.1l1.2-1
			c0,0,0.1-0.1,0.3-0.1s0.4-0.1,0.5-0.1c0,0,0.1,0,0.2,0c0.1,0,0.1,0,0.2,0l0,0l0,0c0,0,0.1-0.1,0.1-0.2c0-0.1,0.1-0.1,0.1-0.2
			c0,0,0.1-0.1,0.1-0.3c0-0.1,0.1-0.2,0.1-0.2c0,0,0.1-0.1,0.2-0.2c0.1-0.1,0.2-0.2,0.2-0.3c0,0,0,0,0.1-0.1c0.1,0,0.1-0.1,0.1-0.1
			c0,0,0.1-0.1,0.2-0.2c0.1-0.1,0.2-0.2,0.3-0.3c0.1-0.1,0.2-0.2,0.3-0.3c0.1-0.1,0.1-0.2,0.2-0.2c0,0,0,0,0.1-0.1
			C13.8,5,13.9,5,13.9,5s0,0,0.1,0c0,0,0,0,0.1,0l0.1-0.1c0,0,0.2,0,0.3,0c0.2,0,0.3,0,0.4,0l0,0c0,0,0,0,0,0c0,0,0,0,0,0l0,0l0,0
			c0,0,0,0.1,0,0.2c0,0.1,0,0.2,0,0.2c0,0,0.1,0,0.3,0c0.2,0,0.3,0,0.3,0c0,0,0.1,0,0.2-0.1s0.1-0.1,0.1-0.1L16,5.3l0,0
			c0,0,0,0.1,0.1,0.2c0.1,0.1,0.1,0.2,0.1,0.2c0,0-0.1,0-0.2,0c-0.1,0-0.2,0-0.2,0l-0.1,0l0,0c0,0,0,0.1,0,0.1c0,0,0,0.1,0,0.1
			c0,0,0,0.1,0,0.2s0,0.1,0,0.2c0,0,0,0.1,0,0.1c0,0,0,0.1,0,0.1c0,0-0.1,0-0.2,0c-0.1,0-0.2,0-0.2,0l0,0l0,0c0,0-0.1,0.1-0.1,0.1
			c0,0.1-0.1,0.1,0,0.1c0,0,0,0,0,0l0,0L15.2,7h0.1c0,0,0,0,0,0s0,0,0,0c0,0,0.1,0,0.1,0c0.1,0,0.1,0,0.1-0.1c0,0,0,0.1,0,0.2
			c0,0.1,0,0.1,0,0.2c0,0,0,0.1,0.1,0.2c0,0.1,0.1,0.1,0.1,0.2h0l-0.5-0.2l-0.1,0l0,0c0,0,0,0,0,0c0,0,0,0,0,0.1c0,0.1,0,0.1,0,0.1
			c0,0,0,0-0.1,0c-0.1,0-0.1,0-0.1,0c0,0-0.1,0-0.2-0.1c-0.1,0-0.2-0.1-0.2,0c0,0,0,0-0.1,0s-0.1,0.1-0.1,0.1c0,0-0.1,0.1-0.1,0.1
			C14.1,7.9,14,8,14,8c0,0,0.1,0,0.2,0c0.1,0,0.2,0,0.3,0l0.1,0.1c0,0,0.1,0.1,0.1,0.1c0,0,0.1,0,0.2,0c0.1,0,0.1,0,0.2,0
			c0,0,0,0,0,0c0,0,0,0,0,0c0,0-0.1,0.1-0.3,0.3c-0.2,0.1-0.3,0.2-0.3,0.3c0,0-0.1,0.1-0.2,0.3c-0.1,0.1-0.2,0.2-0.3,0.3
			c0,0,0,0.1-0.1,0.1c0,0.1-0.1,0.1,0,0.1c0,0,0,0,0,0l0,0l0,0c0,0,0.1,0,0.1,0c0,0,0.1,0,0.1,0c0,0,0,0,0.1,0c0,0,0,0,0.1,0l0.1,0
			c0,0,0.1,0.1,0.2,0.1c0.1,0.1,0.1,0.1,0.2,0.1l0,0.1l0,0.1c0,0,0,0.1-0.1,0.1s-0.1,0.1-0.1,0.1c0,0,0.1,0,0.2,0
			c0.1,0,0.2,0.1,0.2,0.1l0,0c0,0,0,0,0,0c0,0,0,0,0,0l0,0c0,0,0,0.1,0.1,0.2c0.1,0.1,0.1,0.2,0.1,0.3c0,0,0.1,0.1,0.2,0.2
			c0.1,0.1,0.2,0.2,0.3,0.3c0,0,0.1,0,0.2,0.1c0.1,0.1,0.2,0.1,0.2,0.1l0,0l0.1,0.1l0,0.1c0,0.1,0,0.1,0,0.2c0,0,0,0-0.1,0.1
			s-0.1,0.1-0.2,0.2c-0.1,0.1-0.1,0.2-0.2,0.2s-0.1,0.1-0.1,0.1c0,0,0,0,0,0.1c0,0,0,0,0,0C15.9,13,16,13,16,13c0,0,0.1-0.1,0.2-0.2
			s0.2-0.1,0.2-0.1c0,0,0,0,0,0c0,0,0,0,0,0c0,0,0,0.1,0,0.1c0,0.1-0.1,0.1-0.1,0.1c0,0-0.1,0.1-0.2,0.2c-0.1,0.1-0.2,0.2-0.2,0.2
			c0,0,0.1,0,0.1,0c0.1,0,0.1,0,0.1,0c0,0,0.1,0,0.2-0.1c0.1,0,0.2,0,0.2,0c0,0,0.1,0,0.1-0.1c0.1,0,0.1,0,0.1,0
			c0,0,0.1-0.1,0.1-0.1s0.1-0.1,0.1-0.1l0,0.1c0,0-0.1,0.1-0.2,0.2c-0.1,0.1-0.2,0.2-0.2,0.3c0,0.1-0.1,0.2-0.1,0.4s0,0.4,0,0.4
			c0,0,0.1,0,0.1,0.1c0.1,0,0.1,0,0.1,0c0,0,0.1,0,0.1,0c0,0,0,0.1,0,0.1c0.1,0,0.2,0,0.5,0c0.2,0,0.4,0,0.5,0.1c0,0,0.1,0,0.1,0
			s0.1,0,0.1-0.1l0.1,0c0,0,0,0,0.1,0c0,0-0.1,0.1-0.2,0.2S18,15,18,15c0,0,0,0.1,0,0.1c0,0,0,0,0,0c0,0,0,0,0,0s0,0,0,0
			c0.1,0,0.1,0,0.2,0l0,0c0,0,0,0,0,0s0,0,0,0c0,0,0,0,0,0c0,0,0,0,0,0c0,0,0,0,0,0v0.2l0,0l0,0c0,0,0.1,0,0.1,0s0.1,0,0.1-0.1
			l0.1,0.3l0.9,0.2l0.3-0.3c0,0,0,0,0,0.1c0,0,0,0.1,0,0.1c0,0,0,0.1,0,0.1c0,0.1,0,0.1-0.1,0.1c0,0-0.1,0.1-0.2,0.3
			c-0.1,0.1-0.2,0.2-0.2,0.2c0,0,0,0.1-0.1,0.1c0,0.1,0,0.1,0,0.1l0,0l0,0c0,0,0,0,0,0c0,0,0,0,0.1,0.1c0.1,0,0.1,0.1,0.1,0.1
			c0,0-0.1,0-0.1,0c-0.1,0-0.1,0-0.1,0c-0.1,0-0.2,0-0.4,0c-0.2,0-0.3,0-0.3,0c0,0-0.1,0-0.1-0.1c0,0-0.1-0.1-0.2-0.1
			c-0.1,0-0.1-0.1-0.1-0.1c0,0-0.1-0.1-0.1-0.1c0,0-0.1-0.1-0.2-0.1c-0.1,0-0.2-0.1-0.2,0c0,0-0.1,0-0.2,0c-0.1,0-0.1,0.1-0.2,0.1
			c0,0-0.1,0-0.2,0s-0.2,0-0.3,0c0,0-0.1,0-0.2,0c-0.1,0-0.1,0-0.2,0c0,0-0.1,0-0.1-0.1c-0.1,0-0.1,0-0.1,0c0,0-0.1,0-0.2,0
			c-0.1,0-0.2,0-0.2,0c0,0-0.1,0-0.2-0.1s-0.1-0.1-0.2-0.1c0,0-0.1,0-0.1,0c-0.1,0-0.1,0-0.1-0.1c0,0,0-0.1,0-0.2c0-0.1,0-0.1,0-0.2
			l-0.7-0.9c0,0,0-0.1,0-0.2s0-0.2,0-0.2l0,0c0,0,0,0,0,0c0,0-0.1,0-0.2,0c-0.1,0-0.2,0-0.2,0l-0.1-0.1c0,0,0,0,0-0.1
			c0,0,0-0.1,0-0.1c0,0,0-0.1,0-0.2c0-0.1,0-0.2,0-0.2l0,0c0,0,0,0,0,0c0,0,0,0,0,0c0,0,0,0-0.1,0c0,0-0.1,0-0.1,0c0,0-0.1,0-0.2,0
			c-0.1,0-0.1,0-0.1,0l-0.1,0c0,0,0,0,0,0c0,0,0,0,0,0c0,0,0.1-0.1,0.2-0.3c0.1-0.1,0.2-0.2,0.2-0.2c0,0,0-0.1,0-0.1
			c0-0.1,0.1-0.1,0.1-0.1c0,0,0.1,0,0.1-0.1c0,0,0.1,0,0.1-0.1c0,0,0,0,0-0.1c0,0,0-0.1,0-0.1c0,0-0.1,0-0.2,0c-0.1,0-0.1,0-0.2,0
			c0,0-0.1,0.1-0.3,0.2c-0.2,0.1-0.3,0.2-0.3,0.2c0,0-0.1-0.1-0.1-0.2c-0.1-0.1-0.1-0.1-0.2-0.1c0,0,0,0-0.1,0c-0.1,0-0.1,0-0.1,0
			c0,0,0,0-0.1,0c-0.1,0-0.1,0-0.1-0.1l0,0c0,0,0,0,0,0c0,0,0,0,0,0c0,0,0-0.1,0.1-0.2c0.1-0.1,0.1-0.1,0.1-0.1c0,0,0,0,0-0.1
			c0,0,0,0,0-0.1c0,0,0,0,0,0l-0.1-0.1c0,0-0.1,0-0.1,0c-0.1,0-0.1,0-0.2,0c-0.1,0-0.2,0-0.2,0c-0.1,0-0.1,0-0.1,0c0,0-0.1,0-0.2,0
			c-0.1,0-0.2,0-0.2-0.1c0,0-0.1,0-0.1-0.1c0-0.1,0-0.1-0.1-0.1l-0.5,0.4l0.3,0.3c0,0-0.1,0.1-0.2,0.1c-0.1,0-0.1,0.1-0.2,0.1
			c0,0-0.1,0-0.2,0c-0.1,0-0.1,0-0.2,0c0,0-0.1,0-0.2,0.1c-0.1,0-0.1,0-0.1,0c0,0,0,0-0.1,0c0,0-0.1,0-0.1,0.1l-0.1,0.1
			c0,0,0,0.1,0,0.1l0,0.1c0,0-0.1,0.1-0.1,0.1c0,0.1-0.1,0.1-0.2,0.2C9,13.5,9,13.6,8.9,13.6c-0.1,0.1-0.1,0.1-0.1,0.1l0.4,0.1
			l-0.7,0.6c0,0-0.1,0-0.1,0s-0.1,0-0.1,0c0,0-0.1,0-0.3,0.1c-0.1,0.1-0.2,0.1-0.3,0.2c0,0,0,0,0,0l0,0c0,0,0-0.1,0-0.1
			c0-0.1,0-0.1,0-0.1s0-0.1,0-0.1c0-0.1,0-0.1,0-0.2c0,0-0.1,0-0.2,0c-0.1,0-0.1,0-0.1,0H7.3H7.2c0,0-0.1,0-0.1,0
			c-0.1,0-0.1,0-0.2,0L7,14.1c0,0,0,0,0-0.1c0-0.1,0-0.1-0.1-0.2c0-0.1,0-0.1-0.1-0.2c0-0.1,0-0.1,0-0.1c0-0.1,0-0.1,0-0.3
			c0-0.1,0-0.2,0.1-0.3c0,0,0.1-0.1,0.1-0.2S7,12.6,7.1,12.6z M7.1,14.5l-0.1,0l-0.1-0.1L7.1,14.5L7.1,14.5z M7.2,12.1
			c0,0.1,0,0.1,0,0.2c-0.1,0.1-0.1,0.1-0.1,0c-0.1-0.1,0-0.1,0-0.2C7.1,12.1,7.2,12.1,7.2,12.1z M8.1,15C8,15,8,15,8.1,15
			C8,15,8,15,8.1,15C8,14.9,8,14.9,8.1,15C8.1,15,8.1,15,8.1,15z M9.3,11.4c0,0-0.1,0-0.1,0s-0.1,0.1,0,0.1c0,0.1,0.1,0.1,0.1,0
			C9.3,11.5,9.3,11.4,9.3,11.4z M9.7,10.8c0-0.1-0.1-0.1-0.3,0c-0.1,0.1-0.2,0.1-0.1,0.1c0,0,0.1,0,0.1,0c0.1,0,0.1,0,0.2,0
			C9.6,11,9.7,11,9.7,10.8C9.7,10.9,9.7,10.9,9.7,10.8z M9.9,8.9C9.9,8.9,9.9,8.9,9.9,8.9C9.8,8.9,9.8,9,9.9,8.9
			C9.8,9,9.9,9,9.9,8.9C9.9,9,9.9,9,9.9,8.9z M10.1,11.7l0.3-0.2l-0.1-0.1L10.1,11.7z M11.4,8c0,0-0.1,0-0.2,0
			c-0.1,0.1-0.1,0.1,0,0.1c0,0,0.1,0,0.1,0C11.4,8.1,11.4,8,11.4,8z M12.6,11.9C12.6,11.9,12.6,11.9,12.6,11.9c0.1,0,0.2,0,0.2,0
			c0,0,0,0,0.1,0c0,0,0.1,0,0.1,0c0,0,0,0,0-0.1c0,0-0.1,0-0.1,0c0,0-0.1,0-0.1,0c0,0,0,0,0,0L12.6,11.9z M13.1,11.8L13.1,11.8h0.2
			H13.1L13.1,11.8z M14.2,8.6L14.2,8.6l0-0.2L14.2,8.6z M15.1,4.4c0,0.1,0,0.1,0,0.2s-0.1,0-0.2,0c0,0,0-0.1,0-0.1
			C15,4.4,15.1,4.4,15.1,4.4z M15.1,14.2C15.1,14.2,15.1,14.2,15.1,14.2C15,14.3,15,14.3,15.1,14.2C15,14.3,15,14.3,15,14.4
			c0,0,0,0.1,0,0.1L15.1,14.2L15.1,14.2z M15.3,13.2c0-0.1-0.1-0.1-0.2,0c-0.1,0.1-0.1,0.1,0,0.2c0,0,0.1,0,0.2,0
			C15.3,13.3,15.3,13.3,15.3,13.2z M15.4,14.7c0,0-0.1,0-0.1,0c-0.1,0.1-0.1,0.1,0,0.1c0,0.1,0.1,0.1,0.1,0
			C15.4,14.9,15.4,14.8,15.4,14.7z M15.5,12.2L15.5,12.2l0.2,0L15.5,12.2z M15.9,13.9L15.9,13.9l0.3,0L15.9,13.9z M16,11.9
			C15.9,11.9,15.9,11.9,16,11.9c0,0.1,0,0.2,0,0.2l0.2,0l0-0.2C16.1,11.9,16.1,11.8,16,11.9L16,11.9z M16,6c0,0,0.1,0,0.2,0
			c0.1,0,0.2,0,0.3,0c0.1,0,0.2,0,0.3,0c0.1,0,0.2,0,0.2,0c0,0,0.1,0,0.2,0c0.1,0,0.2-0.1,0.2-0.1l0,0l0,0c0,0,0,0-0.1,0
			c-0.1,0-0.1-0.1-0.1-0.1c0,0-0.1,0-0.2,0c-0.1,0-0.2,0-0.2,0c0,0,0-0.1,0-0.2c0-0.1,0-0.2,0-0.2c0,0,0,0,0,0l0,0c0,0,0,0,0.1,0
			c0,0,0.1,0,0.1,0c0,0,0,0,0.1,0s0.1,0,0.1,0c0.1,0,0.1,0,0.2,0c0,0,0.1,0,0.1,0c0.1,0,0.1,0.1,0.1,0c0,0,0.1,0,0.1,0
			c0.1,0,0.1,0,0.2,0c0,0,0.1,0,0.2-0.1C18.3,5,18.3,5,18.3,5c0,0,0.1,0,0.2,0s0.2,0,0.2,0c0,0,0,0,0.1,0.1c0,0,0.1,0.1,0.1,0.1
			l-0.3,0.3c0,0,0,0,0,0l0,0c0,0,0,0,0,0c0,0,0.1,0,0.3,0c0.1,0,0.2,0,0.3,0l0.6,0.8c0,0,0,0,0.1,0c0,0,0.1,0,0.1,0
			c0,0,0.1,0,0.1,0.1c0.1,0,0.1,0.1,0.1,0c0,0,0.1,0,0.1,0c0.1,0,0.1,0,0.1,0c0,0,0,0,0.1,0c0,0,0,0,0.1,0c0,0,0.1,0.1,0.1,0.1
			c0.1,0.1,0.1,0.1,0.1,0.2c0,0,0,0,0.1,0c0.1,0,0.1,0,0.1,0c0,0,0.1,0,0.1,0.1c0,0.1,0.1,0.1,0.1,0.2c0,0,0,0-0.1,0c0,0,0,0,0,0
			c0,0,0,0,0,0S21.1,7,21.1,7c-0.1,0-0.1,0-0.1-0.1c0,0-0.1,0-0.1,0s-0.1,0-0.1,0L20.7,7c0,0,0,0,0,0.1c0,0.1,0,0.1,0,0.1
			c0,0,0.1,0,0.1,0c0.1,0,0.1,0,0.1,0.1c0,0,0,0,0.1,0.1c0,0,0.1,0.1,0.1,0.1c0,0.1,0.1,0.1,0.1,0.2l0,0.1c0,0.1,0,0.1,0,0.1
			c0,0,0.1,0,0.1,0.1c0.1,0,0.1,0,0.1,0c0,0,0,0,0.1,0.1c0,0.1,0.1,0.1,0.1,0.1c0.1,0,0.2,0.1,0.4,0.2c0.2,0.1,0.3,0.2,0.4,0.2
			c0,0,0,0.1,0,0.1s0,0.1,0,0.1c0,0,0.1,0,0.1,0.1s0.1,0,0.1,0.1c0,0,0,0,0,0l0,0L23,9.1c0,0,0.1,0,0.1,0c0.1,0,0.1,0.1,0.1,0.1
			c0,0,0,0,0,0.1l0,0.1c0,0,0,0-0.1,0.1c-0.1,0-0.1,0.1-0.1,0.1c0,0,0,0.1,0,0.2l0,0l0,0c0,0,0.1,0,0.1,0c0.1,0,0.1,0,0.1,0.1
			c0,0,0.1,0,0.2-0.1c0.1,0,0.2,0,0.2,0c0,0,0,0,0,0c0,0,0,0,0,0l0.1,0c0,0,0.1,0.1,0.1,0.1c0,0,0.1,0.1,0.1,0.1c0,0,0,0,0.1,0
			c0,0,0.1,0,0.1,0l1,1.1c-0.1,0-0.1,0-0.2,0c-0.1,0-0.2,0-0.2,0l-0.1,0c0,0,0,0,0,0c0,0,0,0,0,0c0,0,0,0.1-0.1,0.2
			c0,0.1,0,0.2,0,0.4c0,0.1,0,0.2,0,0.4c0,0.1,0,0.2,0,0.2c0,0,0,0.1,0.1,0.3c0.1,0.1,0.1,0.2,0.1,0.2c0,0,0,0,0,0.1
			c0,0,0,0.1,0,0.1c0,0,0,0.1-0.1,0.1s-0.1,0.1,0,0.1c0,0,0,0.1,0,0.1l0.1,0.1c0,0,0,0,0,0.1c0,0,0,0,0,0.1l0.1,0.1
			c0,0.1,0.1,0.1,0.2,0.2c0.1,0.1,0.2,0.1,0.2,0.1c0,0,0.1,0,0.2-0.1c0.1-0.1,0.1-0.1,0.1-0.1c0,0,0.1,0,0.2-0.1c0.1,0,0.1,0,0.2,0
			l0,0.1l-1,0.9c0,0-0.1-0.1-0.1-0.2c0-0.1-0.1-0.2-0.1-0.2c0,0,0-0.1,0-0.2c0-0.1,0-0.2,0-0.2l0,0c0,0,0,0,0,0l0,0c0,0-0.1,0-0.1,0
			c-0.1,0-0.1,0-0.2,0c0,0-0.1-0.1-0.2-0.2s-0.2-0.2-0.2-0.2c0,0,0,0-0.1-0.1c-0.1,0-0.1,0-0.1,0c0,0,0,0-0.1,0c-0.1,0-0.1,0-0.1,0
			c0,0,0,0,0,0s0,0,0,0l0.2-0.2c0,0-0.1,0-0.3,0c-0.1,0-0.2,0-0.2,0c-0.1,0-0.1,0-0.2,0.1c-0.1,0-0.1,0.1-0.2,0.1
			c0-0.1-0.1-0.2-0.3-0.3c-0.1-0.2-0.3-0.3-0.4-0.5c-0.1-0.2-0.3-0.3-0.4-0.5c-0.1-0.2-0.2-0.3-0.3-0.3c0,0-0.1-0.1-0.2-0.2
			c-0.1-0.1-0.2-0.2-0.3-0.3c-0.1-0.1-0.2-0.2-0.3-0.3c-0.1-0.1-0.2-0.2-0.2-0.2c0,0,0-0.1,0-0.1s0-0.1,0-0.1l0,0c0,0,0,0,0,0l0,0
			c0,0-0.1,0-0.1,0c-0.1,0-0.1,0-0.1,0c0,0-0.1-0.1-0.2-0.1c-0.1,0-0.1-0.1-0.1-0.1c0,0-0.1-0.1-0.2-0.2c-0.1-0.1-0.1-0.2-0.2-0.2
			c0,0-0.1-0.1-0.1-0.1c-0.1-0.1-0.1-0.1-0.2-0.1c-0.1,0-0.2-0.2-0.4-0.3c-0.2-0.2-0.3-0.3-0.4-0.3c0,0-0.1-0.1-0.1-0.1
			c-0.1-0.1-0.1-0.1-0.2-0.2C18,8.1,18,8.1,17.9,8c-0.1-0.1-0.1-0.1-0.1-0.1c0,0-0.1-0.1-0.2-0.2c-0.1-0.1-0.2-0.2-0.2-0.2
			c0,0-0.1-0.1-0.2-0.2C17.1,7.2,17,7.1,16.9,7c-0.1-0.1-0.2-0.2-0.2-0.3c-0.1-0.1-0.1-0.2-0.2-0.2c0,0-0.1,0-0.1,0
			c-0.1,0-0.1,0-0.1,0l-0.1,0.1c0,0-0.1,0-0.1,0c0,0-0.1,0-0.1,0c0,0,0-0.1,0-0.1c0-0.1,0-0.1,0.1-0.2c0,0,0-0.1,0-0.1
			C16,6.1,16,6,16,6z M16,15.1L16,15.1l0.2,0L16,15.1L16,15.1z M17.1,16.3C17.1,16.2,17.1,16.2,17.1,16.3c-0.2-0.1-0.2-0.1-0.2-0.1
			c0,0-0.1,0.1-0.2,0.1c-0.1,0-0.2,0.1-0.2,0.1l0.2,0.2c0,0,0,0,0.1,0c0,0,0.1,0,0.1,0c0,0,0,0,0.1-0.1c0,0,0.1,0,0.1-0.1
			C17,16.4,17,16.4,17.1,16.3L17.1,16.3L17.1,16.3z M16.7,15.5l0.2-0.1l-0.1,0L16.7,15.5z M17.4,15.7c0,0-0.1,0-0.2,0
			s-0.1,0.1-0.1,0.1c0.1,0.1,0.1,0.1,0.2,0C17.4,15.8,17.4,15.8,17.4,15.7z M17.6,12.9c0.1,0.1,0,0.1,0,0.2s-0.1,0.1-0.2,0
			c0-0.1,0-0.1,0.1-0.2C17.5,12.8,17.6,12.8,17.6,12.9z M17.7,15.9c-0.1-0.1-0.1-0.1-0.2,0c-0.1,0.1-0.1,0.1,0,0.2
			c0,0.1,0.1,0.1,0.2,0C17.7,16.1,17.8,16,17.7,15.9z M17.7,5.7L17.7,5.7l0.2,0l-0.1-0.1L17.7,5.7z M18.1,16
			C18.1,15.9,18,15.9,18.1,16c-0.1,0-0.1,0.1-0.1,0.1c0,0,0.1,0,0.1,0C18.1,16.1,18.1,16,18.1,16z M18.7,16.1
			C18.7,16.1,18.7,16.1,18.7,16.1C18.6,16.1,18.6,16,18.7,16.1C18.6,16,18.5,16,18.5,16c0,0-0.1,0-0.1,0c0,0-0.1,0-0.1,0.1
			s-0.1,0.1-0.1,0.1l0.2,0.2L18.7,16.1z M20,7.2c-0.1,0-0.2,0.1-0.3,0.2c-0.1,0.1-0.2,0.2-0.1,0.2c0,0,0.1,0,0.2-0.1
			c0.1,0,0.2-0.1,0.2,0c0,0,0.1,0,0.2,0.1c0.1,0.1,0.1,0.1,0.2,0.1l0,0l0,0l0,0c0,0,0-0.1,0.1-0.1s0-0.1,0-0.1l0,0c0,0,0,0,0,0l0,0
			c-0.1,0-0.1,0-0.2-0.1C20.1,7.2,20,7.2,20,7.2z M19.7,16.9C19.8,16.9,19.8,16.9,19.7,16.9C19.7,16.9,19.7,16.9,19.7,16.9
			C19.6,16.9,19.6,16.9,19.7,16.9C19.7,16.8,19.7,16.8,19.7,16.9z M20.2,6.7c0-0.1-0.1-0.1-0.2,0S20,6.8,20,6.9c0,0,0.1,0,0.2,0
			S20.3,6.7,20.2,6.7z M20.4,16.7c0,0,0,0.1-0.1,0.1s-0.1,0.1-0.1,0c-0.1-0.1,0-0.1,0-0.2C20.3,16.6,20.3,16.6,20.4,16.7z M20.6,7.9
			l-0.1,0.3c0,0,0.1,0,0.1,0h0.1l0,0l0,0c0,0,0-0.1,0-0.1s0-0.1,0.1-0.1c0,0,0,0,0-0.1s0-0.1,0-0.1c0,0-0.1,0-0.1,0.1
			c0,0-0.1,0-0.1,0.1L20.6,7.9z M22.1,8.7h0.2l-0.1-0.1L22.1,8.7z M22.5,8.2l-0.3-0.1l0,0l0,0c0,0,0,0,0.1,0c0.1,0,0.1,0,0.1,0.1
			L22.5,8.2z M24,10.7l0.2-0.2l-0.2,0L24,10.7z M24.7,10.8C24.6,10.8,24.6,10.8,24.7,10.8c-0.1,0-0.2,0-0.2,0c0,0-0.1,0-0.1,0.1
			c0,0-0.1,0.1-0.1,0.1l-0.2,0.2c0,0,0.1,0,0.1,0c0,0,0.1,0,0.1,0l0.2,0c0.1,0,0.1,0,0.1,0l0,0l0,0C24.7,11,24.7,10.9,24.7,10.8z
			 M25.1,12.6L25,12.4L25.1,12.6L25.1,12.6z M25.6,13.1C25.6,13.1,25.6,13.1,25.6,13.1c0.1,0,0.1,0,0.2,0l-0.3,0.2l0-0.1
			C25.5,13.3,25.5,13.2,25.6,13.1L25.6,13.1L25.6,13.1z M26.2,13.3c0,0,0,0.1,0,0.1c-0.1,0.1-0.1,0.1-0.2,0c0,0,0-0.1,0.1-0.1
			C26.1,13.2,26.2,13.2,26.2,13.3z"/>
		<path class="st2" d="M25,32.7C25,32.8,25,32.8,25,32.7c0.1,0,0.1,0.1,0.1,0.1l0,0l0,0c0,0,0,0,0-0.1c0,0,0-0.1,0-0.1
			c0,0,0,0-0.1-0.1c0,0-0.1,0-0.1-0.1c0,0,0,0,0-0.1c0,0,0-0.1,0-0.1c0,0,0-0.1,0.1-0.2c0-0.1,0.1-0.1,0.1-0.2c0,0,0-0.1,0.1-0.3
			s0.1-0.3,0.1-0.3c0,0,0-0.1,0-0.1c0-0.1,0-0.1,0-0.1s0-0.1,0.1-0.1c0-0.1,0.1-0.1,0.1-0.2s0.1-0.1,0.1-0.2c0-0.1,0-0.1,0-0.1
			c0,0,0-0.1,0.1-0.2s0.1-0.2,0.2-0.3c0.1-0.1,0.1-0.2,0.2-0.3c0.1-0.1,0.1-0.2,0.1-0.2c0,0,0-0.1,0.1-0.2l0.1-0.1
			c0,0,0-0.1,0.1-0.1c0-0.1,0.1-0.1,0.1-0.1l0,0c0,0,0,0,0-0.1s0-0.1,0-0.1c0,0,0-0.1,0.1-0.2c0-0.1,0.1-0.1,0.1-0.1l0.1-0.1
			c0,0,0-0.1,0-0.2c0-0.1,0-0.2,0-0.2s0-0.1-0.1-0.2c0-0.1-0.1-0.2-0.1-0.2c0,0-0.1-0.1-0.3-0.1c-0.2-0.1-0.2-0.1-0.2-0.1l0,0l0,0
			c0,0,0,0,0-0.1c0-0.1,0-0.1,0-0.1l-0.1-0.1l-0.1-0.1c0,0-0.1,0-0.2,0c-0.1,0-0.1,0-0.2-0.1c0,0-0.1-0.1-0.1-0.1
			c-0.1-0.1-0.1-0.1-0.2-0.2L25.2,26c0,0-0.1-0.1-0.1-0.1c0,0-0.1-0.1-0.1-0.2c0-0.1-0.1-0.1-0.1-0.1s0,0-0.1,0c-0.1,0-0.1,0-0.1,0
			c0,0-0.1-0.1-0.2-0.2s-0.2-0.2-0.2-0.2c0,0,0,0-0.1-0.1c-0.1,0-0.1-0.1-0.1-0.1c0,0-0.1-0.1-0.1-0.1c-0.1-0.1-0.1-0.1-0.1-0.1
			c-0.1,0-0.2-0.1-0.3-0.2s-0.2-0.2-0.3-0.2c0,0,0-0.1-0.1-0.1c0-0.1-0.1-0.1-0.1-0.2l0,0l0,0l-0.1,0l-0.1,0c0,0-0.1,0-0.1-0.1
			c0-0.1-0.1-0.1-0.1-0.1c0,0-0.1,0-0.2,0c-0.1,0-0.1,0-0.2,0c0,0-0.1,0-0.1,0.1s-0.1,0.1-0.1,0.1c0,0,0,0,0,0c0,0,0,0,0,0
			c0,0,0-0.1,0-0.1c0-0.1,0-0.1,0-0.1c0,0,0-0.1,0.1-0.1c0,0,0.1-0.1,0.1,0c0,0,0,0-0.1,0s-0.1,0-0.1,0v-0.1v-0.1l0-0.1
			c0-0.1,0-0.1,0-0.1c0,0,0,0,0,0c0,0,0,0,0,0c0,0,0,0-0.1,0c0,0,0,0,0,0.1c0,0,0,0-0.1,0c0,0,0,0,0,0c0,0-0.1,0-0.1,0
			c0,0-0.1,0-0.3,0c-0.1,0-0.2,0-0.3,0l0,0l0,0L21,23.1c0,0,0,0.1,0,0.1l0,0l0,0c0,0-0.1,0-0.1,0c-0.1,0-0.1,0-0.1,0
			c0,0-0.1,0.1-0.2,0.1c-0.1,0-0.1,0.1-0.2,0.1c0,0,0,0,0,0c0-0.1,0-0.1,0-0.1l0.2-0.2l0-0.6l-0.1-0.1l0,0h-0.1h0c0,0-0.1,0-0.2,0.1
			c-0.1,0.1-0.2,0.1-0.2,0.1c0,0-0.1,0-0.1,0.1s-0.1,0.1-0.1,0.1l0,0c0,0,0,0,0,0c0,0,0,0,0.1,0c0,0,0.1,0,0.1,0c0,0,0.1,0,0.2,0
			c0.1,0,0.2,0,0.2,0c0,0,0,0.1,0,0.1c0,0.1-0.1,0.1-0.1,0.1c0,0-0.1,0-0.2,0.1c-0.1,0-0.2,0-0.2,0.1l-0.2,0.2l-0.3,0.3
			c0,0-0.1,0.1-0.1,0.2c-0.1,0.1-0.1,0.2-0.1,0.2l0,0l-0.1,0.1c0,0-0.1-0.1-0.2-0.1c-0.1-0.1-0.1-0.1-0.2-0.1c0,0-0.1,0-0.2,0
			c-0.1,0-0.1,0-0.2,0l0.2-0.2h-0.1c0,0,0,0,0,0l0,0l-0.1,0c0,0-0.1,0-0.1,0c0,0-0.1,0.1-0.2,0.1c-0.1,0.1-0.1,0.1-0.2,0.1
			c0,0,0.1,0,0.1,0.1s0.1,0.1,0.1,0.1c0,0,0,0.1,0.1,0.1c0,0.1,0,0.1,0,0.1c0,0-0.1,0-0.2,0c-0.1,0-0.2,0-0.2,0c0,0-0.1,0-0.2,0.1
			c-0.1,0-0.2,0-0.2,0c0,0-0.1,0-0.1,0c-0.1,0-0.1,0-0.1,0l-0.1-0.1l-0.1-0.1c0,0,0-0.1-0.1-0.2c-0.1-0.1-0.1-0.2-0.2-0.2
			c0,0,0,0-0.1-0.1c-0.1,0-0.1-0.1-0.1-0.1c0,0,0,0,0-0.1c0-0.1,0-0.1,0-0.1l0.4-0.4c0,0,0-0.1,0.1-0.2c0-0.1,0-0.2,0.1-0.2l0.1-0.1
			l0.1-0.1c0,0,0.1,0,0.1-0.1s0.1-0.1,0.1-0.1c0,0,0.1,0,0.1-0.1c0.1,0,0.1-0.1,0.1-0.1l0.1,0.1l0,0l0,0c0,0,0,0.1,0,0.1
			s0,0.1,0,0.1c0,0,0.1,0,0.2-0.1c0.1-0.1,0.2-0.1,0.2-0.1c0,0,0,0,0-0.1c0-0.1,0-0.1,0-0.1c0,0,0.1,0,0.2,0c0.1,0,0.2,0,0.2,0
			c0,0,0,0,0.1-0.1s0-0.1,0-0.2c0,0,0-0.1,0-0.1l0-0.1l0,0l0.1-0.1c0,0,0,0,0.1,0c0,0,0.1,0,0.1,0c0,0,0.1,0,0.1,0.1
			c0.1,0,0.1,0,0.1,0l0.1-0.1l0.1-0.1c0,0,0-0.1,0-0.1c0-0.1,0-0.1,0-0.1c0,0,0,0,0,0l0,0l0.1,0c0,0,0.1-0.1,0.1-0.1
			c0.1-0.1,0.1-0.1,0.2-0.1c0,0,0,0,0.1,0c0,0,0.1,0,0.1,0c0,0,0,0.1,0,0.2c0,0.1,0,0.2,0,0.2l0.1,0.1l0.1,0.1c0,0,0.1-0.1,0.2-0.1
			c0.1,0,0.1-0.1,0.2-0.1l0.1,0c0.1,0,0.2,0,0.2,0c0.1,0,0.1-0.1,0.2-0.2s0.2-0.2,0.2-0.2c0.1,0,0.1,0,0.2,0c0,0,0,0,0.1,0
			c0,0,0.1,0,0.1,0c0,0,0.1,0,0.1,0c0,0,0,0,0-0.1c0-0.1,0-0.1,0-0.1c0,0,0-0.1,0.1-0.2c0-0.1,0.1-0.1,0.1-0.2l0.1-0.1l0,0
			c0,0,0,0,0,0.1c0,0,0,0.1,0,0.1c0,0,0,0.1,0,0.2c0,0.1,0,0.2,0,0.2l0,0l0.1,0.1c0,0,0.1,0,0.1,0s0.1,0,0.1,0c0,0,0.1-0.1,0.1-0.2
			s0.1-0.1,0.2-0.1c0,0,0,0,0.1,0c0,0,0.1,0,0.1,0c0,0,0,0,0,0c0,0,0,0,0,0l0-0.1l0-0.1c0,0,0-0.1,0-0.1l0.1,0.1c0,0,0.1,0,0.1,0
			c0.1,0,0.1,0,0.1,0c0,0,0.1-0.1,0.2-0.1S24,20,24,19.9s0.1,0,0.2-0.1c0.1,0,0.2,0,0.2-0.1l0.1,0c0,0,0,0,0,0l0,0.4l0.2,0l0.7-0.7
			l0.2,0c0,0,0,0.1,0,0.1c0,0,0,0.1-0.1,0.2c-0.1,0.1-0.1,0.2-0.1,0.2l-0.2,0.2c0,0,0,0.1,0,0.1l0,0l0.1,0.1c0,0,0.1,0,0.1,0
			c0,0,0.1,0,0.1,0c0,0,0.1-0.1,0.2-0.1c0.1-0.1,0.1-0.1,0.1-0.2c0,0,0.1,0,0.1,0c0.1,0,0.1,0,0.1,0c0.1,0,0.1,0,0.1,0l0,0l0,0
			c0,0,0-0.1,0-0.1s0-0.1-0.1-0.1c0,0,0,0,0-0.1s0-0.1,0-0.1c0,0,0-0.1,0-0.2c0-0.1,0-0.2,0-0.2v-0.1l0.1-0.1l0.1-0.1c0,0,0,0,0,0
			s0,0,0.1,0c0,0,0.1,0,0.2,0c0.1,0,0.2,0,0.2,0c0,0,0.1,0,0.1,0c0,0,0.1,0,0.1,0c0,0,0,0,0,0c0,0,0.1,0,0.1,0c0,0,0.1,0,0.1-0.1
			s0.1,0,0.1-0.1c0,0,0.1,0,0.1-0.1c0,0,0.1,0,0.1-0.1c0,0,0.1,0.1,0.1,0.1c0.1,0,0.1,0,0.2,0.1c0.1,0,0.1,0,0.1,0l0.5-0.5
			c0,0,0.1,0,0.1,0c0,0,0.1,0,0.1,0.1c0,0.1,0.1,0.1,0.1,0.1l0.3-0.3c0.1,0.1,0.1,0.1,0.2,0.1c0,0,0.1,0,0.2,0c0.1,0,0.1,0,0.2,0
			l0.1-0.1c0,0,0,0,0-0.1c0,0,0,0,0.1,0.1c0.1,0,0.1,0,0.1,0c0,0,0.1,0,0.1-0.1c0.1,0,0.1,0,0.2,0l0,0l0,0c0,0,0,0,0.1-0.1
			c0-0.1,0.1-0.1,0.1-0.2c0-0.1,0.1-0.1,0.1-0.2s0.1-0.1,0.1-0.1c0,0,0.1,0,0.2,0c0.1,0,0.2,0,0.2,0l0.1,0.1c0,0,0,0,0.1,0
			c0,0,0.1,0,0.1,0c0,0,0.1,0,0.2,0c0.1,0,0.1,0,0.2,0c0,0,0.1,0,0.1,0c0.1,0,0.1,0,0.1,0c0,0-0.1,0.1-0.1,0.2s0,0.2,0,0.2
			c0,0,0,0.1,0.1,0.2c0.1,0.1,0.1,0.1,0.2,0.1l0.5,1.3c0,0,0,0.1,0,0.1s0,0.1,0,0.1c0,0,0,0,0,0c0,0,0,0,0,0c0,0,0.1,0.1,0.1,0.2
			c0.1,0.1,0.1,0.1,0.1,0.1c0,0,0,0,0,0c0,0,0,0.1,0,0.1c0,0,0,0,0,0c0,0-0.1,0-0.1-0.1c0,0-0.1,0-0.1,0c0,0-0.1,0-0.1,0
			c0,0-0.1,0-0.1,0c0,0-0.1,0-0.2,0c-0.1,0-0.1,0-0.1,0s0,0-0.1,0.1c-0.1,0-0.1,0.1-0.1,0.1c0,0-0.1,0.1-0.1,0.1
			c-0.1,0.1-0.1,0.1-0.1,0.1c0,0-0.1,0.1-0.1,0.1s-0.1,0.1-0.1,0.2c0,0,0,0,0,0.1c0,0,0,0.1,0,0.1l0.1,0.1c0,0-0.1,0.1-0.1,0.2
			c0,0.1-0.1,0.2-0.1,0.3c0,0,0,0.1,0,0.1c0,0,0,0.1,0,0.1c0,0,0,0.1,0,0.1c0,0.1,0,0.1,0,0.2l0,0.1c0,0-0.1,0.1-0.1,0.2
			c-0.1,0.1-0.1,0.2-0.1,0.3L31,23.1c0,0-0.1,0.1-0.1,0.2c-0.1,0.1-0.1,0.2-0.1,0.2l0,0c0,0,0,0,0,0c0,0,0,0,0,0c0,0,0,0.1,0,0.1
			c0,0-0.1,0.1-0.1,0.2c-0.1,0.1-0.1,0.2-0.1,0.2c0,0,0,0.1,0,0.2c0,0.1,0,0.1,0,0.2L30,24.8c0,0,0,0,0,0.1c0,0.1,0,0.1,0,0.1
			c0,0,0,0.1,0,0.3s0,0.2,0,0.3l0,0l0,0c0,0-0.1,0-0.1,0c-0.1,0-0.1,0-0.1,0l0,0l-0.1,0.1c0,0,0,0.1,0,0.1c0,0,0,0.1,0,0.1V26V26
			c0,0,0,0.1-0.1,0.2s-0.1,0.2-0.1,0.2c0,0,0,0,0,0c0,0,0,0.1,0,0.1c0,0,0,0.1,0,0.1c0,0-0.1,0.1-0.2,0.2c-0.1,0.1-0.1,0.2-0.1,0.2
			c0,0,0,0.1,0.1,0.2c0,0.1,0.1,0.2,0.1,0.2c0,0,0,0.1-0.1,0.1c0,0-0.1,0-0.1,0.1c0,0,0,0.1,0,0.1l0,0c0,0,0,0,0,0.1s0,0.1,0,0.1
			c-0.1,0-0.2-0.1-0.3-0.1c-0.1,0-0.2-0.1-0.3-0.1c0,0,0,0,0,0c0,0,0,0,0,0l0,0c0,0,0,0,0,0l0,0.1c0,0,0,0.1,0,0.2s0,0.1,0,0.2
			c0,0,0.1,0,0.2,0c0.1,0,0.1,0,0.2,0c0,0,0,0,0.1,0c0,0,0.1,0,0.1,0c0,0,0.1,0,0.1,0c0,0-0.1,0.1-0.1,0.1c-0.1,0-0.1,0.1-0.1,0.1
			c0,0,0,0-0.1,0c0,0,0,0-0.1,0l0,0l0,0l0,0c0,0,0,0,0,0.1c0,0,0,0.1,0,0.1l-0.1,0.1l-0.1,0.1c0,0,0,0.1,0,0.2c0,0.1,0,0.2-0.1,0.2
			c0,0,0,0,0,0.1c0,0.1,0,0.1,0,0.1l0,0L28,30c0,0-0.1,0.1-0.1,0.3c-0.1,0.1-0.1,0.2-0.2,0.3c0,0-0.1,0-0.3,0.1s-0.2,0-0.3,0.1
			c0,0,0.1,0,0.1,0.1c0.1,0,0.1,0.1,0.1,0.1c0,0,0,0.1,0,0.1s0,0.1,0,0.1c0,0,0,0.1,0,0.1c0,0,0,0.1,0,0.1l0,0.1c0,0,0,0,0,0l0,0
			c0,0,0,0,0,0c0,0-0.1,0.1-0.1,0.2c-0.1,0.1-0.1,0.2-0.1,0.3c0,0,0,0.1-0.1,0.2c0,0.1,0,0.1,0,0.1c0,0-0.1,0.1-0.1,0.2
			s-0.1,0.2-0.2,0.3c-0.1,0.1-0.1,0.2-0.2,0.2c-0.1,0.1-0.1,0.1-0.1,0.1c0,0-0.1,0.1-0.1,0.1c-0.1,0.1-0.1,0.1-0.1,0.1s0,0,0,0.1
			c0,0,0,0.1,0,0.1l-0.1,0.1l0,0c0,0-0.1,0-0.3-0.1c-0.2-0.1-0.3-0.1-0.3-0.1c0,0,0,0-0.1,0c0,0-0.1,0-0.1,0c0,0-0.1,0-0.2-0.1
			c-0.1,0-0.1-0.1-0.1-0.1l-0.1,0c-0.1,0-0.1,0-0.1-0.1c0,0,0-0.1,0-0.1c0,0,0-0.1,0-0.1c0,0,0-0.1,0-0.1
			C24.9,32.9,24.9,32.9,25,32.7L25,32.7L25,32.7z M16.8,24L16.8,24l0.1,0L16.8,24L16.8,24z M17.2,23.7L17.2,23.7
			c0.1,0.1,0.2,0.1,0.2,0.1l0.1,0c0,0,0,0,0,0c0,0,0,0,0,0l0,0c0,0,0-0.1,0-0.1c0-0.1,0-0.1,0-0.1L17.2,23.7z M18,23.5
			C17.9,23.4,17.9,23.4,18,23.5C17.8,23.5,17.8,23.5,18,23.5C17.9,23.6,17.9,23.6,18,23.5C18,23.5,18,23.5,18,23.5z M19.6,23.6
			C19.6,23.6,19.6,23.6,19.6,23.6c0.1,0,0.1-0.1,0.1-0.1l0,0c0,0,0,0,0,0s0,0,0,0c0,0,0.1,0,0.2,0c0.1,0,0.1,0,0.2,0.1
			c0,0,0.1,0,0.1,0c0.1,0,0.1,0.1,0.1,0.1c0,0,0,0,0,0c0,0,0,0,0,0c0,0-0.1,0-0.1,0.1c0,0-0.1,0-0.1,0c0,0-0.1,0-0.2-0.1
			c-0.1-0.1-0.1-0.1-0.1-0.1c-0.1-0.1-0.1-0.1-0.2-0.1c0,0,0,0-0.1,0C19.7,23.7,19.7,23.7,19.6,23.6L19.6,23.6l0,0.1
			c0,0,0,0.1,0,0.1s0,0.1,0,0.1l0,0l0,0c0,0,0,0,0-0.1s0-0.1,0.1-0.1C19.5,23.7,19.6,23.7,19.6,23.6C19.6,23.7,19.6,23.7,19.6,23.6z
			 M20.5,22.1C20.5,22.1,20.5,22.1,20.5,22.1c0.1,0,0.1,0,0.2,0l0,0l-0.1-0.1L20.5,22.1z M20.8,22.5c0.1,0,0.2,0,0.2-0.1
			c0,0,0,0,0,0c0,0,0,0,0,0c0,0,0,0,0,0L20.8,22.5z M21,21.7C21,21.7,21,21.8,21,21.7c0,0.1,0,0.1,0,0.2l0,0l0.1-0.1L21,21.7z
			 M21.5,21.2C21.6,21.1,21.6,21.1,21.5,21.2l0.1,0l0,0l0-0.1c0,0,0,0,0,0c0,0,0,0,0,0L21.5,21.2z M21.8,20.8c0,0-0.1,0-0.1,0
			s0,0.1,0,0.1c0,0,0.1,0,0.1,0S21.8,20.8,21.8,20.8z M21.8,22.8c0,0-0.1,0-0.1,0s0,0.1,0,0.1C21.7,23,21.8,22.9,21.8,22.8
			C21.8,22.9,21.9,22.8,21.8,22.8z M23.2,20.8C23.2,20.8,23.1,20.8,23.2,20.8c-0.1,0-0.2,0-0.2,0c0,0,0,0,0,0c0,0,0,0,0,0l0.1,0.1
			L23.2,20.8z M23.4,24.1L23.4,24.1h0.1H23.4L23.4,24.1z M24.2,21.8c0,0,0,0-0.1,0.1s-0.1,0.1,0,0.2v0.1c0,0,0,0,0,0l0.1,0.1
			l0.1,0.1c0,0,0,0,0.1,0c0,0,0.1,0,0.1,0c0,0,0,0,0.1,0c0,0,0.1-0.1,0.2-0.1c0.1-0.1,0.2-0.1,0.2-0.1l0.2,0l0.1-0.1l0.1-0.1
			c0,0,0-0.1,0-0.1c0-0.1,0-0.1,0.1-0.1c0,0,0-0.1,0-0.1c0,0,0,0-0.1,0c0,0-0.1,0-0.1,0c-0.1,0-0.2,0-0.4,0c-0.2,0-0.3,0-0.4,0
			l-0.1,0.1L24.2,21.8z M25,22.6C24.9,22.6,24.9,22.6,25,22.6l-0.2,0.2l-0.1,0.1c0,0,0.1,0,0.1,0c0,0,0.1-0.1,0.2-0.1
			s0.1-0.1,0.1-0.1C25,22.8,25,22.7,25,22.6L25,22.6L25,22.6z M24.9,21.3L24.9,21.3C25,21.3,25,21.3,24.9,21.3l0.1,0l0-0.1v-0.1
			L24.9,21.3z M26.1,24.3C26.1,24.3,26.1,24.4,26.1,24.3c0,0.1,0,0.1,0.1,0.2c0,0,0,0.1,0,0.1c0,0,0,0.1,0,0.1c0,0,0,0.1,0.1,0.1
			l0.2,0.2l0.3,0.3c0,0,0.1,0.1,0.2,0.1s0.2,0.1,0.2,0.2c0,0,0.1,0.1,0.2,0.2c0.1,0.1,0.1,0.2,0.2,0.2l0.1,0.1c0,0,0.1-0.1,0.2-0.2
			c0.1-0.1,0.1-0.2,0.1-0.2c0,0,0.1-0.1,0.1-0.3c0-0.2,0-0.3,0-0.3c0,0,0,0,0-0.1c0-0.1,0-0.1,0-0.1c0,0,0-0.1,0.1-0.2
			c0-0.1,0-0.2,0-0.2c0,0,0-0.1,0-0.1c0-0.1,0.1-0.1,0.1-0.1c0,0,0-0.1,0-0.2c0-0.1,0-0.1,0-0.2c0,0,0-0.1,0.1-0.2
			c0-0.1,0.1-0.2,0.1-0.3c0-0.1,0.1-0.2,0.1-0.4c0-0.1,0.1-0.2,0.1-0.3c0,0,0.1-0.1,0.1-0.3c0.1-0.2,0.1-0.3,0.2-0.4
			c0,0,0-0.1,0-0.1l0.1-0.1l0-0.1c0,0,0-0.1,0-0.1s0.1-0.1,0.1-0.2c0.1-0.1,0.1-0.2,0.1-0.2c0,0,0-0.1,0-0.1c0,0,0-0.1,0-0.1
			l0.1-0.1c0,0,0-0.1,0-0.1c0,0,0-0.1,0-0.1l0,0c0,0,0,0,0,0c0,0-0.1,0-0.2,0.1c-0.1,0-0.2,0.1-0.2,0.1l0,0l0,0c0,0,0,0,0,0.1
			c0,0.1,0,0.1,0,0.1c0,0-0.1,0.1-0.1,0.1c-0.1,0-0.1,0.1-0.1,0.1c0,0,0,0,0,0.1l0,0.1l-0.2,0.2L28.5,22c0,0,0-0.1,0-0.1
			c0-0.1-0.1-0.1-0.1-0.1l-0.1-0.1l-0.1,0.1c0,0,0,0,0,0.1c0,0,0,0.1,0,0.2c0,0.1,0,0.1,0,0.2l0,0l0,0c0,0,0-0.1-0.1-0.2
			c0-0.1-0.1-0.2-0.1-0.2l0,0l0,0h-0.1c0,0,0,0,0,0l0,0l0,0c0,0,0-0.1,0-0.1c0,0,0-0.1,0-0.1l-0.2-0.2l-0.1,0.3c0,0,0,0.1,0.1,0.2
			c0.1,0.1,0.1,0.2,0.1,0.2l-0.2,0.2c0,0,0,0.1-0.1,0.1c0,0.1,0,0.1,0,0.2l-0.1,0l-0.1,0c0,0-0.1,0.1-0.2,0.1
			c-0.1,0.1-0.2,0.1-0.3,0.1l-0.1,0l-0.1,0c0,0-0.1,0-0.1,0c0,0-0.1,0-0.1,0c0,0,0,0,0,0c0,0-0.1,0-0.1,0.1s-0.1,0-0.1,0.1
			c0,0,0-0.1,0-0.1c0,0,0.1-0.1,0.1-0.2c0.1-0.1,0.1-0.1,0.2-0.1s0-0.1,0-0.1c0-0.1,0-0.1,0-0.1c0,0-0.1,0-0.1,0c-0.1,0-0.1,0-0.1,0
			c0,0,0,0-0.1,0s-0.1,0-0.1,0c0,0-0.1,0-0.1,0.1l-0.1,0.1c0,0-0.1,0.1-0.1,0.1c0,0.1-0.1,0.1-0.1,0.1c0,0-0.1,0.1-0.1,0.2
			c-0.1,0.1-0.1,0.1-0.1,0.2l0.4-0.1l0.1,0.1c0,0,0,0,0,0.1c0,0,0,0.1-0.1,0.1c0,0-0.1,0-0.2,0.1c-0.1,0-0.1,0.1-0.1,0.1l0,0l0,0
			c0,0.1,0,0.1,0,0.1c0,0,0,0.1,0,0.1l0.6,0.6c0,0,0,0,0,0.1c0,0,0,0.1,0,0.1c0,0,0,0,0.1,0C26,24.3,26.1,24.3,26.1,24.3z
			 M25.9,24.3C25.9,24.2,25.9,24.2,25.9,24.3c-0.1,0.1-0.1,0.1-0.1,0.1c0.1,0.1,0.1,0.1,0.1,0C26,24.4,26,24.3,25.9,24.3z
			 M26.5,25.6C26.5,25.6,26.5,25.5,26.5,25.6C26.4,25.5,26.4,25.5,26.5,25.6C26.4,25.6,26.4,25.6,26.5,25.6z M27,19.3
			c0,0-0.1,0-0.1,0c0,0,0,0.1,0,0.1C26.9,19.4,27,19.4,27,19.3C27.1,19.3,27.1,19.3,27,19.3z M27.5,20c0,0-0.1,0-0.1,0
			c0,0,0,0.1,0,0.1s0.1,0,0.1,0C27.5,20,27.5,20,27.5,20z M27.5,26.6C27.5,26.6,27.5,26.6,27.5,26.6C27.5,26.5,27.5,26.5,27.5,26.6
			C27.4,26.6,27.4,26.6,27.5,26.6z M27.7,26.4c0,0-0.1,0-0.1,0c0,0-0.1,0.1,0,0.1s0.1,0,0.1,0C27.7,26.5,27.7,26.4,27.7,26.4z
			 M28.2,20.9l0.1,0L28.2,20.9L28.2,20.9z M30,18.6L30,18.6l0-0.1L30,18.6z"/>
		<path class="st2" d="M27.2,35.9c0.1-0.1,0.1-0.3,0.2-0.4c0.1-0.1,0.2-0.1,0.3-0.1s0.2,0,0.2-0.1c0.1-0.1,0.1-0.2,0.1-0.2
			c0-0.1,0-0.2,0.1-0.3l0,0c0,0,0,0,0,0c0,0,0,0,0,0l0,0c0.1,0.1,0.1,0.2,0,0.2c-0.1,0.1-0.1,0.1,0,0.2l0,0c0.1-0.2,0.3-0.3,0.5-0.4
			c0.2-0.1,0.3-0.2,0.5-0.2c0.2-0.1,0.3-0.1,0.5-0.2c0.2-0.1,0.3-0.2,0.5-0.3c0,0,0.1,0.1,0,0.1c0,0,0,0.1,0,0.1
			c0.2,0.2,0.3,0.3,0.5,0.4c0.2,0.1,0.4,0.2,0.6,0.3l-0.4,0.6c0,0,0.1,0,0.1,0s0.1-0.1,0.2-0.1s0.1-0.1,0.2-0.1s0.1-0.1,0.1-0.1
			c0.2,0,0.4,0,0.5,0.1c0.1,0,0.3,0.1,0.4,0.2c0,0,0,0,0,0.1c0,0,0,0.1,0,0.1h-0.3c0,0.1-0.1,0.2-0.1,0.3c-0.1,0.1-0.1,0.2,0,0.2
			c0.1,0.1,0.2,0.1,0.3,0.1s0.2,0,0.3-0.1c0.1,0,0.2-0.1,0.3-0.1s0.2-0.1,0.3-0.1c0.1,0,0.2,0,0.2,0.1c0.1,0,0.1,0.1,0.2,0.1
			c0.1,0,0.1,0,0.2,0s0.1,0,0.2-0.1c0.1-0.1,0.1-0.2,0.1-0.3c0-0.1-0.1-0.3-0.2-0.3c-0.1-0.1-0.1-0.1-0.1-0.1s-0.1,0-0.1,0l0,0
			c0.1-0.2,0.2-0.3,0.4-0.5c0.1-0.2,0.2-0.3,0.3-0.5l0,0l0,0c0,0-0.1,0-0.1-0.1c0,0-0.1,0-0.1,0l0,0l0,0c0,0,0.1-0.1,0.2-0.2
			c0.1-0.1,0.1-0.2,0.1-0.3c0.1-0.2,0-0.3-0.1-0.4c-0.1-0.1-0.3-0.2-0.4-0.3l-0.1,0.1c-0.1-0.1-0.2-0.3-0.2-0.6
			c0-0.3,0.1-0.5,0.2-0.6c0,0-0.1,0-0.1,0c-0.1,0-0.1,0-0.1,0v-0.1c0,0,0-0.1,0-0.1c0-0.1,0.1-0.2,0.1-0.3c0.1-0.1,0.2-0.2,0.3-0.2
			c-0.1,0-0.2,0-0.3-0.1s-0.2-0.1-0.2-0.1c-0.1-0.1-0.1-0.2,0-0.3s0.3-0.2,0.3-0.3c0,0-0.1-0.1-0.1-0.2c-0.1-0.1-0.2-0.1-0.3,0
			c0,0,0,0.1,0,0.2c0,0.1,0,0.2,0,0.2c0,0-0.1,0-0.2,0c-0.1,0-0.2,0-0.2,0l0,0l0,0c0,0,0-0.1,0.1-0.2c0-0.1,0.1-0.1,0.1-0.1
			c0,0,0-0.1-0.1-0.1c0-0.1-0.1-0.1-0.1-0.1c-0.1-0.2,0-0.4,0-0.6c0.1-0.2,0.2-0.4,0.3-0.5s0.2-0.3,0.3-0.4c0.1-0.1,0.1-0.1,0.1-0.1
			L33.7,28l0,0c0,0-0.1,0-0.1,0s-0.1,0-0.1,0c0,0,0,0,0,0c0,0,0,0,0,0c0.1-0.1,0.2-0.3,0.3-0.4c0-0.1,0-0.2,0-0.4c0-0.1,0-0.3,0-0.4
			c0-0.1,0-0.3,0.1-0.4c0,0,0.1-0.1,0.2-0.2c0.1-0.1,0.2-0.2,0.2-0.2c0.3-0.3,0.6-0.5,1-0.6c0.3-0.1,0.6-0.2,0.9-0.2
			c0.3-0.1,0.6-0.1,0.9-0.1c0.3,0,0.5-0.2,0.7-0.4l0.5,0.5c0,0,0.1-0.1,0.1-0.1c0-0.1,0.1-0.1,0.1-0.1s0.1-0.1,0.1-0.1
			c0.1,0,0.1,0,0.2,0.1c0.1,0.1,0.1,0.2,0,0.4c-0.1,0.2,0,0.3,0.1,0.5l-0.2,0.2c0,0,0.1,0.1,0.1,0.1c0,0,0,0,0.1,0l0.7-0.7
			c0,0,0.1,0,0.1,0c0.1,0,0.1,0,0.1,0c0.1,0.1,0.1,0.2,0.1,0.3c0,0.1,0,0.2-0.1,0.3c0,0.1-0.1,0.2-0.2,0.3s-0.1,0.2-0.1,0.3
			c0.1,0.1,0.2,0,0.2,0s0.1-0.1,0.1-0.1c0.2-0.2,0.3-0.3,0.2-0.5c0-0.1-0.1-0.3-0.2-0.6L40,25l0.6,0.6c0,0,0.1,0.1,0,0.2
			c0,0.1,0,0.1-0.1,0.2c0,0.1-0.1,0.1-0.1,0.2c0,0.1-0.1,0.1-0.1,0.1l0.2,0.2l0.5-0.2l0.2,0.6c0.2-0.1,0.3,0,0.4,0
			c0.1,0.1,0.1,0.2,0,0.2s-0.1,0.1,0,0.2c0,0,0,0,0.1,0c0,0,0,0,0,0l0.3-0.3c0,0,0,0,0,0.1c0,0,0,0,0,0c0,0,0,0,0,0
			c0,0.1,0,0.1,0,0.2c-0.1,0.1-0.1,0.1-0.2,0.1c-0.1,0-0.1,0-0.2,0.1l0,0l0,0.1l0,0c0.1,0.1,0.2,0.1,0.3,0c0.1-0.1,0.2-0.2,0.2-0.2
			c0.1,0.1,0.1,0.2,0.1,0.4c0,0.2,0,0.3,0,0.4c0,0,0.1,0,0.1,0c0.1,0,0.2,0,0.2,0c0.1,0,0.1,0,0.2,0c0.1,0,0.1,0,0.1,0
			c0.1,0.1,0.1,0.2,0.1,0.3c0,0.1-0.1,0.2-0.2,0.3c-0.1,0.1-0.2,0.2-0.2,0.3c-0.1,0.1-0.1,0.2-0.2,0.2c0,0,0,0.1,0,0.2
			c0,0.1,0,0.2,0,0.2l0,0c0,0,0,0,0,0c0,0,0,0,0,0c0,0,0,0,0,0c0,0-0.1,0.1-0.2,0.1c-0.1,0.1-0.2,0.1-0.2,0.1l0,0
			C42,30.5,42,30.4,42,30.4c0,0,0-0.1,0-0.1c0,0,0-0.1,0-0.2c0-0.1-0.1-0.2-0.2-0.3c0,0-0.1,0-0.1,0c-0.1,0-0.1,0-0.1,0
			c0,0,0,0.1,0.1,0.1c0,0.1,0.1,0.1,0.1,0.1c0,0.1,0,0.1,0,0.2c0,0-0.1,0.1-0.1,0.1c0,0,0,0.1,0,0.1c0,0,0,0.1,0.1,0.2
			c0,0-0.1,0.1-0.2,0c-0.1,0-0.2,0-0.3-0.1c-0.1,0-0.2,0-0.3,0c-0.1,0-0.2,0-0.2,0.1c-0.1,0.1-0.1,0.2-0.1,0.3c0,0.1,0,0.2-0.1,0.3
			c0,0-0.1,0-0.1,0l-0.1,0.1c0,0,0-0.1,0-0.2c0-0.1,0-0.2,0-0.3c0-0.1,0-0.2-0.1-0.3c0-0.1-0.1-0.1-0.1-0.2c0,0-0.1-0.1-0.1,0
			s-0.1,0-0.1,0l0,0c0,0,0-0.1,0-0.2s0-0.2,0-0.3s0-0.2,0-0.3s0-0.1,0-0.2c0-0.1,0-0.1,0-0.2s0.1-0.1,0.1-0.1s0.1-0.1,0.1-0.1
			c0,0,0-0.1-0.1-0.1s-0.2-0.1-0.3-0.3c-0.2-0.1-0.3-0.3-0.5-0.4c-0.2-0.1-0.3-0.3-0.5-0.4s-0.3-0.2-0.3-0.3
			c-0.2-0.1-0.3-0.2-0.4-0.3c-0.1,0-0.2,0-0.3,0c-0.1,0-0.2,0.1-0.3,0.2c-0.1,0.1-0.3,0.1-0.4,0.2c-0.1-0.1-0.1-0.1,0-0.1
			c0,0,0.1,0,0.1,0c-0.1-0.1-0.1-0.2-0.2-0.2c0-0.1-0.1-0.1-0.1-0.2c0,0-0.1,0-0.2,0s-0.2,0.1-0.3,0.2c-0.1,0.1-0.1,0.2,0,0.3
			c0.1,0.1,0.2,0.1,0.2,0c0.1-0.1,0.2-0.1,0.2,0c-0.1,0.1-0.1,0.2-0.2,0.3c-0.1,0.1-0.2,0.3-0.3,0.4c-0.1,0.1-0.1,0.3-0.1,0.4
			c0,0.1,0,0.3,0.1,0.4l0,0c0,0-0.1,0-0.1,0c0,0,0,0,0,0c0,0,0,0,0,0L36,29.2c-0.1,0.1-0.1,0.1,0,0.2c0,0.1,0.1,0.2,0.1,0.3
			c0,0.1,0.1,0.2,0.1,0.3c0,0.1-0.1,0.2-0.2,0.3c0.1,0,0.1,0,0.2,0.1c0.1,0.1,0.1,0.2,0.1,0.3c0,0.1-0.1,0.2-0.1,0.3
			S36,31.1,36,31.2c0,0.1,0,0.2,0.1,0.3l0.1,0.1c0-0.1,0-0.2,0.1-0.3c0.1-0.1,0.1-0.1,0.2-0.2c0.1-0.1,0.1-0.1,0.1-0.2
			c0-0.1,0-0.2-0.1-0.3c0,0,0.1,0,0.1,0.1c0,0,0,0,0.1,0.1c0.1,0.1,0.1,0.2,0.2,0.3c0,0.1,0,0.3,0,0.4c0,0.1,0,0.3,0,0.4
			c0,0.1,0,0.3,0.1,0.4c0,0.1,0.1,0.2,0.2,0.3c0.1,0.1,0.1,0.2,0.1,0.2l-0.3,1.1c0,0,0.1,0,0.1-0.1c0.1,0,0.1-0.1,0.1-0.1h0l0,0l0,0
			l0,0c-0.1,0.3-0.1,0.5-0.3,0.7l0.2,0c-0.2,0.1-0.3,0.2-0.4,0.3c-0.1,0.1-0.2,0.3-0.2,0.5c0,0.2-0.1,0.3,0,0.5s0.1,0.3,0.2,0.5
			c0,0.2-0.1,0.4-0.1,0.5c0,0.2-0.1,0.3-0.3,0.5c-0.1,0.1-0.2,0.1-0.4,0.1c-0.2,0-0.4,0-0.4-0.2c0,0.2-0.1,0.4-0.3,0.6
			c-0.1,0.1-0.2,0.2-0.3,0.3c-0.2,0.1-0.3,0.1-0.4,0l0,0c0,0,0-0.1,0-0.1c0,0,0-0.1,0-0.1l0,0l0,0c0,0.1-0.1,0.1-0.1,0.2
			c-0.1,0.1-0.1,0.2-0.1,0.2l0,0.1c0,0-0.1,0-0.2,0c-0.1,0-0.1,0-0.2,0c-0.2,0.1-0.3,0.1-0.3,0.1c-0.1,0-0.2,0-0.3,0
			c0,0.1,0,0.2,0.1,0.2l-0.2,0.2c-0.1-0.1-0.1-0.2-0.1-0.4c0-0.2,0-0.3-0.1-0.3l0,0L31.6,39c0,0-0.1,0-0.1,0l0,0c0,0-0.1-0.1,0-0.1
			c0,0,0-0.1,0.1-0.1c0,0,0.1-0.1,0.1-0.1c0,0,0-0.1,0-0.1c-0.1-0.1-0.2-0.1-0.3-0.1c-0.1,0.1-0.2,0.1-0.3,0.2l-0.1-0.1
			c-0.1-0.1-0.1-0.2-0.1-0.4c0-0.1,0.1-0.3,0.1-0.4c-0.1,0-0.1,0-0.1,0c0,0-0.1,0.1-0.1,0.1c-0.1,0.1-0.1,0.1-0.1,0.1
			c0,0,0,0.1-0.1,0.1c-0.1,0.1-0.1,0.1-0.2,0.2c-0.1,0-0.1,0-0.2,0c0,0,0,0,0,0c0,0,0,0,0-0.1c0,0,0.1,0,0.1-0.1
			c0-0.1,0.1-0.2,0.1-0.2l0,0l0,0c0,0,0,0,0,0c-0.1-0.1-0.1-0.1-0.2-0.2c-0.1-0.1-0.1-0.1-0.2,0l0,0c0,0,0,0.1,0,0.1
			c0,0.1,0,0.1,0,0.1v0c0,0,0,0,0,0c-0.1-0.1-0.2-0.2-0.2-0.2c0,0-0.1,0-0.1,0.1c0,0-0.1,0.1-0.1,0.1c0,0.1-0.1,0.1-0.2,0.1
			c0,0-0.1,0-0.2-0.1c-0.1-0.1-0.1-0.1-0.2-0.1c0,0-0.1,0-0.1,0c-0.1,0-0.1,0-0.1,0c0,0,0,0,0,0l0,0c-0.1-0.1-0.1-0.2-0.1-0.3
			c0-0.1,0-0.2-0.1-0.3c0,0-0.1-0.1-0.1-0.1c0,0-0.1-0.1-0.1-0.1c0,0-0.1,0-0.1,0s-0.1,0-0.2,0c0,0,0-0.1,0-0.2s0-0.2,0-0.2
			c0,0,0-0.1-0.1-0.2c0-0.1-0.1-0.2-0.1-0.3c0-0.1-0.1-0.2-0.1-0.3C27.3,36,27.2,35.9,27.2,35.9z M27.6,35.9L27.6,35.9l0.1,0
			L27.6,35.9L27.6,35.9z M27.9,36.5c0,0-0.1,0-0.1,0s-0.1,0.1,0,0.1c0,0,0.1,0,0.1,0S27.9,36.5,27.9,36.5z M28.4,36.2
			c-0.1-0.1-0.2-0.2-0.3-0.2c-0.1,0-0.1,0.1-0.1,0.2c0,0.1,0,0.2,0.1,0.4c0.1,0.2,0.2,0.3,0.4,0.5c0,0,0,0,0-0.1c0-0.1,0-0.2,0-0.3
			c0-0.1,0-0.2,0-0.3C28.4,36.3,28.4,36.3,28.4,36.2z M28.5,35.6C28.5,35.6,28.5,35.6,28.5,35.6C28.5,35.5,28.4,35.5,28.5,35.6
			C28.4,35.5,28.4,35.6,28.5,35.6C28.5,35.6,28.5,35.6,28.5,35.6z M28.8,36.2c-0.1,0.1-0.1,0.1-0.1,0.2c0,0,0,0,0,0c0,0,0,0,0,0
			C28.9,36.3,28.9,36.2,28.8,36.2L28.8,36.2z M30.7,35.2c0,0-0.2,0-0.3,0c-0.2,0-0.3,0-0.3,0l0.4,0.7L30.7,35.2z M30.8,37.2l0.1,0
			L30.8,37.2L30.8,37.2z M31.4,37.6c-0.1-0.1-0.2-0.1-0.2-0.1l0.2,0.2C31.4,37.7,31.4,37.7,31.4,37.6z M33.4,36.5
			C33.4,36.5,33.4,36.5,33.4,36.5C33.3,36.6,33.3,36.6,33.4,36.5C33.4,36.6,33.4,36.6,33.4,36.5C33.5,36.6,33.5,36.5,33.4,36.5z
			 M33.8,36.3c0,0-0.1,0-0.1,0s-0.1,0.1,0,0.1c0,0,0.1,0,0.1,0S33.8,36.4,33.8,36.3z M33.9,29.3c0,0-0.1,0-0.1,0c0,0-0.1,0.1,0,0.1
			c0,0,0.1,0,0.1,0C34,29.4,34,29.3,33.9,29.3z M34.2,29.1C34.1,29,34.1,29,34.2,29.1C34.1,29.1,34,29.1,34.2,29.1
			C34.1,29.1,34.1,29.1,34.2,29.1C34.2,29.1,34.2,29.1,34.2,29.1z M34.3,29.8L34.3,29.8l0.1,0L34.3,29.8z M34.3,31.6L34.3,31.6
			c0.1,0.1,0.2,0,0.1-0.1L34.3,31.6z M34.4,30.5c0,0,0,0.1-0.1,0.1s-0.1,0.1-0.1,0.1c0.1,0,0.2,0,0.2,0c0.1-0.1,0.1-0.1,0.2-0.1
			c0,0-0.1-0.1-0.1-0.1C34.5,30.5,34.5,30.5,34.4,30.5z M34.6,27.6c0,0.1,0,0.2,0.1,0.2l0.1-0.1L34.6,27.6z M35,37.5
			c-0.1-0.1-0.1-0.1-0.2-0.1c-0.1,0-0.2,0-0.3,0l0.1,0.1C34.8,37.6,34.9,37.6,35,37.5z M34.8,27c-0.1,0.1-0.1,0.1,0,0.2
			c0,0.1,0.1,0.1,0.1,0.2c0.1,0.1,0.2,0.1,0.2,0.1c0.1,0,0.1,0,0.2-0.1c0,0,0.1-0.1,0.1-0.1c0-0.1,0.1-0.1,0-0.2
			c0,0.1-0.1,0.1-0.1,0.1c-0.1,0-0.1,0-0.2,0c-0.1,0-0.1-0.1-0.2-0.1C34.9,27.1,34.9,27.1,34.8,27z M35,27.8c0.1,0.1,0.1,0.2,0,0.4
			c-0.1,0.1-0.2,0.2-0.2,0.3c0.2,0,0.4,0,0.6-0.2c0.2-0.1,0.3-0.3,0.5-0.4c0,0,0,0,0.1-0.1c0,0,0-0.1,0-0.1
			c-0.1,0.1-0.2,0.2-0.4,0.2C35.3,27.8,35.2,27.8,35,27.8L35,27.8z M34.8,36.5L34.8,36.5l0.2-0.1l-0.1-0.1L34.8,36.5z M35.1,34.7
			c-0.1,0.1-0.2,0.2-0.2,0.3c-0.1,0.1,0,0.3,0.1,0.4l0.1,0.1c0,0,0.1,0.1,0.2,0.2c0.1,0.1,0.2,0.1,0.2,0.1c0,0,0,0,0,0
			c0,0,0.1-0.1,0-0.1s-0.1-0.1-0.1-0.1c0,0,0-0.1-0.1-0.1s0-0.1,0.1-0.2c-0.1,0-0.2,0-0.2-0.1c0,0-0.1-0.1-0.2-0.2
			c0.1-0.1,0.2-0.1,0.2-0.2c0.1,0,0.1-0.1,0-0.3c0,0-0.1,0.1-0.1,0.1C35.1,34.7,35.1,34.7,35.1,34.7z M35,30.1c0,0-0.1,0-0.1,0
			s0,0.1,0,0.1c0,0,0.1,0,0.1,0S35,30.1,35,30.1z M35.2,33.4c-0.1,0-0.2,0-0.2,0l0.1,0.1L35.2,33.4z M35.1,32.8
			C35,32.9,35,33,35.1,33c0,0.1,0.1,0.2,0.1,0.2c0,0,0.1,0,0.1,0c0.1,0,0.1,0,0.1-0.1L35.1,32.8z M35.3,31.8
			C35.3,31.8,35.3,31.8,35.3,31.8C35.2,31.8,35.2,31.8,35.3,31.8C35.3,31.9,35.4,31.8,35.3,31.8z M35.2,37c0.1,0,0.2,0,0.2,0
			l-0.1-0.1L35.2,37z M35.3,33.8L35.3,33.8l0.2-0.2L35.3,33.8z M35.5,32.7l0.1,0l-0.1-0.1L35.5,32.7z M35.5,32L35.5,32l0.1,0
			L35.5,32L35.5,32z M35.7,25.5c0,0-0.1,0-0.1,0s0,0.1,0,0.1c0,0,0.1,0,0.1,0S35.8,25.5,35.7,25.5z M36.4,35
			c-0.1-0.1-0.3-0.2-0.4-0.3c-0.1,0-0.3,0-0.4,0.1c0.1,0.1,0.2,0.2,0.4,0.2S36.3,35.1,36.4,35z M35.9,36.7c0,0-0.1,0-0.1,0
			c0,0,0,0.1,0,0.1c0,0,0.1,0,0.1,0C35.9,36.8,35.9,36.7,35.9,36.7z M35.7,33.1l0.1,0.1c0,0,0.1-0.1,0.1-0.1s0-0.1,0-0.2L35.7,33.1z
			 M36,34.2c-0.1,0.1-0.1,0.2-0.1,0.4l0.4-0.4C36.2,34.1,36.1,34.1,36,34.2z M36.1,32.3c0,0-0.1,0-0.1,0c0,0,0,0.1,0,0.1
			c0,0,0.1,0,0.1,0C36.1,32.4,36.1,32.3,36.1,32.3z M36.1,36.3C36.1,36.3,36.1,36.3,36.1,36.3C36,36.3,36,36.4,36.1,36.3
			C36,36.4,36.1,36.4,36.1,36.3C36.1,36.3,36.1,36.3,36.1,36.3z M36.2,33.9C36.2,33.9,36.2,33.9,36.2,33.9
			C36.1,33.8,36.1,33.8,36.2,33.9C36.1,33.9,36.1,33.9,36.2,33.9C36.1,34,36.1,34,36.2,33.9z M36.8,32.4c0,0-0.1,0-0.1,0
			c-0.1,0-0.1,0.1-0.2,0.1c-0.1,0-0.1,0.1-0.2,0.1c0,0-0.1,0.1-0.1,0.1c0.1,0.1,0.1,0.1,0.2,0.1c0.1,0,0.2,0,0.2-0.1
			c0,0,0.1-0.1,0.1-0.2S36.8,32.4,36.8,32.4z M36.4,31.5c0,0-0.1,0-0.1,0s0,0.1,0,0.1c0,0,0.1,0,0.1,0S36.5,31.5,36.4,31.5z
			 M36.3,31.8L36.3,31.8L36.3,31.8L36.3,31.8z M36.5,34.7L36.5,34.7L36.5,34.7L36.5,34.7z M36.5,33.9c0,0.1,0,0.2,0,0.2l0.1-0.1
			L36.5,33.9z M37,32.9C37,32.8,36.9,32.8,37,32.9C36.8,33,36.8,33,36.8,33C36.9,33,37,32.9,37,32.9z M37.3,26.9
			c-0.1,0.1-0.1,0.2,0,0.3l0.2-0.2L37.3,26.9z M37.7,26.8l0.1,0.1l0.1-0.1L37.7,26.8L37.7,26.8z M38.2,25.8c-0.1,0-0.2,0-0.2,0.1
			l0.1,0.1L38.2,25.8z M38.3,26.3c0,0-0.1,0-0.1,0c0,0-0.1,0.1,0,0.1c0,0,0.1,0,0.1,0C38.3,26.4,38.4,26.4,38.3,26.3z M38.9,26.6
			C38.9,26.6,38.9,26.6,38.9,26.6C38.8,26.6,38.8,26.7,38.9,26.6C38.9,26.7,38.9,26.7,38.9,26.6C38.9,26.7,38.9,26.7,38.9,26.6z
			 M40.8,26.9c-0.1-0.1-0.2-0.1-0.2-0.1c-0.1,0-0.2,0.1-0.2,0.1l-0.1,0.1c0.1,0,0.2,0,0.3,0.1c0.1,0,0.2,0,0.3-0.1
			C40.9,27.1,40.9,27,40.8,26.9L40.8,26.9z M41.6,27.6c0,0-0.1,0-0.1,0s0,0.1,0,0.1c0,0,0.1,0,0.1,0S41.6,27.7,41.6,27.6z
			 M41.6,29.3L41.6,29.3c0.2,0,0.2,0,0.1-0.1L41.6,29.3z M42,28.4c0,0-0.1,0-0.1,0s0,0.1,0,0.1s0.1,0,0.1,0S42,28.5,42,28.4z"/>
		<path class="st2" d="M39,47.1c0,0,0.1-0.1,0.1-0.2c0.1-0.1,0.1-0.2,0.1-0.2c0,0,0-0.1,0-0.2c0-0.1,0-0.2,0-0.2c0,0,0,0-0.1,0
			c0,0-0.1,0-0.1,0c0,0-0.1,0-0.1,0c-0.1,0-0.1,0-0.1,0c0,0-0.1,0-0.2,0c-0.1,0-0.1,0-0.2,0l0-0.3c0,0-0.1,0-0.2,0
			c-0.1,0-0.1,0-0.2,0l0,0l0-0.1c0,0-0.1-0.1-0.1-0.3c0-0.1-0.1-0.2-0.1-0.2c0,0,0-0.1,0-0.1c0-0.1,0.1-0.1,0.1-0.1
			c0-0.1,0-0.1,0-0.2c0,0-0.1,0-0.1,0c0,0,0,0-0.1,0c0,0,0,0,0,0c0,0,0,0,0,0l0,0l0,0c0,0,0,0,0,0c0,0,0-0.1,0-0.2
			c0-0.1,0-0.2,0-0.2c0,0-0.1,0-0.1,0s-0.1,0-0.1,0L37.4,44L37.4,44c0,0-0.1-0.1-0.1-0.2c-0.1-0.1-0.1-0.2-0.1-0.2
			c0,0,0-0.1-0.1-0.2c0-0.1,0-0.2,0-0.2c0,0,0-0.1,0-0.1s0.1-0.1,0.1-0.1s0.1-0.1,0.1-0.2c0,0,0.1-0.1,0.1-0.1c0-0.1,0-0.2,0-0.4
			c0-0.2,0-0.3,0-0.4c0,0-0.1,0-0.1,0c0,0-0.1,0-0.1,0c0,0-0.1,0-0.2,0c-0.1,0-0.2,0-0.2,0c0,0,0,0,0,0l0,0l0,0c0,0,0,0,0,0
			c0,0,0-0.1,0-0.2c0-0.1,0-0.2,0-0.2c0,0-0.1-0.1-0.1-0.2c0-0.1-0.1-0.1-0.1-0.2c0,0,0-0.1,0.1-0.2c0.1-0.1,0.1-0.2,0.2-0.3
			c0,0,0-0.1,0-0.1l0.1-0.1c0,0,0.1-0.1,0.1-0.1c0,0,0.1-0.1,0.1-0.1s0,0,0.1,0c0,0,0.1,0,0.1,0l-0.2-0.2l0.4-0.7l-0.1-0.1
			c0,0-0.1,0.1-0.2,0.2s-0.2,0.1-0.2,0.1c0,0,0,0-0.1,0c0,0-0.1,0-0.1-0.1c0,0,0,0,0-0.1c0,0,0-0.1,0-0.1c0-0.1,0.1-0.2,0.2-0.3
			c0.1-0.2,0.2-0.3,0.2-0.3c0,0,0.1-0.1,0.1-0.2s0.1-0.2,0.1-0.2c0,0,0-0.1,0-0.1c0-0.1-0.1-0.1-0.1-0.1l1.1-1.1c0,0,0-0.1,0-0.2
			c0-0.1,0-0.1,0-0.2c0,0,0,0,0.1-0.1c0,0,0.1-0.1,0.1-0.1c0,0,0.1-0.1,0.1-0.1c0.1,0,0.1-0.1,0.1-0.1c0,0,0.1-0.1,0.2-0.1
			s0.2-0.1,0.2-0.1c0,0,0.1-0.1,0.2-0.2s0.2-0.2,0.3-0.2c0,0,0,0,0,0c0,0,0,0,0,0c0,0,0,0,0,0l0.1,0c0,0,0.1-0.1,0.2-0.1
			c0.1-0.1,0.2-0.1,0.2-0.1c0,0,0,0,0.1-0.1c0.1,0,0.1-0.1,0.2-0.1s0.1-0.1,0.2-0.1s0.1-0.1,0.1-0.1c0,0,0.1-0.1,0.2-0.1
			c0.1-0.1,0.2-0.1,0.2-0.1c0,0,0,0,0.1,0c0.1,0,0.1,0,0.1-0.1c0,0,0.1,0,0.2,0c0.1,0,0.2,0,0.2,0c0,0,0.1,0,0.1-0.1
			c0.1,0,0.1-0.1,0.2-0.1c0,0,0.1,0,0.1,0h0.1c0,0,0,0,0.1,0c0.1,0,0.1,0,0.1,0c0.1,0,0.2-0.1,0.4-0.1s0.3,0,0.4,0v0.1
			c0,0,0,0,0,0.1c0,0,0,0.1,0,0.1l0,0l0,0c0,0,0,0,0,0c0,0,0.1,0,0.2,0s0.2,0,0.2-0.1c0,0,0.1,0,0.1,0c0.1,0,0.1,0,0.1,0
			c0,0,0.1,0,0.2,0c0.1,0,0.1,0,0.2,0c0,0,0,0,0.1,0.1c0,0,0.1,0.1,0.1,0.1c0,0,0.1,0,0.2-0.1c0.1-0.1,0.1-0.1,0.2-0.1
			c0,0.1,0.1,0.1,0.3,0.2c0.2,0.1,0.3,0.1,0.4,0.1c0,0,0.1,0,0.3-0.1c0.1-0.1,0.2-0.1,0.2-0.2l0,0l0,0.1c0,0,0,0.1,0,0.2
			c0,0.1,0,0.1,0,0.1l-0.2,0.2l0,0.2l-0.1,0.1l-0.1,0.1c0,0-0.1,0-0.1,0s-0.1,0-0.1,0c0,0-0.1,0-0.1-0.1c0-0.1-0.1-0.1-0.1-0.1
			c0,0-0.1,0.1-0.2,0.2c-0.1,0.1-0.2,0.2-0.2,0.2c0,0,0,0.1-0.1,0.1s0,0.1,0,0.1c0,0,0,0,0.1,0s0.1,0,0.1,0c0,0,0.1,0,0.2,0
			c0.1,0,0.2,0,0.2,0c-0.1,0-0.1,0.1-0.2,0.2c-0.1,0.1-0.1,0.2-0.1,0.2c0,0,0,0.1,0.1,0.2s0.1,0.1,0.1,0.2l-0.5,0.5l-0.2,0
			c0,0,0,0,0-0.1c0,0,0-0.1,0-0.1c0,0,0-0.1,0.1-0.2s0.1-0.1,0.1-0.2c0,0,0,0,0-0.1c0,0,0-0.1,0-0.1c0,0,0,0,0,0c0,0,0,0,0,0l0,0
			c0,0,0,0-0.1,0.1c0,0-0.1,0.1-0.1,0.1s0,0.1-0.1,0.2c0,0.1-0.1,0.2-0.1,0.2c0,0,0,0,0,0c0,0,0,0-0.1,0c0,0-0.1,0-0.1,0
			c0,0-0.1,0-0.2,0.1c-0.1,0.1-0.1,0.1-0.1,0.1c0,0-0.1,0-0.3,0.1c-0.1,0-0.2,0.1-0.2,0.1l-0.2,0c0,0-0.1,0-0.1-0.1
			c0-0.1-0.1-0.1-0.1-0.1L43.2,37l0,0c0,0-0.1-0.1,0-0.1c0,0,0-0.1-0.1-0.2c0-0.1,0-0.2,0-0.2c0,0,0,0,0,0c0,0,0,0,0,0l0,0
			c0,0,0,0,0,0c0,0,0,0,0,0c0,0,0,0.1-0.1,0.2c0,0.1-0.1,0.2-0.1,0.3c0,0-0.1,0-0.1,0c0,0-0.1,0-0.1,0c0,0,0-0.1-0.1-0.1
			s-0.1-0.1-0.1-0.2c0,0,0,0-0.1,0c0,0,0,0-0.1,0c0,0,0,0,0,0c0,0,0,0,0,0c0,0-0.1,0-0.2,0.1c-0.1,0-0.2,0.1-0.2,0.1l0,0l0,0
			c0,0,0,0,0,0.1c0,0.1,0,0.1,0,0.1l-0.1,0.1l-0.1,0.1c0,0-0.1,0.1-0.3,0.1c-0.1,0.1-0.2,0.1-0.2,0.2l-0.3,0.3c0,0-0.1,0-0.1,0.1
			s-0.1,0.1-0.2,0.1c0,0-0.1,0.1-0.3,0.2c-0.2,0.1-0.3,0.2-0.4,0.3l0,0l0,0l0.5,0.2L40,39.1l-0.1,0c0,0,0,0,0,0c0,0,0,0,0,0
			c0,0,0,0,0,0c0,0,0,0-0.1,0c0,0-0.1,0-0.1,0l0,0c0,0,0,0,0,0c0,0,0,0,0,0l0.2,0.2c0,0,0,0,0,0l0,0c0,0-0.1,0-0.1,0
			c-0.1,0-0.1,0-0.1,0.1c0,0,0,0,0,0l0,0l0,0c0,0,0,0.1,0,0.1s0,0.1,0,0.1c0,0,0,0-0.1,0c-0.1,0-0.1,0-0.1,0.1l0,0l0,0
			c0,0,0,0,0,0.1c0,0,0,0.1,0,0.1c0,0,0.1,0,0.1,0c0,0,0.1,0,0.1,0l0,0c0,0,0,0,0,0c0,0,0,0,0,0s0,0,0,0c0,0,0,0.1,0,0.1
			c0,0.1,0,0.1,0,0.1c0,0,0,0,0,0.1c0,0,0,0.1,0,0.1c0,0,0,0,0,0.1c0,0.1,0,0.1,0,0.2c0,0,0,0.1,0,0.2c0,0.1,0,0.2,0,0.2
			c0,0,0,0-0.1,0.1s0,0.1,0,0.1c0,0,0,0.1,0,0.1c0,0,0,0.1,0,0.1c0,0,0,0,0.1-0.1s0.1,0,0.1,0l0,0l0,0v0.2c0,0,0,0.1,0,0.1l-0.2,0.2
			c0,0,0,0.1,0,0.1c0,0,0,0.1,0,0.1c0,0,0.1,0,0.1,0s0.1,0,0.1,0l0,0l0,0c0,0,0,0.2,0.1,0.4c0.1,0.2,0.1,0.3,0.1,0.4s0,0.1,0.1,0.2
			c0.1,0.1,0.1,0.1,0.1,0.2c0,0,0,0,0,0.1c0,0,0,0.1,0.1,0.1l0.1,0.1c0,0,0,0,0,0c0,0,0.1,0.1,0.2,0.1c0.1,0,0.1,0.1,0.2,0.1
			l0.2,0.2l0.1,0.1c0,0,0,0.1,0,0.2c0,0.1,0,0.2,0,0.2l0,0.1c0,0,0,0,0,0c0,0,0.1,0,0.2,0c0.1,0,0.2,0,0.2,0c0,0,0.1,0,0.2,0.1
			c0.1,0,0.1,0.1,0.1,0.1c0,0,0,0.1,0.1,0.1c0,0.1,0.1,0.1,0.1,0.1c0,0,0.1,0.1,0.2,0.2c0.1,0.1,0.2,0.1,0.2,0.2c0,0,0,0.1,0,0.2
			s0,0.1,0,0.2c0,0,0,0.1,0.1,0.2c0,0.1,0.1,0.1,0.1,0.1l0.1,0.1l0.1,0.1c0,0,0.1,0,0.1,0c0.1,0,0.1,0,0.1,0l0.1,0.1l0.1,0.1
			c0,0,0,0.1,0,0.2c0,0.1,0,0.1,0,0.2c0,0.1,0.1,0.1,0.2,0.2c0.1,0.1,0.2,0.1,0.2,0.1c0,0,0.1-0.1,0.1-0.2c0.1-0.1,0.1-0.1,0.1-0.1
			c0,0,0,0,0,0s0,0,0,0s0,0,0,0c0,0,0.1,0,0.2,0s0.1,0,0.1,0s0,0,0.1,0.1c0.1,0.1,0.1,0.1,0.2,0.2c0.1,0.1,0.1,0.1,0.2,0.2
			c0.1,0.1,0.1,0.1,0.1,0.1c0,0,0.1,0,0.1,0.1c0.1,0,0.2,0.1,0.2,0.1c0.1,0,0.2,0.1,0.2,0.1c0.1,0,0.1,0.1,0.1,0.1c0,0,0,0,0.1,0.1
			s0.1,0.1,0.2,0.2c0.1,0.1,0.1,0.1,0.2,0.2c0,0,0.1,0.1,0.1,0.1c0,0,0.1,0,0.1,0c0,0,0.1,0,0.1,0c0,0,0,0,0,0c0,0,0.1,0.1,0.2,0.2
			s0.1,0.1,0.2,0.2c0,0,0.1,0,0.2,0c0.1,0,0.2,0,0.2,0c0,0,0.1,0.1,0.3,0.2c0.2,0.1,0.3,0.2,0.4,0.2l0,0l0,0c0,0,0,0,0,0.1
			c0,0,0,0.1,0,0.1c0,0-0.1,0.1-0.2,0.2c-0.1,0.1-0.2,0.2-0.2,0.3c0,0,0,0.1-0.1,0.1c0,0-0.1,0.1-0.1,0.1l-0.3-0.3
			c0,0-0.1,0.1-0.2,0.2s-0.2,0.2-0.4,0.2c-0.1,0.1-0.3,0.1-0.4,0.2c-0.1,0.1-0.2,0.1-0.3,0.1c-0.1,0-0.1,0-0.3,0c-0.1,0-0.3,0-0.4,0
			c-0.1,0-0.3,0-0.4,0c-0.1,0-0.2,0-0.3,0c0,0-0.1-0.1-0.1-0.2c-0.1-0.1-0.1-0.2-0.1-0.2l-0.2-0.2l-0.1-0.1c0,0-0.1-0.1-0.2-0.1
			c-0.1,0-0.2-0.1-0.4-0.1c-0.1,0-0.3-0.1-0.4-0.1c-0.1,0-0.2-0.1-0.2-0.1c0,0,0.1-0.1,0.2-0.2c0.1-0.1,0.1-0.2,0.1-0.3
			c0,0,0-0.1-0.1-0.2c-0.1-0.1-0.1-0.1-0.1-0.2c0,0,0,0,0-0.1c0-0.1,0-0.1,0-0.1c0,0,0,0,0-0.1c0-0.1,0-0.1,0-0.1l0,0l0,0
			c0,0,0,0,0,0s0,0,0,0c0,0,0,0,0,0c0,0-0.1,0-0.1,0.1c-0.1,0.1-0.1,0.1-0.1,0.1c0,0,0,0,0-0.1c0,0,0-0.1,0-0.1c0,0,0-0.1,0.1-0.2
			c0-0.1,0.1-0.1,0.1-0.2c0-0.1,0-0.1,0-0.2L41.6,48l-0.6,0.6c0,0-0.1,0-0.1-0.1c0,0-0.1,0-0.1-0.1c0,0-0.1,0-0.1,0s-0.1,0-0.1,0
			c-0.1,0-0.1,0-0.3,0c-0.1,0-0.2,0-0.2,0c0,0-0.1-0.1-0.3-0.1c-0.2-0.1-0.3-0.1-0.3-0.1h-0.2l0,0l0,0c0,0-0.1-0.1-0.1-0.2
			c0-0.1-0.1-0.1-0.1-0.2c0,0,0-0.1,0-0.2c0-0.1,0-0.1,0-0.1c0,0,0-0.1,0.1-0.2s0.1-0.1,0.1-0.2L39,47.1z M39.7,46.8
			c0,0,0,0.1,0,0.2c0,0.1,0,0.2,0,0.2c0,0,0,0,0,0l0,0l0,0c0,0,0,0,0,0c0,0,0,0,0.1,0c0,0,0.1,0,0.1,0l0,0c0,0,0,0,0,0s0,0,0,0
			c0,0,0,0,0,0c0,0,0,0,0-0.1c0-0.1,0-0.1-0.1-0.1L39.7,46.8L39.7,46.8z M40.5,47.8c0,0-0.1,0-0.1,0c0,0-0.1,0-0.2,0.1
			c-0.1,0-0.1,0.1-0.2,0.1c0,0-0.1,0-0.1,0.1c0,0-0.1,0.1-0.1,0.1l0.1,0.1c0,0,0.1,0,0.2-0.1c0.1-0.1,0.2-0.1,0.2-0.2L40.5,47.8
			C40.4,47.9,40.5,47.8,40.5,47.8C40.5,47.8,40.5,47.8,40.5,47.8z M40.2,37.3C40.2,37.3,40.2,37.3,40.2,37.3c0,0.1,0,0.2,0,0.2l0,0
			l0,0h0.1c0,0,0,0,0.1,0l0.2-0.5c0,0-0.1,0-0.2,0C40.3,37.1,40.3,37.2,40.2,37.3L40.2,37.3L40.2,37.3z M40.9,45.4
			C40.9,45.3,40.9,45.3,40.9,45.4C40.8,45.4,40.8,45.4,40.9,45.4C40.9,45.5,40.9,45.5,40.9,45.4C41,45.4,40.9,45.4,40.9,45.4z
			 M41.1,46.9c0,0,0,0.1-0.1,0.1c0,0.1,0,0.1,0,0.1c0,0,0.1,0,0.2,0c0.1,0,0.1,0,0.2,0c0,0,0,0,0.1,0c0,0,0.1-0.1,0.1-0.1
			c0,0,0,0-0.1-0.1c-0.1,0-0.1-0.1-0.1-0.1C41.2,46.8,41.1,46.8,41.1,46.9z M41.7,47.8c0,0-0.1,0-0.1,0c0,0-0.1,0.1,0,0.1
			s0.1,0,0.1,0C41.7,47.9,41.7,47.8,41.7,47.8z M41.5,45.8L41.5,45.8L41.5,45.8L41.5,45.8z M43.3,49.5
			C43.3,49.5,43.3,49.5,43.3,49.5c-0.1-0.1-0.1-0.1-0.1-0.1c0,0-0.1,0-0.1,0c-0.1,0-0.1,0-0.1,0.1c0,0-0.1,0-0.2,0.1
			c-0.1,0.1-0.1,0.1-0.1,0.1c0,0,0,0,0.1,0.1c0,0,0.1,0,0.1,0c0,0,0.1,0,0.1,0c0,0,0.1,0,0.1,0c0,0,0.1-0.1,0.2-0.2
			C43.2,49.6,43.3,49.6,43.3,49.5z M43.5,49C43.5,49,43.6,49,43.5,49c0.1,0,0.1,0,0.2,0l0,0l0,0L43.5,49z M44,49c0,0-0.1,0-0.1,0
			c-0.1,0.1-0.1,0.1,0,0.1c0.1,0.1,0.1,0.1,0.2,0C44.1,49.1,44.1,49,44,49z M44.5,50.9c0,0-0.1,0-0.2,0c-0.1,0.1-0.1,0.1,0,0.2
			c0.1,0.1,0.1,0.1,0.2,0C44.5,51,44.5,50.9,44.5,50.9z M44.5,49C44.4,49,44.4,49,44.5,49C44.3,49.1,44.3,49.1,44.5,49
			C44.5,49.2,44.5,49.1,44.5,49z M45.4,50.6C45.4,50.6,45.4,50.6,45.4,50.6c0,0.1,0,0.1,0,0.1c0,0,0,0.1,0,0.1c0,0,0,0,0.1,0
			c0,0,0.1,0,0.1,0l0,0c0,0,0,0,0,0c0,0,0,0,0,0c0,0,0.1,0,0.1-0.1l-0.1-0.1c0,0,0,0-0.1,0C45.5,50.5,45.5,50.5,45.4,50.6L45.4,50.6
			z M46.3,36.5c0,0,0.1,0,0.2-0.1c0.1-0.1,0.1-0.1,0.2-0.1l0,0l0,0c0,0,0.1-0.1,0.1-0.2c0-0.1,0.1-0.1,0.1-0.1c0,0,0-0.1,0-0.2
			c0-0.1,0-0.2,0-0.3c0,0,0-0.1,0-0.1c0-0.1,0-0.1,0-0.1c0,0,0.1,0,0.1,0h0.1l0,0l0,0c0,0,0,0,0,0.1c0,0,0,0,0,0.1l0,0.1
			c0,0,0,0.1-0.1,0.1c0,0.1,0,0.1,0,0.1c0,0,0,0.1,0.1,0.1s0.1,0,0.1,0l0.4-0.4c0,0,0,0.1,0,0.2s0,0.1,0,0.2l0.1,0.1l0.1,0.1
			c0,0,0.1,0,0.1,0c0,0,0.1,0,0.1,0c0.1,0,0.1-0.1,0.3-0.2c0.1-0.1,0.2-0.2,0.2-0.2c0,0,0,0.1,0,0.2c0,0.1,0,0.2,0,0.2l0,0l0,0
			c0,0,0.1,0,0.3,0c0.1,0,0.3,0,0.3,0h0.2c0,0,0.1,0,0.1,0c0.1,0,0.1,0,0.1,0l0,0.5l0.5-0.5c0.1,0.1,0.1,0.2,0.2,0.2
			c0,0.1,0.1,0.1,0.2,0.2s0.1,0.1,0.1,0.2c0,0,0,0,0,0c0,0,0,0,0,0l0,0.1c0,0,0,0,0.1,0.1c0.1,0,0.1,0.1,0.1,0.1c0,0,0,0.1-0.1,0.2
			c-0.1,0.1-0.1,0.1-0.1,0.2c0,0,0,0.1,0,0.1c0,0.1,0,0.1,0,0.1v0.2l0,0l0,0c0.1,0,0.1,0,0.3,0c0.1,0,0.2-0.1,0.2-0.1
			c0,0,0-0.1,0-0.2c0-0.1,0-0.2,0-0.2l0-0.1c0,0,0-0.1,0.1-0.1l0.9,0.9c0,0,0,0.1-0.1,0.2c0,0.1-0.1,0.1-0.1,0.2c0,0,0,0.1,0,0.2
			c0,0.1,0,0.2,0,0.2l0,0l0,0c0,0,0.1-0.1,0.2-0.1s0.2-0.1,0.2-0.1c0,0,0.1,0,0.2,0.1c0.1,0.1,0.2,0.1,0.2,0.1c0,0,0,0,0.1,0
			c0.1,0,0.1,0,0.1,0l0,0l0,0.1c0,0,0,0.1,0,0.2c0,0.1,0,0.1,0,0.2l0,0l0,0c0,0,0.1,0,0.1,0c0.1,0,0.1,0,0.1,0s0,0,0.1,0
			c0,0,0,0,0.1,0l-0.4,0.4c0,0,0,0,0,0.1c0,0.1,0,0.1,0,0.1c0,0,0,0.1,0,0.1c0,0,0,0.1,0,0.1l0.1,0.1c0,0,0,0.1,0,0.1
			c0,0.1,0,0.1,0,0.2l0.1,0.1c0,0,0,0.1-0.1,0.2c-0.1,0.1-0.1,0.2-0.1,0.2l-0.1,0.1l-0.1,0.1L53,40.8c0,0-0.1,0-0.1,0
			c0,0-0.1,0-0.1,0.1c0,0,0,0.1-0.1,0.2c0,0.1,0,0.2,0,0.2l-0.3,0.3l-0.2,0.2c0,0-0.1,0-0.1,0c0,0-0.1,0-0.1,0c0,0,0,0,0-0.1
			c0,0,0-0.1,0-0.1c0,0-0.1-0.1-0.2-0.2c-0.1-0.1-0.2-0.1-0.2-0.1l-0.2,0.2c0,0,0-0.1,0-0.1l0-0.3c-0.1,0-0.1,0-0.1,0c0,0,0,0-0.1,0
			c0,0,0,0,0,0c0,0,0-0.1-0.1-0.2c0-0.1,0-0.2,0-0.2c0,0,0-0.1,0.1-0.2c0.1-0.1,0.1-0.1,0.1-0.2c0,0,0-0.2,0-0.3c0-0.2,0-0.3,0-0.4
			c0,0,0-0.1,0-0.1c0-0.1,0-0.1,0-0.1c0,0,0-0.1-0.1-0.2c-0.1-0.1-0.1-0.2-0.1-0.2l0,0l0,0c0,0-0.1,0-0.1,0c-0.1,0-0.1,0-0.1-0.1
			s0,0-0.1-0.1c0-0.1,0-0.1,0-0.1c-0.1,0-0.2,0-0.3-0.1c-0.1,0-0.2,0-0.3,0c0,0-0.1,0-0.3-0.1c-0.1,0-0.2-0.1-0.2-0.1
			c0,0-0.1,0-0.2-0.1c-0.1-0.1-0.2-0.1-0.2-0.1c0,0-0.1,0-0.1,0c-0.1,0-0.1,0-0.1,0c0,0-0.1-0.1-0.2-0.1c-0.1-0.1-0.1-0.2-0.2-0.2
			c0,0,0,0-0.1,0c-0.1,0-0.1,0-0.1-0.1c0,0,0,0-0.1,0s-0.1,0-0.1,0c0,0,0,0-0.1,0c-0.1,0-0.1,0-0.1-0.1c-0.1,0-0.2,0-0.3-0.1
			c-0.2,0-0.3-0.1-0.4-0.1c0,0-0.1,0-0.2,0c-0.1,0-0.2-0.1-0.2-0.1c0,0-0.1,0-0.1,0c-0.1,0-0.1,0-0.1,0c0,0,0,0,0,0l0,0l0,0
			c0,0,0,0,0-0.1l0-0.1c0,0,0-0.1,0-0.1L46.3,36.5L46.3,36.5z M50.3,36.8C50.3,36.8,50.2,36.8,50.3,36.8C50.1,37,50.1,37,50.1,37
			c0,0,0,0,0,0.1c0,0,0,0.1,0,0.1l0,0l0,0c0,0,0,0,0.1,0c0,0,0,0,0.1,0c0,0,0-0.1,0-0.2c0-0.1,0-0.1,0-0.2
			C50.4,36.9,50.4,36.9,50.3,36.8C50.3,36.8,50.3,36.8,50.3,36.8z M50.6,37.9c-0.1-0.1-0.1-0.1-0.2,0c-0.1,0.1-0.1,0.1,0,0.2
			c0,0,0.1,0,0.1,0C50.6,37.9,50.7,37.9,50.6,37.9z M52.5,40.9c0,0-0.1,0-0.1,0s-0.1,0.1,0,0.1c0.1,0.1,0.1,0.1,0.2,0
			C52.5,41,52.5,40.9,52.5,40.9z M52.9,40.3C52.9,40.2,52.8,40.2,52.9,40.3C52.8,40.3,52.8,40.3,52.9,40.3
			C52.9,40.4,52.9,40.4,52.9,40.3z M52.9,39.1C52.9,39.1,52.9,39.1,52.9,39.1c0,0.1,0,0.2,0,0.2l0,0L52.9,39.1
			C53,39.1,53,39,52.9,39.1L52.9,39.1L52.9,39.1z"/>
		<path class="st2" d="M46.7,53.1c0.1-0.1,0.2-0.2,0.4-0.3c0.2-0.2,0.3-0.3,0.4-0.3c0,0,0,0.1,0.1,0.1s0.1,0.1,0.1,0.1l0.2-0.1
			c0,0,0.1,0,0.2,0s0.2,0,0.4,0c0.1,0,0.3,0,0.4,0c0.1,0,0.2,0,0.2,0c0,0,0,0,0,0.1c0,0,0,0.1,0,0.1s0,0.1-0.1,0.1
			c0,0.1,0,0.1,0,0.1c0,0,0,0,0,0l0,0c0,0,0,0,0.1,0c0,0,0,0,0,0s0,0,0.1,0c0,0,0.1,0,0.1,0h0.3c0,0,0,0,0,0.1c0,0,0,0.1,0,0.1
			c0,0,0,0,0,0l0,0l0,0c0,0,0,0,0.1,0c0,0,0.1,0,0.1,0.1l0.1,0.1l0.1,0.1l0,0c0,0,0,0.1,0,0.2c0,0.1,0,0.2,0,0.2l0.1,0.1l0.1,0.1
			h0.1c0,0,0.1,0,0.1,0.1c0.1,0.1,0.1,0.1,0.1,0.1c0,0,0.1,0,0.1,0s0.1,0,0.1-0.1l0.7,0.7c0,0,0,0,0.1,0c0,0,0.1,0,0.1-0.1v-0.1
			v-0.1c0,0,0,0,0.1-0.1c0-0.1,0.1-0.1,0.1-0.1c0,0,0.1-0.1,0.1-0.2s0.1-0.2,0.1-0.2c0,0,0,0,0-0.1c0-0.1,0-0.1,0.1-0.2
			c0-0.1,0.1-0.1,0.1-0.2s0.1-0.1,0.1-0.1s0,0,0-0.1c0,0,0-0.1,0.1-0.1l0.1-0.1c0,0,0,0,0.1,0c0,0,0.1-0.1,0.1-0.1
			c0.1,0,0.1-0.1,0.1-0.1c0,0,0.1,0.1,0.1,0.1l0.1,0c0,0,0.1,0,0.1-0.1c0-0.1,0.1-0.1,0.1-0.1l0,0l-0.1,0l-0.1,0l0.6-0.6
			c0,0,0.1-0.1,0.1-0.2c0.1-0.1,0.1-0.2,0.1-0.2l0.3-0.3c0,0,0-0.1,0.1-0.1c0-0.1,0.1-0.1,0.1-0.1c0,0,0.1,0,0.2,0
			c0.1,0,0.2,0,0.2,0l0.1-0.1l0.1-0.1l-0.3,0v-0.1c0,0,0,0,0,0c0,0,0-0.1,0.1-0.1c0.1,0,0.1-0.1,0.1-0.1c0,0,0.1-0.1,0.2-0.3
			c0.1-0.2,0.2-0.2,0.2-0.3l0,0l0,0c0,0,0,0,0.1,0c0,0,0.1,0,0.1,0c0,0,0.1-0.1,0.1-0.2c0.1-0.1,0.1-0.1,0.1-0.1c0,0,0.1,0,0.2-0.1
			c0.1-0.1,0.2-0.1,0.3-0.1c0,0,0,0,0.1,0s0.1,0,0.1,0c0,0,0-0.1,0-0.1c0-0.1,0-0.1,0-0.1l0.7-0.7c0,0,0,0.1,0.1,0.1
			c0,0.1,0.1,0.1,0.1,0.1l0.1,0.1l0,0h0.7l0,0l0,0v-0.1l0-0.1c0,0,0.1-0.1,0.1-0.1c0.1-0.1,0.1-0.1,0.1-0.1l0-0.1l0,0l0,0
			c0,0-0.1,0-0.1,0c-0.1,0-0.1,0-0.1,0c0,0-0.1,0-0.1,0.1c-0.1,0-0.1,0-0.2,0c0,0,0-0.1,0-0.1c0,0,0-0.1,0-0.1c0,0,0,0,0-0.1
			c0,0,0-0.1,0-0.1l0-0.1c0,0,0-0.1,0-0.1l0,0l0,0c0,0,0,0-0.1-0.1c-0.1,0-0.1-0.1-0.2-0.1s-0.1-0.1-0.2-0.1c-0.1,0-0.1-0.1-0.1-0.1
			s-0.1,0-0.1-0.1s-0.1-0.1-0.2-0.1c0,0-0.1-0.1-0.1-0.1c0-0.1-0.1-0.1-0.1-0.1L57,47l-0.2-0.1l0.3-0.3c0,0-0.1,0-0.2,0
			c-0.1,0-0.1-0.1-0.1-0.1c0,0,0-0.1,0-0.1l0-0.1c0,0-0.1-0.1-0.1-0.1c0,0,0-0.1-0.1-0.2l0,0L56.7,46c0,0,0,0-0.1,0c0,0-0.1,0-0.1,0
			c0,0,0,0,0-0.1c0,0,0-0.1,0-0.1c0,0,0-0.1,0-0.1c0-0.1,0-0.1,0-0.1c0,0,0,0,0-0.1c0,0,0-0.1,0-0.1s0,0,0-0.1c0,0,0-0.1,0-0.1
			c0,0,0-0.1,0-0.2s0-0.2,0-0.2c0,0,0.1,0,0.1,0c0.1,0,0.1,0,0.1,0l0,0l0,0c0,0,0,0.1,0,0.2c0,0.1,0,0.1,0,0.1l-0.1,0.1
			c0,0,0,0.1,0,0.2c0,0.1,0.1,0.2,0.1,0.2c0,0,0.1,0,0.1,0l0,0l0,0c0,0,0-0.1,0.1-0.2c0-0.1,0.1-0.2,0.1-0.3l0,0l0,0
			c0,0,0.1,0,0.1-0.1c0.1,0,0.1,0,0.1,0c0,0,0.1,0,0.1,0c0,0,0.1,0,0.2,0.1C58,45,58.1,45,58.1,45c0,0,0.1,0,0.1,0l0.1,0
			c0,0,0,0,0,0.1c0,0.1,0,0.1,0,0.1h0.3c0,0,0.1,0,0.2,0.1c0.1,0,0.1,0.1,0.1,0.1c0,0,0,0.1,0,0.2c0,0.1,0,0.1,0,0.1l0.1,0.1
			l0.1,0.1c0,0,0.1,0,0.1,0c0.1,0,0.2,0,0.2,0l0.1,0h0.1l0,0l0,0c0,0,0,0.1,0,0.1c0,0.1,0,0.1,0,0.1c0,0,0.1,0,0.2,0.1
			s0.2,0.1,0.2,0.1l0.1,0.1l0,0c0,0,0,0.1,0.1,0.2c0,0.1,0,0.2,0,0.2l0,0c0,0,0,0,0,0c0,0,0.1,0,0.2,0c0.1,0,0.2,0,0.2,0l0,0l0,0
			c0,0,0,0.1,0.1,0.1c0,0.1,0.1,0.1,0.1,0.1c0,0,0,0.1,0,0.2s0,0.2,0,0.2l0,0l0,0l0.1,0c0,0,0.1,0,0.1,0c0,0,0,0,0,0c0,0,0,0,0,0
			c0,0,0,0,0.1-0.1c0,0,0.1,0,0.1-0.1v-0.1c0,0,0,0,0,0c0,0,0,0,0,0c0,0,0,0,0,0l0.1-0.2c0.1-0.1,0.1-0.1,0.1,0c0,0,0,0.1,0,0.2
			c0,0.1,0,0.2,0,0.2c0,0,0,0.1,0,0.1s-0.1,0.1-0.1,0.1c0,0,0.1,0,0.1,0c0.1,0,0.1,0,0.1,0c0,0,0.1,0,0.1,0s0.1,0,0.1-0.1l0.2,0.2
			l0.2,0.2c0,0,0,0.1,0.1,0.1c0,0.1,0,0.1,0,0.1c0,0,0,0.1,0,0.2s0,0.1,0,0.2l0,0l0,0c0,0-0.1,0.1-0.2,0.1c-0.1,0-0.1,0.1-0.2,0.1
			c0,0-0.1,0-0.1,0c-0.1,0-0.1,0-0.1,0l-0.1,0.1l-0.1,0.1c0,0,0.1,0,0.1,0.1c0.1,0,0.1,0.1,0.1,0.1c0,0,0.1,0,0.1,0c0,0,0.1,0,0.1,0
			L62.2,50c0,0,0,0,0.1,0c0,0,0.1,0,0.1,0l0.1-0.1l0.1-0.1c0,0,0,0,0-0.1c0-0.1,0-0.1,0-0.1l0.2-0.2l0.1-0.1c0,0,0.1,0,0.1,0
			s0.1,0,0.2,0l0,0c0,0,0.1,0,0.1,0.1c0,0,0.1,0,0.1,0c0,0,0,0,0.1,0s0.1,0,0.1,0c0,0,0.1,0,0.1,0l0,0.1c0,0,0,0.1-0.1,0.2
			S63.6,50,63.6,50c0,0,0,0,0,0.1s0,0,0,0.1c0,0,0,0.1-0.1,0.1c0,0.1-0.1,0.1-0.1,0.1l-0.2,0.2l-0.1,0.1c0,0-0.1,0-0.1,0
			c-0.1,0-0.1,0-0.2,0l0,0l0,0c0,0-0.1,0-0.1,0s-0.1,0-0.1,0l0,0l-0.1,0.1c0,0,0,0.1-0.1,0.2c-0.1,0.1-0.1,0.2-0.1,0.2l-0.1,0.1
			l-0.1,0.1c0,0-0.1,0-0.1,0l-0.1,0l0,0c0,0,0,0,0,0l0-0.1c0,0,0-0.1,0-0.1c0-0.1-0.1-0.1-0.1-0.1l-0.3-0.3c0,0,0-0.1,0-0.1
			c0-0.1,0-0.1,0-0.1s-0.1,0-0.2-0.1c-0.1,0-0.2-0.1-0.2-0.1c0,0-0.1,0-0.1,0c-0.1,0-0.1,0-0.1,0l0-0.3l-0.1,0l-0.5-0.5
			c0,0-0.1,0-0.2,0c-0.1,0-0.2,0.1-0.2,0.1l-0.1,0.1l-0.1,0.1c0,0,0,0.1-0.1,0.1c0,0.1,0,0.1-0.1,0.1c0,0,0,0.1,0,0.2
			c0,0.1,0,0.2,0,0.2v0.1c0,0.1,0,0.1,0,0.1l-0.1,0.1c0,0,0,0.1-0.1,0.2c0,0.1-0.1,0.2-0.1,0.2l-1,1c0,0-0.1,0-0.2,0.1
			s-0.2,0-0.2,0.1c0,0-0.1,0.1-0.2,0.1c-0.1,0.1-0.1,0.1-0.2,0.1c0,0-0.1,0.1-0.1,0.1c-0.1,0-0.1,0.1-0.2,0.2
			c-0.1,0.1-0.1,0.1-0.2,0.2c-0.1,0.1-0.1,0.1-0.1,0.1c0,0,0,0-0.1,0c0,0-0.1,0-0.1,0l0,0l0,0c0,0,0,0,0.1,0c0.1,0,0.1,0,0.1,0
			c0,0,0,0.1,0,0.1l0,0l0,0c0,0-0.1,0.1-0.2,0.1c-0.1,0.1-0.2,0.1-0.2,0.1L55.5,54l-0.2,0.2c0,0,0,0.1,0,0.2c0,0.1,0,0.1,0,0.2
			c0,0-0.1,0-0.1,0c-0.1,0-0.1,0-0.1,0l0,0l0,0c0,0,0,0.1,0,0.2c0,0.1,0,0.1,0,0.2c0,0,0,0.1-0.1,0.2s-0.2,0.2-0.2,0.3l-0.1,0.1
			l-0.1,0.1c0,0-0.1,0.1-0.2,0.1s-0.2,0.1-0.2,0.1l-0.1,0l0,0c0,0,0,0,0,0l-0.1-0.2v0c0,0,0,0,0,0l-0.1,0c0,0-0.1,0-0.2,0
			s-0.1,0-0.1,0.1c0,0,0,0.1,0,0.1s0,0.1,0,0.1c0,0,0,0.1,0,0.2c0,0.1,0,0.1-0.1,0.2l-0.1,0.1l0,0.8c0,0,0.1,0,0.1,0
			c0,0,0.1,0,0.1,0c0.1,0,0.1-0.1,0.1-0.1l0,0c0,0,0,0,0,0c0,0,0,0.1,0.1,0.1c0,0,0,0.1,0,0.1l0.1,0.1l-0.1,0.5c0,0,0,0,0,0l0,0l0,0
			c0,0,0,0,0,0l0,0l0.1,0l0.1,0.1c0,0,0.1,0,0.1,0.1c0.1,0,0.1,0,0.1,0l0,0l0,0c0,0,0,0,0,0.1l0,0.1l0.1,0.1l0.1,0.1
			c0,0,0.1,0,0.1,0c0.1,0,0.1,0,0.1,0l0,0l0,0c0,0,0,0.1,0,0.1s0,0.1,0,0.1c0,0,0,0.1,0,0.1l0.1,0.1l0.1,0.1c0,0,0,0,0.1,0
			c0,0,0,0,0.1,0c0,0,0.1-0.1,0.2-0.1c0.1-0.1,0.1-0.1,0.2-0.1c0,0,0,0.1,0,0.1v0.1c0,0,0,0.1,0,0.1c0,0,0,0.1,0,0.1c0,0,0,0,0,0.1
			c0,0,0,0.1,0,0.2c0,0.1,0,0.1,0,0.1c0,0,0,0.1,0.1,0.2s0.1,0.1,0.1,0.2c-0.1,0.1-0.1,0.1-0.2,0.1c0,0,0,0-0.1,0c0,0,0,0,0,0
			c0,0,0,0,0-0.1s0-0.1,0-0.1c0,0-0.1,0-0.2,0c-0.1,0-0.1,0-0.1,0c0,0-0.1,0-0.1,0.1c0,0.1,0,0.1,0,0.1l0,0c0,0,0,0,0,0
			c0,0-0.1,0-0.1,0c-0.1,0-0.1,0-0.1,0c0,0-0.1,0-0.1,0c0,0-0.1,0-0.1,0c0,0-0.1,0-0.1,0s-0.1,0-0.1,0.1L53.9,60l0,0c0,0,0,0,0,0
			l0.1,0l0,0l0,0c0,0,0,0,0-0.1c0,0,0-0.1,0-0.1l0.5-0.5h-0.1c0,0-0.1,0.1-0.3,0.1s-0.2,0.1-0.3,0.1c0,0-0.1,0-0.2,0
			c-0.1,0-0.2,0-0.2-0.1h-0.1c0,0,0,0,0,0c0,0,0,0,0,0c0,0-0.1,0-0.1,0c0,0-0.1,0-0.1,0l-0.2-0.6c0,0-0.1,0-0.1,0.1c0,0-0.1,0-0.1,0
			c0,0,0,0,0,0c0,0,0,0-0.1,0l-0.1,0l0,0l0,0c0,0,0,0.1,0,0.2c0,0.1,0,0.1,0,0.1c0,0,0.1,0.1,0.2,0.1c0.1,0.1,0.1,0.1,0.1,0.1
			c0,0,0,0.1,0,0.1c-0.1,0.1-0.1,0.1-0.1,0.1c0,0,0,0.1,0.1,0.1s0.1,0.1,0.1,0.1v0.1c0,0,0,0,0,0c0,0-0.1,0-0.1,0l-0.1-0.1L52.6,60
			c0,0,0-0.1,0.1-0.1c0-0.1,0.1-0.1,0.1-0.1c0,0,0-0.1,0-0.1s0-0.1-0.1-0.1l-0.1-0.1c0,0-0.1,0-0.1,0l-0.3,0.3l-0.2-0.2
			c-0.1-0.1-0.2-0.2-0.2-0.3c0,0,0-0.1-0.1-0.1s-0.1-0.1-0.1-0.2l-0.1-0.1l-0.1-0.1c0,0-0.1,0-0.1,0c0,0-0.1,0-0.1,0l0.2-0.2
			c0,0,0,0,0,0l0,0c0,0-0.1,0-0.1,0.1c-0.1,0-0.1,0.1-0.1,0.1c0,0,0,0,0,0c0,0,0,0-0.1,0c0,0,0,0,0,0c0,0,0,0,0,0l0-0.1
			c0,0,0-0.1,0-0.1l0,0c0,0,0,0,0,0l0,0c0,0,0,0-0.1,0s-0.1,0-0.1,0l0,0l0,0c0,0,0,0,0,0c0,0,0-0.1-0.1-0.2s-0.1-0.2-0.1-0.3l0,0
			l0,0l-0.1,0.1c0,0-0.1,0-0.1,0.1c0,0,0,0-0.1,0c0,0-0.1,0-0.1,0c0,0,0.1-0.1,0.2-0.2c0.1-0.1,0.2-0.2,0.2-0.2c0-0.1,0-0.1,0.1-0.2
			c0,0,0-0.1,0-0.1l-0.1-0.1c0,0,0-0.1-0.1-0.1c0-0.1-0.1-0.1-0.1-0.1c0,0-0.1,0-0.1,0l-0.1,0c0.1,0.1,0.1,0.1,0,0.1c0,0,0,0,0,0.1
			s0,0.1,0,0.1l0,0.1l0,0.1c0,0,0,0,0,0c0,0-0.1,0-0.1-0.1c0,0-0.1,0-0.1,0c0,0,0,0-0.1,0c-0.1,0-0.1,0-0.2,0c-0.1,0-0.1,0-0.2,0.1
			l-0.3-0.3L49,56.4c0-0.1-0.1-0.2-0.2-0.3c-0.1-0.1-0.1-0.3-0.2-0.3l-0.1,0c0,0,0,0-0.1,0c0,0-0.1,0-0.1,0s-0.1,0-0.1,0l-0.1,0
			l-0.5-0.5c0,0,0-0.1,0.1-0.1c0-0.1,0.1-0.1,0.1-0.1c0,0,0,0,0-0.1s0-0.1,0-0.1l-0.1,0c0,0-0.1,0.1-0.1,0.1c-0.1,0-0.1,0.1-0.1,0.1
			v-0.3c0,0-0.1,0-0.1,0s-0.1,0-0.1,0c0,0-0.1,0-0.1,0c0,0-0.1,0-0.1-0.1s0,0-0.1,0c0,0-0.1,0-0.1-0.1c0,0,0-0.1-0.1-0.1
			c0,0,0-0.1-0.1-0.1c0,0-0.1-0.1-0.1-0.2c-0.1-0.1-0.1-0.1-0.1-0.2c0,0,0-0.1,0-0.1c0-0.1,0-0.2-0.1-0.2c0,0,0,0,0-0.1s0-0.1,0-0.1
			c0,0,0-0.1,0.1-0.2C46.6,53.3,46.6,53.2,46.7,53.1L46.7,53.1L46.7,53.1z M47.4,53.3c0,0-0.1,0-0.1,0s0,0.1,0,0.1s0.1,0,0.1,0
			S47.4,53.3,47.4,53.3z M48.1,55.5c-0.1-0.1-0.1-0.1-0.1,0s0,0.1,0,0.1C48,55.6,48,55.6,48.1,55.5C48.1,55.5,48.1,55.5,48.1,55.5z
			 M48.7,53.9C48.7,53.8,48.7,53.8,48.7,53.9C48.6,53.9,48.6,53.9,48.7,53.9C48.7,54,48.7,53.9,48.7,53.9z M49.2,55.4
			C49.3,55.4,49.3,55.4,49.2,55.4c0-0.1,0-0.1-0.1-0.1c0,0-0.1-0.1-0.1-0.1s0,0-0.1,0c0,0,0,0.1,0.1,0.1
			C49.2,55.4,49.2,55.4,49.2,55.4z M49.4,55.6l0.1,0.1l0-0.1H49.4z M50,54.2C50,54.2,49.9,54.2,50,54.2C49.9,54.2,49.9,54.3,50,54.2
			C49.9,54.3,50,54.3,50,54.2C50,54.3,50,54.2,50,54.2z M50.7,54.9c0,0-0.1,0-0.1,0c0,0,0,0.1,0,0.1s0.1,0,0.1,0
			C50.7,55,50.7,55,50.7,54.9z M50.9,56.3C51,56.2,51,56.2,50.9,56.3C50.9,56.2,50.9,56.2,50.9,56.3C50.9,56.2,50.9,56.2,50.9,56.3
			C50.9,56.3,50.9,56.3,50.9,56.3z M50.9,55L50.9,55l0.1,0L50.9,55L50.9,55z M51.5,55.4c0,0-0.1,0-0.2,0c-0.1,0-0.1,0-0.2,0
			c0,0,0,0-0.1,0c0,0-0.1,0-0.1,0l0,0l0,0L51.5,55.4z M50.9,57.2c0,0,0,0.1,0.1,0.2s0.1,0.2,0.1,0.2s0,0.1,0,0.2
			c0,0.1,0,0.1-0.1,0.1l0.1,0l0,0c0,0,0,0,0,0c0,0,0,0,0,0l0,0c0,0,0-0.1,0.1-0.2c0-0.1,0-0.1,0-0.1c0,0,0-0.1-0.1-0.1
			s-0.1-0.1-0.1-0.1L50.9,57.2C51,57.3,51,57.3,50.9,57.2C51,57.3,51,57.3,50.9,57.2L50.9,57.2z M51.2,55.7L51.2,55.7L51.2,55.7
			L51.2,55.7z M51.5,58l0.2,0.1l0-0.1L51.5,58z M51.9,58.9L51.9,58.9l0.1,0L51.9,58.9L51.9,58.9z M52.3,57.1
			C52.3,57.1,52.3,57.1,52.3,57.1C52.3,57.1,52.3,57.1,52.3,57.1c-0.1,0-0.2,0-0.2,0L52.3,57.1L52.3,57.1L52.3,57.1z M52.4,58.6
			L52.4,58.6l0.1,0.1l0.1,0v-0.3L52.4,58.6z M52.6,57.2C52.6,57.3,52.6,57.3,52.6,57.2C52.6,57.3,52.6,57.3,52.6,57.2l-0.1,0.2
			c0,0,0,0,0,0c0,0,0,0,0.1,0l0.1,0c0,0,0.1,0,0.1-0.1L52.6,57.2z M54.2,58.9C54.1,58.8,54.1,58.8,54.2,58.9c-0.1,0-0.2,0-0.3,0
			c-0.1,0-0.1,0-0.1,0c0,0-0.1,0.1-0.2,0.1s-0.2,0.1-0.2,0.1l0.1,0.1c0.1,0,0.1-0.1,0.2-0.1s0.1-0.1,0.2-0.1C54,59,54,59,54.2,58.9
			C54.1,58.9,54.1,58.9,54.2,58.9C54.1,58.9,54.2,58.9,54.2,58.9z M53.7,54.9C53.7,54.8,53.7,54.8,53.7,54.9
			C53.7,54.9,53.6,54.9,53.7,54.9C53.7,54.9,53.7,54.9,53.7,54.9C53.7,54.9,53.7,54.9,53.7,54.9z M54.2,55.1
			C54.2,55.2,54.2,55.2,54.2,55.1c0,0.1,0,0.1,0,0.2l0,0l0,0h0.2l0.1-0.1l0,0c0-0.1,0-0.2-0.1-0.2c0,0-0.1,0-0.1,0
			C54.3,55,54.3,55.1,54.2,55.1L54.2,55.1L54.2,55.1z M54.4,58.9C54.4,58.9,54.4,58.9,54.4,58.9C54.3,58.9,54.3,58.9,54.4,58.9
			C54.4,59,54.4,59,54.4,58.9C54.4,58.9,54.4,58.9,54.4,58.9z M56.2,50.9c0,0-0.1,0-0.1,0s0,0.1,0,0.1s0.1,0,0.1,0
			S56.2,50.9,56.2,50.9z M57.9,45.4L57.9,45.4l0.2,0L57.9,45.4z M58.5,50.9C58.5,51,58.5,51,58.5,50.9c-0.1,0.1-0.1,0.1-0.1,0.1
			s0,0,0,0.1l0,0.1L58.5,50.9L58.5,50.9z M59.4,49c0,0-0.1,0-0.1,0L59.4,49c0,0.1,0,0.1,0,0.1c0,0,0,0,0,0h0.1l0.1-0.1l0.1-0.1H59.4
			z M59.6,46.2C59.5,46.2,59.5,46.2,59.6,46.2c-0.1,0.1-0.2,0.1-0.1,0.1c0,0,0.1,0,0.1,0S59.6,46.3,59.6,46.2z M60.2,49.2
			C60.2,49.2,60.2,49.2,60.2,49.2C60.1,49.2,60.1,49.3,60.2,49.2C60.2,49.3,60.2,49.3,60.2,49.2z M60.7,48.2
			C60.7,48.2,60.7,48.2,60.7,48.2c-0.1,0.1-0.2,0.1-0.1,0.1c0,0,0.1,0,0.1,0S60.7,48.3,60.7,48.2z M60.7,47.4
			C60.8,47.4,60.7,47.4,60.7,47.4c-0.1-0.2-0.1-0.2-0.1-0.1C60.6,47.3,60.6,47.4,60.7,47.4C60.7,47.4,60.7,47.4,60.7,47.4z
			 M61.3,48.7h-0.1c0,0,0,0-0.1,0.1c0,0-0.1,0.1-0.1,0.1l0.1,0c0,0,0.1,0,0.1,0c0,0,0.1,0,0.1,0l0,0L61.3,48.7L61.3,48.7z
			 M61.3,49.7l0.1,0v-0.1L61.3,49.7z M61.6,50.9l0.1-0.1l0.1-0.1c0,0,0,0,0-0.1c0,0,0-0.1,0-0.1l-0.1,0L61.6,50.9z M61.8,49.2
			C61.8,49.2,61.8,49.2,61.8,49.2C61.8,49.1,61.7,49.1,61.8,49.2C61.7,49.2,61.8,49.2,61.8,49.2z M62,49.3c0,0-0.1,0-0.1,0
			s0,0.1,0,0.1c0,0,0.1,0,0.1,0S62,49.3,62,49.3z M62.1,50.1c0,0-0.1,0-0.1,0s0,0.1,0,0.1c0,0,0.1,0,0.1,0S62.1,50.2,62.1,50.1z
			 M62.2,48.9c0,0-0.1,0-0.1,0s0,0.1,0,0.1c0,0,0.1,0,0.1,0S62.2,48.9,62.2,48.9z M62.3,49.1c0,0-0.1,0-0.1,0s-0.1,0.1,0,0.1
			s0.1,0,0.1,0S62.3,49.1,62.3,49.1z M62.9,49.9c0,0.1,0,0.1,0,0.2c0,0,0,0,0.1,0c0.1,0,0.1,0,0.1,0l0,0l0,0c0,0,0-0.1,0-0.1l0,0
			l0,0C63.1,49.8,63,49.7,62.9,49.9L62.9,49.9L62.9,49.9z M63.1,50.4L63.1,50.4C63.1,50.4,63.1,50.4,63.1,50.4l0.2,0L63.1,50.4
			L63.1,50.4z"/>
		<path class="st2" d="M55.6,64.3c0.1-0.1,0.1-0.3,0.2-0.4c0.1-0.1,0.2-0.1,0.3-0.1c0.1,0,0.2,0,0.2-0.1c0.1-0.1,0.1-0.2,0.1-0.2
			c0-0.1,0-0.2,0.1-0.3l0,0c0,0,0,0,0,0s0,0,0,0l0,0c0.1,0.1,0.1,0.2,0,0.2s-0.1,0.1,0,0.2l0,0c0.1-0.2,0.3-0.3,0.5-0.4
			c0.2-0.1,0.3-0.2,0.5-0.2c0.2-0.1,0.3-0.1,0.5-0.2c0.2-0.1,0.3-0.2,0.5-0.3c0,0,0.1,0.1,0,0.1s0,0.1,0,0.1
			c0.2,0.2,0.3,0.3,0.5,0.4s0.4,0.2,0.6,0.3l-0.4,0.6c0,0,0.1,0,0.1,0c0.1,0,0.1-0.1,0.2-0.1c0.1,0,0.1-0.1,0.2-0.1
			c0.1,0,0.1-0.1,0.1-0.1c0.2,0,0.4,0,0.5,0.1c0.1,0,0.3,0.1,0.4,0.2c0,0,0,0,0,0.1c0,0,0,0.1,0,0.1h-0.3c0,0.1-0.1,0.2-0.1,0.3
			c-0.1,0.1-0.1,0.2,0,0.2c0.1,0.1,0.2,0.1,0.3,0.1c0.1,0,0.2,0,0.3-0.1c0.1,0,0.2-0.1,0.3-0.1c0.1,0,0.2-0.1,0.3-0.1
			c0.1,0,0.2,0,0.2,0.1c0.1,0,0.1,0.1,0.2,0.1s0.1,0,0.2,0c0.1,0,0.1,0,0.2-0.1c0.1-0.1,0.1-0.2,0.1-0.3c0-0.1-0.1-0.3-0.2-0.3
			c-0.1-0.1-0.1-0.1-0.1-0.1c0,0-0.1,0-0.1,0l0,0c0.1-0.2,0.2-0.3,0.4-0.5c0.1-0.2,0.2-0.3,0.3-0.5l0,0l0,0c0,0-0.1,0-0.1-0.1
			c0,0-0.1,0-0.1,0l0,0l0,0c0,0,0.1-0.1,0.2-0.2c0.1-0.1,0.1-0.2,0.1-0.3c0.1-0.2,0-0.3-0.1-0.4c-0.1-0.1-0.3-0.2-0.4-0.3l-0.1,0.1
			c-0.1-0.1-0.2-0.3-0.2-0.6c0-0.3,0.1-0.5,0.2-0.6c0,0-0.1,0-0.1,0c-0.1,0-0.1,0-0.1,0v-0.1c0,0,0-0.1,0-0.1c0-0.1,0.1-0.2,0.1-0.3
			c0.1-0.1,0.2-0.2,0.3-0.2c-0.1,0-0.2,0-0.3-0.1s-0.2-0.1-0.2-0.1c-0.1-0.1-0.1-0.2,0-0.3c0.1-0.1,0.3-0.2,0.3-0.3
			c0,0-0.1-0.1-0.1-0.2c-0.1-0.1-0.2-0.1-0.3,0c0,0,0,0.1,0,0.2c0,0.1,0,0.2,0,0.2c0,0-0.1,0-0.2,0c-0.1,0-0.2,0-0.2,0l0,0l0,0
			c0,0,0-0.1,0.1-0.2c0-0.1,0.1-0.1,0.1-0.1c0,0,0-0.1-0.1-0.1c0-0.1-0.1-0.1-0.1-0.1c-0.1-0.2,0-0.4,0-0.6c0.1-0.2,0.2-0.4,0.3-0.5
			s0.2-0.3,0.3-0.4s0.1-0.1,0.1-0.1l-0.2-0.2l0,0c0,0-0.1,0-0.1,0s-0.1,0-0.1,0c0,0,0,0,0,0c0,0,0,0,0,0c0.1-0.1,0.2-0.3,0.3-0.4
			c0-0.1,0-0.2,0-0.4c0-0.1,0-0.3,0-0.4c0-0.1,0-0.3,0.1-0.4c0,0,0.1-0.1,0.2-0.2c0.1-0.1,0.2-0.2,0.2-0.2c0.3-0.3,0.6-0.5,1-0.6
			c0.3-0.1,0.6-0.2,0.9-0.2c0.3,0,0.6-0.1,0.9-0.1c0.3,0,0.5-0.2,0.7-0.4l0.5,0.5c0,0,0.1-0.1,0.1-0.1c0-0.1,0.1-0.1,0.1-0.1
			s0.1-0.1,0.1-0.1c0.1,0,0.1,0,0.2,0.1c0.1,0.1,0.1,0.2,0,0.4c-0.1,0.2,0,0.3,0.1,0.5L67,54.3c0,0,0.1,0.1,0.1,0.1s0,0,0.1,0
			l0.7-0.7c0,0,0.1,0,0.1,0c0.1,0,0.1,0,0.1,0c0.1,0.1,0.1,0.2,0.1,0.3c0,0.1,0,0.2-0.1,0.3c0,0.1-0.1,0.2-0.2,0.3s-0.1,0.2-0.1,0.3
			c0.1,0.1,0.2,0,0.2,0s0.1-0.1,0.1-0.1c0.2-0.2,0.3-0.3,0.2-0.5c0-0.1-0.1-0.3-0.2-0.6l0.1-0.1L69,54c0,0,0.1,0.1,0,0.2
			c0,0.1,0,0.1-0.1,0.2c0,0.1-0.1,0.1-0.1,0.2s-0.1,0.1-0.1,0.1l0.2,0.2l0.5-0.2l0.2,0.6c0.2-0.1,0.3,0,0.4,0c0.1,0.1,0.1,0.2,0,0.2
			c-0.1,0.1-0.1,0.1,0,0.2c0,0,0,0,0.1,0c0,0,0,0,0,0l0.3-0.3c0,0,0,0,0,0.1c0,0,0,0,0,0c0,0,0,0,0,0c0,0.1,0,0.1,0,0.2
			c-0.1,0.1-0.1,0.1-0.2,0.1c-0.1,0-0.1,0-0.2,0.1l0,0v0.1l0,0c0.1,0.1,0.2,0.1,0.3,0c0.1-0.1,0.2-0.2,0.2-0.2
			c0.1,0.1,0.1,0.2,0.1,0.4c0,0.2,0,0.3,0,0.4c0,0,0.1,0,0.1,0c0.1,0,0.2,0,0.2,0s0.1,0,0.2,0c0.1,0,0.1,0,0.1,0
			c0.1,0.1,0.1,0.2,0.1,0.3c0,0.1-0.1,0.2-0.2,0.3c-0.1,0.1-0.2,0.2-0.2,0.3s-0.1,0.2-0.2,0.2c0,0,0,0.1,0,0.2c0,0.1,0,0.2,0,0.2
			l0,0c0,0,0,0,0,0c0,0,0,0,0,0c0,0,0,0,0,0c0,0-0.1,0.1-0.2,0.1c-0.1,0.1-0.2,0.1-0.2,0.1l0,0c-0.1-0.1-0.1-0.1-0.1-0.1
			c0,0,0-0.1,0-0.1s0-0.1,0-0.2c0-0.1-0.1-0.2-0.2-0.3c0,0-0.1,0-0.1,0c-0.1,0-0.1,0-0.1,0c0,0,0,0.1,0.1,0.1s0.1,0.1,0.1,0.1
			c0,0.1,0,0.1,0,0.2c0,0-0.1,0.1-0.1,0.1c0,0,0,0.1,0,0.1c0,0,0,0.1,0.1,0.2c0,0-0.1,0.1-0.2,0c-0.1,0-0.2,0-0.3-0.1
			c-0.1,0-0.2,0-0.3,0c-0.1,0-0.2,0-0.2,0.1c-0.1,0.1-0.1,0.2-0.1,0.3c0,0.1,0,0.2-0.1,0.3c0,0-0.1,0-0.1,0l-0.1,0.1
			c0,0,0-0.1,0-0.2c0-0.1,0-0.2,0-0.3s0-0.2-0.1-0.3c0-0.1-0.1-0.1-0.1-0.2c0,0-0.1-0.1-0.1,0c0,0-0.1,0-0.1,0l0,0c0,0,0-0.1,0-0.2
			c0-0.1,0-0.2,0-0.3c0-0.1,0-0.2,0-0.3c0-0.1,0-0.1,0-0.2c0-0.1,0-0.1,0-0.2c0,0,0.1-0.1,0.1-0.1c0,0,0.1-0.1,0.1-0.1
			c0,0,0-0.1-0.1-0.1c-0.1-0.1-0.2-0.1-0.3-0.3c-0.2-0.1-0.3-0.3-0.5-0.4c-0.2-0.1-0.3-0.3-0.5-0.4C67.1,56.1,67,56,66.9,56
			c-0.2-0.1-0.3-0.2-0.4-0.3c-0.1,0-0.2,0-0.3,0c-0.1,0-0.2,0.1-0.3,0.2c-0.1,0.1-0.3,0.1-0.4,0.2c-0.1-0.1-0.1-0.1,0-0.1
			s0.1,0,0.1,0c-0.1-0.1-0.1-0.2-0.2-0.2c0-0.1-0.1-0.1-0.1-0.2c0,0-0.1,0-0.2,0c-0.1,0-0.2,0.1-0.3,0.2s-0.1,0.2,0,0.3
			c0.1,0.1,0.2,0.1,0.2,0c0.1-0.1,0.2-0.1,0.2,0c-0.1,0.1-0.1,0.2-0.2,0.3c-0.1,0.1-0.2,0.3-0.3,0.4c-0.1,0.1-0.1,0.3-0.1,0.4
			c0,0.1,0,0.3,0.1,0.4l0,0c0,0-0.1,0-0.1,0s0,0,0,0s0,0,0,0l-0.1,0.1c-0.1,0.1-0.1,0.1,0,0.2c0,0.1,0.1,0.2,0.1,0.3
			c0,0.1,0.1,0.2,0.1,0.3c0,0.1-0.1,0.2-0.2,0.3c0.1,0,0.1,0,0.2,0.1c0.1,0.1,0.1,0.2,0.1,0.3c0,0.1-0.1,0.2-0.1,0.3
			c0,0.1-0.1,0.2-0.1,0.3c0,0.1,0,0.2,0.1,0.3l0.1,0.1c0-0.1,0-0.2,0.1-0.3c0.1-0.1,0.1-0.1,0.2-0.2s0.1-0.1,0.1-0.2
			c0-0.1,0-0.2-0.1-0.3c0,0,0.1,0,0.1,0.1s0,0,0.1,0.1c0.1,0.1,0.1,0.2,0.2,0.3c0,0.1,0,0.3,0,0.4c0,0.1,0,0.3,0,0.4
			c0,0.1,0,0.3,0.1,0.4c0,0.1,0.1,0.2,0.2,0.3c0.1,0.1,0.1,0.2,0.1,0.2l-0.3,1.1c0,0,0.1,0,0.1-0.1s0.1-0.1,0.1-0.1h0l0,0l0,0v0
			c-0.1,0.3-0.1,0.5-0.3,0.7l0.2,0c-0.2,0.1-0.3,0.2-0.4,0.3c-0.1,0.1-0.2,0.3-0.2,0.5c0,0.2-0.1,0.3,0,0.5c0,0.2,0.1,0.3,0.2,0.5
			c0,0.2-0.1,0.4-0.1,0.5c0,0.2-0.1,0.3-0.3,0.5c-0.1,0.1-0.2,0.1-0.4,0.1c-0.2,0-0.4,0-0.4-0.2c0,0.2-0.1,0.4-0.3,0.6
			c-0.1,0.1-0.2,0.2-0.3,0.3c-0.2,0.1-0.3,0.1-0.4,0l0,0c0,0,0-0.1,0-0.1c0,0,0-0.1,0-0.1l0,0l0,0c0,0.1-0.1,0.1-0.1,0.2
			s-0.1,0.2-0.1,0.2l0,0.1c0,0-0.1,0-0.2,0s-0.1,0-0.2,0C61.8,67,61.7,67,61.6,67c-0.1,0-0.2,0-0.3,0c0,0.1,0,0.2,0.1,0.2l-0.2,0.2
			c-0.1-0.1-0.1-0.2-0.1-0.4c0-0.2,0-0.3-0.1-0.3l0,0L60,67.4c0,0-0.1,0-0.1,0l0,0c0,0-0.1-0.1,0-0.1c0,0,0-0.1,0.1-0.1
			c0,0,0.1-0.1,0.1-0.1s0-0.1,0-0.1c-0.1-0.1-0.2-0.1-0.3-0.1c-0.1,0.1-0.2,0.1-0.3,0.2l-0.1-0.1c-0.1-0.1-0.1-0.2-0.1-0.4
			c0-0.1,0.1-0.3,0.1-0.4c-0.1,0-0.1,0-0.1,0s-0.1,0.1-0.1,0.1c-0.1,0.1-0.1,0.1-0.1,0.1s0,0.1-0.1,0.1c-0.1,0.1-0.1,0.1-0.2,0.2
			c-0.1,0-0.1,0-0.2,0c0,0,0,0,0,0c0,0,0,0,0-0.1c0,0,0.1,0,0.1-0.1s0.1-0.2,0.1-0.2l0,0l0,0c0,0,0,0,0,0c-0.1-0.1-0.1-0.1-0.2-0.2
			s-0.1,0-0.2,0l0,0c0,0,0,0.1,0,0.1s0,0.1,0,0.1v0c0,0,0,0,0,0c-0.1-0.1-0.2-0.2-0.2-0.2c0,0-0.1,0-0.1,0.1c0,0-0.1,0.1-0.1,0.1
			c0,0.1-0.1,0.1-0.2,0.1c0,0-0.1,0-0.2-0.1c-0.1-0.1-0.1-0.1-0.2-0.1c0,0-0.1,0-0.1,0c-0.1,0-0.1,0-0.1,0c0,0,0,0,0,0l0,0
			c-0.1-0.1-0.1-0.2-0.1-0.3c0-0.1,0-0.2-0.1-0.3c0,0-0.1-0.1-0.1-0.1s-0.1-0.1-0.1-0.1s-0.1,0-0.1,0c-0.1,0-0.1,0-0.2,0
			s0-0.1,0-0.2c0-0.1,0-0.2,0-0.2c0,0,0-0.1-0.1-0.2c0-0.1-0.1-0.2-0.1-0.3c0-0.1-0.1-0.2-0.1-0.3C55.7,64.4,55.6,64.3,55.6,64.3z
			 M56,64.3L56,64.3l0.1,0L56,64.3L56,64.3z M56.3,64.9c0,0-0.1,0-0.1,0c0,0-0.1,0.1,0,0.1c0,0,0.1,0,0.1,0
			C56.3,64.9,56.4,64.9,56.3,64.9z M56.8,64.6c-0.1-0.1-0.2-0.2-0.3-0.2s-0.1,0.1-0.1,0.2c0,0.1,0,0.2,0.1,0.4s0.2,0.3,0.4,0.5
			c0,0,0,0,0-0.1c0-0.1,0-0.2,0-0.3c0-0.1,0-0.2,0-0.3C56.8,64.7,56.8,64.7,56.8,64.6z M56.9,64C56.9,64,56.9,64,56.9,64
			C56.9,63.9,56.8,63.9,56.9,64C56.8,64,56.8,64,56.9,64C56.9,64,56.9,64,56.9,64z M57.2,64.6c-0.1,0.1-0.1,0.1-0.1,0.2c0,0,0,0,0,0
			c0,0,0,0,0,0C57.3,64.7,57.3,64.6,57.2,64.6L57.2,64.6z M59.1,63.6c0,0-0.2,0-0.3,0c-0.2,0-0.3,0-0.3,0l0.4,0.7L59.1,63.6z
			 M59.2,65.6l0.1,0L59.2,65.6L59.2,65.6z M59.8,66c-0.1-0.1-0.2-0.1-0.2-0.1l0.2,0.2C59.8,66.1,59.8,66.1,59.8,66z M61.8,64.9
			C61.8,64.9,61.8,64.9,61.8,64.9C61.7,65,61.7,65,61.8,64.9C61.8,65,61.8,65,61.8,64.9C61.9,65,61.9,64.9,61.8,64.9z M62.2,64.7
			c0,0-0.1,0-0.1,0c0,0-0.1,0.1,0,0.1c0,0,0.1,0,0.1,0C62.2,64.8,62.2,64.8,62.2,64.7z M62.3,57.7c0,0-0.1,0-0.1,0
			c0,0-0.1,0.1,0,0.1c0,0,0.1,0,0.1,0C62.4,57.8,62.4,57.7,62.3,57.7z M62.6,57.5C62.5,57.4,62.5,57.4,62.6,57.5
			C62.5,57.5,62.5,57.5,62.6,57.5C62.5,57.5,62.5,57.5,62.6,57.5C62.6,57.5,62.6,57.5,62.6,57.5z M62.7,58.2L62.7,58.2l0.1,0
			L62.7,58.2z M62.7,60L62.7,60c0.1,0.1,0.2,0,0.1-0.1L62.7,60z M62.9,58.9c0,0,0,0.1-0.1,0.1c0,0.1-0.1,0.1-0.1,0.1
			c0.1,0,0.2,0,0.2,0c0.1-0.1,0.1-0.1,0.2-0.1c0,0-0.1-0.1-0.1-0.1C62.9,58.9,62.9,58.9,62.9,58.9z M63,56c0,0.1,0,0.2,0.1,0.2
			l0.1-0.1L63,56z M63.4,65.9c-0.1-0.1-0.1-0.1-0.2-0.1s-0.2,0-0.3,0l0.1,0.1C63.2,66,63.3,66,63.4,65.9z M63.2,55.4
			c-0.1,0.1-0.1,0.1,0,0.2c0,0.1,0.1,0.1,0.1,0.2c0.1,0.1,0.2,0.1,0.2,0.1c0.1,0,0.1,0,0.2-0.1c0,0,0.1-0.1,0.1-0.1
			c0-0.1,0.1-0.1,0-0.2c0,0.1-0.1,0.1-0.1,0.1c-0.1,0-0.1,0-0.2,0c-0.1,0-0.1-0.1-0.2-0.1S63.3,55.5,63.2,55.4z M63.4,56.2
			c0.1,0.1,0.1,0.2,0,0.4c-0.1,0.1-0.2,0.2-0.2,0.3c0.2,0,0.4,0,0.6-0.2c0.2-0.1,0.3-0.3,0.5-0.4c0,0,0,0,0.1-0.1s0-0.1,0-0.1
			c-0.1,0.1-0.2,0.2-0.4,0.2C63.7,56.3,63.6,56.2,63.4,56.2L63.4,56.2z M63.2,64.9L63.2,64.9l0.2-0.1l-0.1-0.1L63.2,64.9z
			 M63.5,63.1c-0.1,0.1-0.2,0.2-0.2,0.3c-0.1,0.1,0,0.3,0.1,0.4l0.1,0.1c0,0,0.1,0.1,0.2,0.2c0.1,0.1,0.2,0.1,0.2,0.1c0,0,0,0,0,0
			c0,0,0.1-0.1,0-0.1c0,0-0.1-0.1-0.1-0.1c0,0,0-0.1-0.1-0.1c0-0.1,0-0.1,0.1-0.2c-0.1,0-0.2,0-0.2-0.1c0,0-0.1-0.1-0.2-0.2
			c0.1-0.1,0.2-0.1,0.2-0.2s0.1-0.1,0-0.3c0,0-0.1,0.1-0.1,0.1S63.5,63.1,63.5,63.1z M63.4,58.5c0,0-0.1,0-0.1,0s0,0.1,0,0.1
			c0,0,0.1,0,0.1,0S63.4,58.5,63.4,58.5z M63.6,61.8c-0.1,0-0.2,0-0.2,0l0.1,0.1L63.6,61.8z M63.5,61.2c-0.1,0.1-0.1,0.1,0,0.2
			c0,0.1,0.1,0.2,0.1,0.2c0,0,0.1,0,0.1,0c0.1,0,0.1,0,0.1-0.1L63.5,61.2z M63.7,60.2C63.7,60.2,63.7,60.2,63.7,60.2
			C63.6,60.2,63.6,60.3,63.7,60.2C63.7,60.3,63.8,60.2,63.7,60.2z M63.6,65.4c0.1,0,0.2,0,0.2,0l-0.1-0.1L63.6,65.4z M63.7,62.2
			L63.7,62.2l0.2-0.2L63.7,62.2z M63.9,61.1l0.1,0L63.9,61L63.9,61.1z M63.9,60.4L63.9,60.4l0.1,0L63.9,60.4L63.9,60.4z M64.1,53.9
			c0,0-0.1,0-0.1,0s0,0.1,0,0.1c0,0,0.1,0,0.1,0S64.2,53.9,64.1,53.9z M64.8,63.4c-0.1-0.1-0.3-0.2-0.4-0.3c-0.1,0-0.3,0-0.4,0.1
			c0.1,0.1,0.2,0.2,0.4,0.2C64.6,63.5,64.7,63.5,64.8,63.4z M64.3,65.1c0,0-0.1,0-0.1,0s0,0.1,0,0.1c0,0,0.1,0,0.1,0
			S64.3,65.1,64.3,65.1z M64.1,61.5l0.1,0.1c0,0,0.1-0.1,0.1-0.1s0-0.1,0-0.2L64.1,61.5z M64.4,62.6c-0.1,0.1-0.1,0.2-0.1,0.4
			l0.4-0.4C64.6,62.5,64.5,62.5,64.4,62.6z M64.5,60.7c0,0-0.1,0-0.1,0s0,0.1,0,0.1c0,0,0.1,0,0.1,0S64.5,60.7,64.5,60.7z
			 M64.5,64.7C64.5,64.7,64.5,64.7,64.5,64.7C64.4,64.7,64.4,64.8,64.5,64.7C64.5,64.8,64.5,64.8,64.5,64.7
			C64.5,64.8,64.5,64.7,64.5,64.7z M64.6,62.3C64.6,62.3,64.6,62.3,64.6,62.3C64.5,62.2,64.5,62.2,64.6,62.3
			C64.5,62.3,64.5,62.3,64.6,62.3C64.5,62.4,64.5,62.4,64.6,62.3z M65.2,60.8c0,0-0.1,0-0.1,0s-0.1,0.1-0.2,0.1S64.7,61,64.7,61
			c0,0-0.1,0.1-0.1,0.1c0.1,0.1,0.1,0.1,0.2,0.1c0.1,0,0.2,0,0.2-0.1c0,0,0.1-0.1,0.1-0.2C65.3,60.9,65.2,60.8,65.2,60.8z
			 M64.8,59.9c0,0-0.1,0-0.1,0s0,0.1,0,0.1c0,0,0.1,0,0.1,0S64.9,59.9,64.8,59.9z M64.7,60.2L64.7,60.2L64.7,60.2L64.7,60.2z
			 M64.9,63.1L64.9,63.1L64.9,63.1L64.9,63.1z M64.9,62.3c0,0.1,0,0.2,0,0.2l0.1-0.1L64.9,62.3z M65.4,61.3
			C65.4,61.2,65.3,61.2,65.4,61.3c-0.2,0.1-0.2,0.1-0.1,0.1C65.3,61.4,65.4,61.3,65.4,61.3z M65.7,55.3c-0.1,0.1-0.1,0.2,0,0.3
			l0.2-0.2L65.7,55.3z M66.1,55.2l0.1,0.1l0.1-0.1L66.1,55.2L66.1,55.2z M66.6,54.2c-0.1,0-0.2,0-0.2,0.1l0.1,0.1L66.6,54.2z
			 M66.7,54.7c0,0-0.1,0-0.1,0c0,0-0.1,0.1,0,0.1c0,0,0.1,0,0.1,0C66.8,54.8,66.8,54.8,66.7,54.7z M67.3,55C67.3,55,67.3,55,67.3,55
			C67.2,55.1,67.2,55.1,67.3,55C67.3,55.1,67.3,55.1,67.3,55C67.3,55.1,67.3,55.1,67.3,55z M69.2,55.3c-0.1-0.1-0.2-0.1-0.2-0.1
			c-0.1,0-0.2,0.1-0.2,0.1l-0.1,0.1c0.1,0,0.2,0,0.3,0.1c0.1,0,0.2,0,0.3-0.1C69.3,55.5,69.3,55.4,69.2,55.3L69.2,55.3z M70,56
			c0,0-0.1,0-0.1,0s0,0.1,0,0.1c0,0,0.1,0,0.1,0S70.1,56.1,70,56z M70,57.8L70,57.8c0.2,0,0.2,0,0.1-0.1L70,57.8z M70.4,56.8
			c0,0-0.1,0-0.1,0s0,0.1,0,0.1c0,0,0.1,0,0.1,0S70.4,56.9,70.4,56.8z"/>
		<path class="st2" d="M66.8,74.8c-0.1-0.1-0.1-0.1-0.2-0.1c-0.1,0-0.1-0.1-0.2-0.2c-0.1-0.1-0.1-0.2,0-0.3c0-0.1,0.1-0.2,0.2-0.3
			s0.2-0.2,0.3-0.3c0.1-0.1,0.2-0.2,0.3-0.3c0.2-0.2,0.4-0.4,0.5-0.5c0.2-0.1,0.4-0.3,0.6-0.5c0.2,0,0.3,0,0.3,0c0,0,0-0.1,0-0.2
			c0-0.1,0-0.2,0-0.2c0,0,0,0,0,0c0,0,0.1,0.1,0.1,0.1c0.1,0.1,0.1,0.1,0.2,0.1c0-0.2,0-0.4,0.1-0.6s0.2-0.3,0.4-0.5
			c0.3-0.3,0.5-0.5,0.7-0.6s0.5-0.3,0.9-0.3c0,0,0-0.1,0-0.1c0,0,0-0.1,0-0.1l0,0l0,0c0,0,0,0,0,0c0,0,0,0,0,0c0,0-0.1-0.1-0.2-0.1
			c0-0.1,0.1-0.2,0.3-0.4c0.1-0.2,0.3-0.4,0.4-0.5c0.1-0.1,0.2-0.2,0.3-0.2c0.1,0,0.2,0,0.3,0.1c0.1,0,0.1,0.1,0.2,0.1
			c0.1,0,0.1,0,0.2,0s0-0.1,0-0.2c-0.1-0.1-0.1-0.2,0-0.2c0,0,0.1-0.1,0.1-0.1c0,0,0,0,0.1,0s0.1,0,0.1,0s0.1,0,0.1-0.1
			C73,68,73.1,68,73.2,68c0,0,0.1,0,0.1-0.1c0-0.2,0-0.4,0-0.5c0-0.1,0-0.3,0.1-0.4c0.1-0.1,0.1-0.2,0.2-0.3s0.2-0.2,0.4-0.4
			c0.1-0.1,0.2-0.2,0.2-0.2c0.1-0.1,0.2-0.1,0.2-0.2c0.1-0.1,0.1-0.2,0.1-0.3c0-0.1,0-0.2-0.1-0.3c0-0.1-0.1-0.2-0.2-0.2
			s-0.1-0.1-0.1-0.1c-0.1,0-0.2-0.1-0.3-0.3c-0.2-0.1-0.4-0.3-0.6-0.5c-0.2-0.2-0.4-0.3-0.6-0.5c-0.2-0.1-0.3-0.2-0.3-0.3
			c-0.1-0.1-0.1-0.2-0.1-0.4c0-0.2,0-0.3,0-0.4L71.9,63c-0.1-0.1-0.3-0.2-0.5-0.4c-0.2-0.2-0.5-0.5-0.9-0.9l0.4,0.1
			c-0.1-0.1-0.2-0.2-0.2-0.4c-0.1-0.1,0-0.3,0.1-0.4c0.1-0.1,0.1-0.1,0.2,0c0,0,0,0,0.1,0.1c0,0,0,0.1,0.1,0.1
			c0.1,0.1,0.1,0.1,0.2,0.1c0.1,0,0.2-0.1,0.3-0.2c0.1-0.1,0.2-0.2,0.2-0.3c0-0.1,0.1-0.2,0.2-0.3l-0.2-0.1l0.2-0.2c0,0,0-0.1,0-0.2
			c0-0.1,0-0.1,0-0.1l0.2,0.1c0,0,0,0,0.1,0c0,0,0.1,0,0.1-0.1c0.1-0.1,0.2-0.2,0.2-0.3c0-0.1,0.1-0.2,0.1-0.2c0,0,0.1,0,0.2-0.1
			s0.1,0,0.2,0l0.6,0.5c-0.1,0.1-0.2,0.2-0.1,0.3c0,0.1,0.1,0.2,0.2,0.3c0,0,0.1-0.1,0.1-0.1c0,0,0-0.1,0.1-0.1c0.1-0.1,0.2,0,0.3,0
			c0,0,0,0.1,0,0.2c0,0.1,0,0.1,0,0.2c0.1,0.1,0.1,0.1,0.2,0c0.1,0,0.1-0.1,0.1-0.1l0.3,0.3L74.6,61c-0.1,0-0.1,0-0.2,0.1
			c-0.1,0-0.1,0-0.1,0c0.1,0.1,0.2,0.2,0.3,0.2c0.1,0,0.2,0,0.3,0c0,0.1,0,0.2-0.1,0.3c0,0-0.1,0.1-0.2,0.1c-0.1,0-0.1,0-0.2,0.1
			c0,0-0.1,0.1-0.1,0.2c0,0.1-0.1,0.1-0.1,0.1c0.1,0.1,0.1,0.1,0.2,0.1c0,0,0.1,0,0.1-0.1c0,0,0.1-0.1,0.1-0.1c0,0,0-0.1,0-0.1
			c0.1,0.1,0.2,0.1,0.2,0.1c0,0,0.1,0,0.1-0.1c0,0,0,0,0,0c0,0,0,0,0,0c0.1-0.1,0.1-0.1,0.2,0c0,0,0,0.1,0,0.2c0,0.1,0,0.2,0,0.3
			c0,0,0.1,0,0.1,0.1c0.1,0,0.1,0,0.1,0c0,0,0,0.1,0,0.1c0,0.1-0.1,0.1-0.2,0.2s-0.1,0.1-0.1,0.2s0,0.1,0,0.1c0.2,0,0.4,0,0.6,0
			c0.2,0,0.3,0,0.5,0c0.1,0,0.2,0,0.2,0c0.1,0.1,0.1,0.1,0,0.2c0,0.1-0.1,0.2-0.2,0.2c-0.1,0.1-0.2,0.1-0.3,0.2s-0.1,0.1-0.1,0.1
			c0.2,0,0.3,0,0.4,0c0.1,0,0.3,0,0.4,0c0.1,0,0.2,0,0.3,0c0.1,0,0.2-0.1,0.2-0.2c0,0.1,0,0.1,0,0.2s-0.1,0.1-0.1,0.2
			c-0.1,0.1-0.1,0.1-0.1,0.2s0,0.1,0,0.2c0,0,0.1,0.1,0.1,0.1c0.1,0.1,0.1,0.1,0.2,0.1c0,0,0-0.1,0-0.1c0,0,0-0.1,0-0.1h0
			c0,0,0.1,0,0.2-0.1c0.1,0,0.2-0.1,0.3-0.1c0,0,0,0,0,0.1c0,0,0,0.1,0,0.1c-0.1,0.1-0.1,0.1-0.2,0.2s-0.1,0.1-0.2,0.2
			c0.1,0.1,0.1,0.1,0.2,0.1c0.1,0,0.2,0,0.2,0.1l0,0l0,0c-0.1,0-0.2,0.1-0.2,0.1c0,0,0,0-0.1,0.1c0,0-0.1,0.1-0.1,0.1
			c0.1,0.1,0.2,0.1,0.3,0.1c0.1,0,0.2,0,0.3,0c0.1,0,0.2-0.1,0.3-0.2c0.1-0.1,0.2-0.1,0.2-0.2c0.2-0.2,0.3-0.4,0.4-0.5
			c0-0.1-0.1-0.3-0.3-0.6c0,0,0.1-0.1,0.1,0c0,0,0.1,0,0.1,0.1c0.1,0,0.1,0.1,0.2,0.2c0.1,0.1,0.2,0.1,0.4,0.2c0,0,0,0,0.1,0.1
			s0.1,0.1,0,0.1l-0.1,0l-0.7,0.7c0,0,0,0.1,0,0.1c0.1,0.1,0.3,0.2,0.4,0.1c0.1-0.1,0.2-0.2,0.3-0.2c0.1-0.1,0.1-0.2,0.1-0.3
			c0-0.1,0-0.2,0.1-0.3c0.1,0.1,0.2,0.3,0.2,0.5c0,0.2,0.1,0.3,0.1,0.4c0,0,0,0-0.1,0.1c0,0-0.1,0-0.1,0.1c-0.1,0.1-0.2,0.2-0.2,0.3
			c-0.1,0.1-0.2,0.2-0.2,0.3c-0.1,0.1-0.1,0.2-0.1,0.3s0,0.2,0,0.2c0.1,0.1,0.1,0.1,0.2,0.1s0.2,0,0.3,0l0.5-0.5c0,0,0,0-0.1-0.1
			s-0.1,0-0.1-0.1c-0.1-0.1-0.1-0.2,0-0.2c0.2,0.1,0.3,0.1,0.4,0.1c0.1,0,0.2,0,0.3-0.1c0.1,0,0.1-0.1,0.2-0.1c0,0,0.1,0,0.1,0
			c0.1,0.1,0.1,0.1,0.2,0.2c0,0.1,0,0.2-0.1,0.3l-0.2-0.2l-0.2,0.3c0,0,0.1,0,0.2,0c0.1,0,0.2,0,0.4,0c0.1,0,0.3,0,0.4,0
			c0.1,0,0.2,0,0.2,0L81.7,67c0.1,0.1,0.2,0.1,0.4,0.1c0.2,0,0.4,0.1,0.5,0.2c0.1,0.1,0.1,0.1,0.1,0.3c0,0.1,0,0.2,0,0.3
			c-0.1,0.1-0.2,0.1-0.4,0c-0.2,0-0.3-0.1-0.3-0.1c0,0,0-0.1,0-0.1s0-0.1,0-0.1c0,0,0,0-0.1,0c0,0-0.1,0-0.1,0.1
			c-0.1,0.1-0.1,0.2,0,0.2c0,0,0.1,0,0.1,0c0,0,0.1,0,0.1,0c-0.1,0-0.1,0.1-0.2,0.1c-0.1,0.1-0.1,0.2,0,0.4c0.1,0.1,0.2,0.1,0.3,0
			c0.1-0.1,0.1-0.1,0-0.1c-0.1,0-0.1-0.1,0-0.1c0,0,0.1,0,0.2,0c0.1,0,0.2,0,0.3,0.1c0.1,0,0.2,0,0.3,0.1c0.1,0,0.2,0,0.2,0
			c0,0,0-0.1,0-0.1c0-0.1,0-0.1,0-0.1c0,0,0.1,0,0.2,0c0.1,0,0.1,0.1,0.2,0.1c-0.1,0.1-0.3,0.2-0.5,0.3c-0.2,0.1-0.4,0.1-0.6,0
			c0,0.1,0,0.2,0,0.3c0,0.1,0,0.2,0.1,0.2c0,0,0.1,0,0.2,0c0.1,0,0.1,0,0.2,0c0.1,0.1,0.1,0.2,0,0.4s-0.2,0.3-0.3,0.4
			c-0.1,0.1-0.1,0.1-0.1,0.2c0,0.1,0.1,0.2,0.1,0.3c0,0.1,0.1,0.2,0.1,0.3c0,0.1,0,0.2-0.1,0.3c-0.1,0.1-0.2,0.2-0.2,0.2
			c0,0-0.1-0.1-0.3-0.2C82,70.6,82,70.6,82,70.5c0,0,0-0.1-0.1-0.1c-0.1-0.1-0.3-0.1-0.4-0.2s-0.3-0.1-0.4-0.2l0.1-0.1
			c0,0-0.1-0.1-0.2-0.1s-0.2-0.2-0.4-0.3c-0.1-0.1-0.3-0.2-0.4-0.3c-0.1-0.1-0.2-0.1-0.2-0.1c0,0,0,0-0.1,0s-0.1,0-0.1,0
			c-0.1-0.1-0.1-0.2-0.1-0.3c0-0.1,0-0.2-0.1-0.3c-0.1-0.1-0.2-0.1-0.3,0c-0.1,0.1-0.2,0.1-0.3,0c0,0,0-0.1,0-0.2c0-0.1,0-0.1,0-0.2
			c-0.2,0-0.3,0-0.5,0.1L78,67.6c0,0,0-0.1,0-0.2c0-0.1,0-0.1,0-0.1c-0.1-0.1-0.2-0.1-0.4,0s-0.4,0.1-0.4,0.2
			c-0.1,0.1-0.2,0.2-0.2,0.3c-0.1,0.1-0.2,0.2-0.3,0.4c-0.1,0.1-0.3,0.2-0.4,0.3c-0.1,0.1-0.3,0.2-0.4,0.3c-0.1,0.1-0.1,0.1-0.1,0.2
			c0,0-0.1,0-0.2,0c-0.1,0-0.2,0-0.2-0.1c-0.1,0-0.2,0-0.3-0.1c0,0,0,0.1-0.1,0.1c0,0.1,0,0.1,0,0.1l0,0c0,0,0.1,0,0.1,0
			s0.1,0,0.1,0l0,0l0,0c0,0,0,0,0,0c-0.1,0.1-0.1,0.1-0.2,0.1c-0.1,0-0.2,0-0.3,0c0,0,0,0.1,0,0.1c0,0.1,0,0.2,0,0.2
			c-0.1,0-0.1,0.1-0.2,0.1c-0.1,0-0.1,0.1-0.2,0.1c-0.1,0-0.1,0.1-0.2,0.1c0,0,0,0.1,0,0.1c0,0,0,0.1,0,0.1c0,0,0.1,0.1,0.2,0
			c0.1,0,0.1-0.1,0.2-0.1c0.1,0,0.1-0.1,0.2-0.2c0,0.1,0,0.1,0,0.2c0,0.1-0.1,0.1-0.1,0.2s-0.1,0.1-0.2,0.2
			c-0.1,0.1-0.1,0.2-0.1,0.2l-0.6,0.5c0,0,0,0,0,0c0,0-0.1-0.1,0-0.3c0-0.1,0-0.2,0-0.3c0,0,0,0,0,0s0,0,0,0l0,0
			c-0.2,0.2-0.3,0.3-0.4,0.6c-0.1,0.2-0.1,0.5,0.1,0.7c0,0,0.1,0,0.1,0c0.1,0,0.1,0,0.1,0.1c-0.1,0-0.2,0-0.3,0s-0.3,0-0.4,0.1
			c-0.1,0-0.3,0-0.4,0c-0.1,0-0.2,0-0.2,0l-0.5,0.5c0,0-0.1,0-0.1,0c-0.1,0-0.1,0-0.1,0c-0.1,0.1-0.1,0.2-0.2,0.4
			c0,0.2,0,0.3,0.1,0.4c0,0,0.1,0,0.1,0.1c0.1,0,0.1,0,0.1,0.1l-0.9,0c0,0,0-0.1-0.1-0.1c-0.1-0.1-0.1-0.1-0.2-0.1
			c-0.1,0-0.1,0-0.2,0.1s-0.1,0.1-0.2,0.1c-0.1,0-0.1,0.1-0.2,0.1c0,0-0.1,0.1-0.2,0.2c-0.1,0.1-0.2,0.2-0.3,0.3
			c-0.1,0.1-0.2,0.2-0.3,0.3c-0.1,0.1-0.2,0.2-0.2,0.2c-0.1,0.1-0.1,0.1-0.1,0.1c0,0,0,0.1,0,0.1c0,0,0,0.1,0,0.1s0,0.1-0.1,0.1
			c0,0-0.1,0.1-0.2,0.1c-0.1,0-0.3,0.1-0.4,0.1c-0.1,0-0.3,0-0.4,0.1c-0.1,0-0.2,0-0.3,0c0.1,0.1,0.1,0.1,0,0.2c0,0-0.1,0-0.1,0
			c0,0-0.1,0-0.1,0c-0.1-0.1-0.1-0.1-0.1-0.2c0-0.1,0-0.1,0-0.2c0-0.1,0-0.2,0-0.2C66.9,74.9,66.9,74.9,66.8,74.8z M69.4,71.4
			C69.4,71.3,69.4,71.3,69.4,71.4C69.4,71.4,69.4,71.4,69.4,71.4C69.4,71.4,69.4,71.4,69.4,71.4C69.4,71.4,69.4,71.4,69.4,71.4z
			 M70.3,71.1c-0.1-0.1-0.2-0.2-0.3-0.2c-0.1,0-0.3,0-0.4,0.1c0.1,0.1,0.2,0.2,0.4,0.2C70.1,71.2,70.2,71.2,70.3,71.1z M70.4,70.5
			c0,0-0.1,0-0.1,0s0,0.1,0,0.1c0,0,0.1,0,0.1,0S70.4,70.5,70.4,70.5z M71.2,70.4c0,0,0.1,0.1,0.2,0c0.1,0,0.1,0,0.1-0.1l-0.1-0.1
			L71.2,70.4z M71.8,61.8c-0.1-0.1-0.2-0.1-0.3,0c-0.1,0-0.2,0.1-0.3,0.1c0.1,0.2,0.2,0.3,0.3,0.3C71.7,62.2,71.8,62.1,71.8,61.8z
			 M71.3,72.1L71.3,72.1l0.1,0L71.3,72.1L71.3,72.1z M71.8,61.3l0.1,0l0.1-0.5L71.8,61.3z M72.1,71.4C72.1,71.4,72.1,71.4,72.1,71.4
			C72,71.5,72,71.5,72.1,71.4C72.1,71.5,72.1,71.5,72.1,71.4C72.1,71.5,72.1,71.4,72.1,71.4z M72.6,60.9c0,0-0.1,0-0.1,0
			c0,0-0.1,0.1-0.1,0.2c-0.1,0.1-0.1,0.2-0.1,0.2s0.1,0,0.2,0c0.1,0,0.2-0.1,0.2-0.1c0,0,0-0.1,0-0.2C72.6,61,72.6,61,72.6,60.9z
			 M72.4,71.5c0,0-0.1,0-0.1,0c0,0,0,0.1,0,0.1s0.1,0,0.1,0C72.5,71.6,72.5,71.6,72.4,71.5z M72.3,60.4l0.5,0.6l0.5-0.7L72.3,60.4z
			 M72.5,62.7L72.5,62.7l0.1,0L72.5,62.7L72.5,62.7z M72.9,59.5c-0.1,0.1-0.1,0.2,0,0.2s0.2,0.1,0.2,0L72.9,59.5z M73,62.6l0.1,0
			L73,62.6L73,62.6z M73.3,61.4c0,0-0.1,0-0.1,0c0,0,0,0.1-0.1,0.2c0,0.1-0.1,0.2,0,0.2c0,0,0.1,0,0.1-0.1s0.1-0.1,0.1-0.1
			C73.3,61.4,73.4,61.4,73.3,61.4z M73.3,68.1c0,0-0.1,0-0.1,0s0,0.1,0,0.1c0,0,0.1,0,0.1,0S73.3,68.2,73.3,68.1z M73.3,61.2
			c0,0-0.1,0-0.1,0s0,0.1,0,0.1s0.1,0,0.1,0S73.4,61.2,73.3,61.2z M73.4,60.9c0,0,0,0,0.1,0.1s0.1,0.1,0.2,0.1s0.1,0,0.2,0.1
			s0.1,0,0.1,0c0,0,0,0,0-0.1C74,61,74,61,74,60.9c0-0.1-0.1-0.1-0.1-0.2l0,0L73.4,60.9z M73.6,61.9c0,0,0.1,0.1,0,0.1
			c0,0,0,0.1,0,0.1C73.6,62.1,73.6,62,73.6,61.9c0.1,0,0.1-0.1,0.1-0.1h-0.1L73.6,61.9z M73.6,67.7C73.6,67.7,73.6,67.7,73.6,67.7
			C73.5,67.7,73.5,67.7,73.6,67.7C73.6,67.8,73.6,67.8,73.6,67.7C73.6,67.7,73.6,67.7,73.6,67.7z M74.3,62.5c0,0-0.1,0-0.3,0
			c-0.2,0-0.3,0.1-0.3,0.1c0.1,0.1,0.2,0.2,0.3,0.2c0.1,0,0.1,0,0.2-0.1C74.3,62.6,74.3,62.6,74.3,62.5
			C74.3,62.5,74.3,62.5,74.3,62.5z M74.3,62.9C74.3,62.9,74.2,62.9,74.3,62.9c0,0.1,0,0.2,0,0.2c0,0,0,0,0,0
			C74.3,63,74.4,63,74.3,62.9C74.4,62.9,74.4,62.9,74.3,62.9L74.3,62.9z M74.8,62.3c0,0-0.1,0-0.1,0c0,0,0,0.1,0,0.1
			c0,0,0.1,0,0.1,0C74.8,62.4,74.8,62.3,74.8,62.3z M74.9,65.9C74.9,65.9,74.9,65.9,74.9,65.9C74.9,65.8,74.8,65.8,74.9,65.9
			C74.8,65.8,74.8,65.9,74.9,65.9C74.9,65.9,74.9,65.9,74.9,65.9z M75.1,63.4c0,0-0.1,0-0.1,0c0,0,0,0.1,0,0.1c0,0,0.1,0,0.1,0
			C75.2,63.5,75.2,63.4,75.1,63.4z M75.9,62.9L75.9,62.9L75.9,62.9L75.9,62.9z M76.5,67.6L76.5,67.6c0.1,0,0.2,0,0.1-0.1L76.5,67.6z
			 M76.8,64.6L76.8,64.6l0.1,0L76.8,64.6L76.8,64.6z M77,67.2L77,67.2L77,67.2L77,67.2z M77.4,66c0,0-0.1,0-0.1,0s0,0.1,0,0.1
			s0.1,0,0.1,0S77.4,66.1,77.4,66z M77.9,65.6c0,0-0.1,0-0.3,0c-0.2,0-0.3,0.1-0.3,0.1c0.1,0.1,0.2,0.2,0.3,0.2c0.1,0,0.1,0,0.2-0.1
			C77.9,65.8,77.9,65.8,77.9,65.6C77.9,65.7,77.9,65.7,77.9,65.6z M78.2,66.3c0,0-0.1,0-0.2,0.1c-0.1,0.1-0.2,0.1-0.2,0.2
			c0.2,0.2,0.3,0.2,0.5,0c0,0,0.1-0.1,0.1-0.1S78.2,66.4,78.2,66.3z M78.4,66.9c0,0-0.1,0-0.1,0c0,0,0,0.1,0,0.1c0,0,0.1,0,0.1,0
			S78.4,66.9,78.4,66.9z M78.7,67c0-0.1-0.1-0.1-0.1-0.1s-0.1,0-0.1,0c0,0-0.1,0-0.1,0.1c0,0,0,0,0,0c0.1-0.1,0.1-0.1,0.2,0
			c0,0,0,0,0,0.1C78.6,66.9,78.6,67,78.7,67C78.7,67,78.7,67,78.7,67z M79.1,66.6c-0.1,0-0.1,0-0.2,0s-0.1,0.1-0.1,0.1l0.2,0.2
			C79,66.8,79.1,66.7,79.1,66.6z M79,65.4c-0.1,0.1-0.1,0.2,0,0.3c0.1,0.1,0.1,0.1,0.2,0c0-0.1,0-0.2,0-0.2
			C79.1,65.5,79,65.4,79,65.4z M79,66.2C79,66.3,79,66.3,79,66.2c0,0.1,0,0.1,0,0.1c0.1,0,0.2,0,0.2,0c0,0,0.1,0,0.1-0.1
			c0.1-0.1,0.1-0.2,0.1-0.3c-0.1,0-0.2,0.1-0.3,0.1C79.1,66.2,79,66.2,79,66.2z M80,68.4C80,68.4,80,68.4,80,68.4
			C80,68.4,80,68.5,80,68.4C80,68.5,80,68.5,80,68.4C80.1,68.4,80.1,68.4,80,68.4z M80.7,67.6c-0.1,0.1-0.2,0.2-0.3,0.3
			c-0.1,0.1-0.2,0.3-0.3,0.4c0.1,0.1,0.2,0.1,0.3,0.1s0.2-0.1,0.3-0.1L80.5,68L80.7,67.6L80.7,67.6z M81,68c0,0-0.1,0-0.1,0
			c0,0,0,0.1,0,0.1s0.1,0,0.1,0C81,68.1,81,68,81,68z M81.4,67.3C81.4,67.3,81.4,67.3,81.4,67.3C81.4,67.3,81.3,67.3,81.4,67.3
			C81.3,67.3,81.3,67.3,81.4,67.3C81.3,67.4,81.4,67.4,81.4,67.3z M81.4,67.9C81.4,67.8,81.4,67.8,81.4,67.9
			C81.4,67.8,81.3,67.8,81.4,67.9C81.3,67.8,81.3,67.8,81.4,67.9C81.4,67.9,81.4,67.9,81.4,67.9z M81.9,68.8c-0.1,0-0.1,0-0.1,0
			c0,0-0.1,0.1-0.1,0.1l0.1,0.1L81.9,68.8z M82.4,70c-0.1-0.1-0.2-0.1-0.3,0c-0.1,0.1-0.2,0.1-0.3,0.2l0.1,0.1c0,0,0.1,0,0.2-0.1
			C82.3,70.1,82.4,70.1,82.4,70z M82.4,70.1c0,0-0.1,0-0.1,0c0,0,0,0.1,0,0.1s0.1,0,0.1,0C82.4,70.2,82.4,70.2,82.4,70.1z
			 M82.4,69.2c0,0-0.1,0.1-0.1,0.2c0,0.1,0,0.1,0,0.1c0,0,0.1,0,0.1,0c0.1,0,0.1,0,0.1,0c0,0,0.1-0.1,0-0.1
			C82.5,69.3,82.5,69.3,82.4,69.2C82.5,69.3,82.4,69.3,82.4,69.2C82.4,69.3,82.4,69.3,82.4,69.2z M82.6,67.5c0,0-0.1,0-0.1,0
			c0,0,0,0.1,0,0.1c0,0,0.1,0,0.1,0C82.6,67.6,82.6,67.5,82.6,67.5z"/>
	</g>
</g>
</svg>
